SplineFontDB: 3.0
FontName: ParkerChronicle
FullName: Parker Chronicle
FamilyName: ParkerChronicle
Weight: Bold
Copyright: Copyright (c) 2018 by Peter S. Baker
UComments: "2015-8-14: Created with FontForge (http://fontforge.org)+AAoACgAA-Pen angle is about 27 degrees."
Version: 001.000
ItalicAngle: 0
UnderlinePosition: -100
UnderlineWidth: 50
Ascent: 700
Descent: 300
InvalidEm: 0
LayerCount: 2
Layer: 0 0 "Back" 1
Layer: 1 0 "Fore" 0
XUID: [1021 53 1776086537 2101515]
StyleMap: 0x0000
FSType: 0
OS2Version: 0
OS2_WeightWidthSlopeOnly: 0
OS2_UseTypoMetrics: 1
CreationTime: 1439566081
ModificationTime: 1532173614
PfmFamily: 81
TTFWeight: 700
TTFWidth: 5
LineGap: 90
VLineGap: 0
OS2TypoAscent: 0
OS2TypoAOffset: 1
OS2TypoDescent: 0
OS2TypoDOffset: 1
OS2TypoLinegap: 90
OS2WinAscent: 0
OS2WinAOffset: 1
OS2WinDescent: 0
OS2WinDOffset: 1
HheadAscent: 0
HheadAOffset: 1
HheadDescent: 0
HheadDOffset: 1
OS2FamilyClass: 2306
OS2Vendor: 'PfEd'
Lookup: 2 0 0 "'ccmp' Glyph Composition/Decomposition in Latin lookup 15" { "'ccmp' Glyph Composition/Decomposition in Latin lookup 15-1"  } ['ccmp' ('DFLT' <'dflt' > 'latn' <'dflt' > ) ]
Lookup: 1 0 0 "'hist' Historical Forms in Latin lookup 2" { "'hist' Historical Forms in Latin lookup 2-1"  } ['hist' ('DFLT' <'dflt' > 'latn' <'dflt' > ) ]
Lookup: 1 0 0 "'salt' Stylistic Alternatives in Latin lookup 4" { "'salt' Stylistic Alternatives in Latin lookup 4-1"  } ['salt' ('DFLT' <'dflt' > 'latn' <'dflt' > ) ]
Lookup: 1 0 0 "'ss16' Style Set 16 in Latin lookup 20" { "'ss16' Style Set 16 in Latin lookup 20-1"  } ['ss16' ('DFLT' <'dflt' > 'latn' <'dflt' > ) ]
Lookup: 1 0 0 "'ss17' Style Set 17 in Latin lookup 18" { "'ss17' Style Set 17 in Latin lookup 18-1"  } ['ss17' ('DFLT' <'dflt' > 'latn' <'dflt' > ) ]
Lookup: 1 0 0 "'ss18' Style Set 18 in Latin lookup 17" { "'ss18' Style Set 18 in Latin lookup 17-1"  } ['ss18' ('DFLT' <'dflt' > 'latn' <'dflt' > ) ]

StartChar: n
Encoding: 110 110 0
Width: 510
VWidth: 0
Flags: HMW
AnchorPoint: "Above" 264 450 basechar 0
LayerCount: 2
Fore
SplineSet
6 328 m 0
 6 343 18.3471614673 349.173580734 32 356 c 0
 60 370 128 389 163 389 c 0
 182 389 189 372 189 355 c 0
 189 343 189 326 188 314 c 1
 198 317 209 320 222 325 c 0
 242 333 252 340 271 349 c 0
 285 355 294 358 308 365 c 0
 323 373 339 380 357 380 c 0
 368 380 375 373 381 366 c 0
 417 323 438 267 438 191 c 0
 438 158 426 134 426 102 c 3
 426 66 481 63 481 43 c 3
 481 11 412 5 386 -1 c 0
 370 -5 354 -19 339 -19 c 3
 331 -19 328 -6 328 4 c 0
 328 25 334 29 338 41 c 0
 343 56 343 67 343 80 c 0
 343 84 343 88 343 92 c 0
 343 98 344 106 344 112 c 0
 344 146 336 176 325 201 c 0
 317 220 308 228 300 247 c 0
 292 264 294 297 268 297 c 3
 226 297 205 249 186 224 c 0
 180 217 179 199 179 183 c 0
 179 172 180 162 180 156 c 0
 180 119 183 97 206 78 c 0
 209 76 210 71 210 67 c 0
 210 61 208 55 205 51 c 0
 182 22 156 13 123 0 c 0
 119 -1 116 -2 112 -2 c 0
 96 -2 76 7 76 23 c 0
 76 40 98 51 98 69 c 0
 98 79 95 87 94 97 c 0
 90 138 87 160 87 200 c 0
 87 204 87 208 87 212 c 0
 87 258 51 283 22 300 c 0
 12.6684947007 305.470192762 6 319 6 328 c 0
EndSplineSet
Substitution2: "'ss18' Style Set 18 in Latin lookup 17-1" n.alt
Substitution2: "Single Substitution Randoms-1" n.alt
Substitution2: "'salt' Stylistic Alternatives in Latin lookup 4-1" n.alt
EndChar

StartChar: p
Encoding: 112 112 1
Width: 528
VWidth: 0
Flags: HMW
AnchorPoint: "Above" 276 450 basechar 0
LayerCount: 2
Fore
SplineSet
-10 322 m 0
 -10 329 -7 335 1 338 c 0
 14 343 19 352 29 359 c 0
 53 375 65 375 84 387 c 0
 95 394 106 411 121 411 c 0
 142 411 160 383 160 361 c 0
 160 351 159 340 159 330 c 0
 159 308 161 215 179 215 c 3
 200 215 218 275 232 289 c 0
 266 325 314 371 380 371 c 0
 410 371 431.500976562 355.703125 450 342 c 0
 477 322 504 300 504 254 c 0
 504 237 502 223 498 211 c 0
 491 190 481 175 469 160 c 0
 460 149 452 137 443 123 c 1
 466 116 471 92 493 83 c 0
 506 78 529 78 529 64 c 0
 529 42 505 40 491 30 c 0
 477 20 443 -1 413 -1 c 0
 376 -1 367 30 326 30 c 0
 315 30 310 40 310 50 c 0
 310 59 312 70 317 75 c 0
 340 100 364 126 410 126 c 1
 415 138 419 150 419 166 c 0
 419 195 407 214 395 233 c 0
 382 254 365 281 331 281 c 0
 233 281 235 137 209 65 c 0
 197 32 189 9 189 -23 c 3
 189 -75 200 -125 200 -178 c 0
 200 -224 196 -270 192 -316 c 0
 188 -357 169 -375 139 -395 c 0
 131 -401 118 -404 107 -404 c 0
 94 -404 77 -398 77 -382 c 0
 77 -371 90 -361 92 -350 c 0
 97 -326 97 -294 97 -263 c 3
 97 -243 99 -224 99 -204 c 0
 99 -175 94 -148 94 -120 c 0
 94 -85 89 -59 82 -32 c 0
 70 13 70 77 70 136 c 3
 70 186 69 250 39 269 c 0
 23 279 18 293 0 303 c 0
 -6 306 -10 314 -10 322 c 0
EndSplineSet
Substitution2: "'salt' Stylistic Alternatives in Latin lookup 4-1" p.alt
Substitution2: "'ss18' Style Set 18 in Latin lookup 17-1" p.alt
Substitution2: "Single Substitution Randoms-1" p.alt
EndChar

StartChar: d
Encoding: 100 100 2
Width: 422
VWidth: 0
Flags: HMW
AnchorPoint: "Above" 217 596 basechar 0
LayerCount: 2
Fore
SplineSet
149 250 m 0
 149 238 156 229 156 217 c 3
 156 211 154 207 154 200 c 19
 154 175 155 145 159 130 c 0
 165 108 179 93 207 93 c 3
 280 93 280 164 293 226 c 0
 294 232 295 237 295 242 c 0
 295 266 280 277 266 294 c 0
 261 300 253 302 242 302 c 3
 206 302 149 274 149 250 c 0
35 124 m 0
 35 194 51 220 74 266 c 0
 85 288 107 303 128 315 c 0
 144 325 162 335 177 341 c 0
 189 346 216 357 225 366 c 0
 229 369 230 373 230 376 c 3
 230 383 226 390 222 397 c 0
 217 407 211 417 204 425 c 0
 188 445 173 465 154 482 c 0
 123 510 100 541 72 572 c 0
 62 583 57 600 57 616 c 0
 57 649 70 670 101 670 c 0
 148 670 184 610 206 584 c 0
 262 520 335 463 376 385 c 0
 392 353 401 320 401 282 c 0
 401 201 364 144 322 99 c 0
 294 69 264 41 232 17 c 0
 211 1 187 -14 153 -14 c 0
 73 -14 35 43 35 124 c 0
EndSplineSet
Substitution2: "'ss18' Style Set 18 in Latin lookup 17-1" d.alt1
Substitution2: "'salt' Stylistic Alternatives in Latin lookup 4-1" d.alt1
Substitution2: "Single Substitution Randoms2-1" d.alt2
Substitution2: "Single Substitution Randoms-1" d.alt1
EndChar

StartChar: b
Encoding: 98 98 3
Width: 438
Flags: HMW
AnchorPoint: "Above" 164 611 basechar 0
LayerCount: 2
Fore
SplineSet
-17 560 m 0x3c
 -17 574 -10 591 2 594 c 0
 15 597 21 602 29 611 c 0
 41 624 56 633 65 648 c 0
 75 663 83 673 103 676 c 0
 115 679 131 685 142 685 c 0
 152 685 159 681 159 666 c 0
 159 658 157 650 157 642 c 0
 157 630 159 618 159 605 c 0
 159 584 155 567 155 545 c 0
 155 539 155 533 155 527 c 0
 155 488 142 459 140 422 c 0
 139 407 138 393 138 378 c 0
 138 361 144 353 163 353 c 0
 169 353 177 353 183 354 c 0
 198 356 213 359 228 365 c 0
 246 372 263 384 287 384 c 4
 379 384 427 314 427 223 c 0
 427 155 393 125 360 90 c 0
 344 73 329 54 310 41 c 0
 292 29 274 21 258 8 c 0
 240 -6 224 -15 202 -15 c 0x5c
 194 -15 180 -12 173 -12 c 0x3c
 165 -12 168 -17 157 -25 c 0
 150 -30 140 -31 128 -31 c 0
 119 -31 108 -30 99 -29 c 0
 62 -25 53 9 47 41 c 0x9c
 43 61 43 81 43 106 c 0
 43 119 44 132 44 144 c 0
 44 160 43 175 43 191 c 0
 43 217 45 243 45 268 c 0
 45 303 42 332 37 363 c 0
 29 412 37 459 17 494 c 0
 9 508 4 526 -7 539 c 0
 -12 545 -17 551 -17 560 c 0x3c
139 274 m 0
 139 236 140 199 148 163 c 0
 153 141 157 119 157 93 c 2
 157 71 l 2
 157 64 163 56 173 56 c 0
 180 56 189 57 195 58 c 0
 256 63 306 75 306 147 c 0x5c
 306 171 300 195 296 220 c 0
 288 274 259 311 197 311 c 0
 185 311 173 309 162 306 c 0
 142 300 139 300 139 274 c 0
EndSplineSet
Substitution2: "Single Substitution Randoms-1" b.alt
EndChar

StartChar: thorn
Encoding: 254 254 4
Width: 400
VWidth: 0
Flags: HMW
AnchorPoint: "Above" 174 522 basechar 0
LayerCount: 2
Fore
SplineSet
-24 484 m 3
 -24 495 -2 507 11 514 c 0
 40 529 53 548 79 564 c 0
 87 569 114 596 132 596 c 3
 146 596 158 567 158 553 c 0
 158 531 153 512 153 492 c 0
 153 473 156 455 156 436 c 0
 156 402 153 370 153 336 c 3
 153 323 155 318 160 318 c 0
 164 318 171 323 181 327 c 0
 207 337 234 348 257 360 c 0
 277 371 300 378 321 378 c 3
 354 378 381 360 381 313 c 3
 381 243 334 199 302 157 c 0
 257 99 212 42 167 -15 c 0
 157 -27 157 -40 156 -63 c 0
 154 -159 150 -253 144 -346 c 0
 142 -385 147 -421 122 -440 c 0
 114 -446 83 -470 62 -470 c 3
 51 -470 43 -462 43 -445 c 0
 43 -430 50 -416 51 -400 c 0
 53 -347 54 -295 54 -241 c 0
 54 -167 62 -95 62 -20 c 0
 62 28 63 75 63 123 c 3
 63 175 58 225 56 275 c 0
 54 333 53 392 51 449 c 1
 30 452 -24 464 -24 484 c 3
154 247 m 2
 157 93 l 2
 157 70 157 59 162 59 c 3
 165 59 170 64 179 73 c 0
 191 86 201 101 211 116 c 0
 234 150 265 183 280 225 c 0
 283 233 284 241 284 248 c 3
 284 272 270 290 256 305 c 0
 250 311 245 313 240 313 c 3
 234 313 227 311 218 308 c 0
 195 300 177 292 160 276 c 0
 153 269 154 261 154 247 c 2
EndSplineSet
Substitution2: "'ss18' Style Set 18 in Latin lookup 17-1" thorn.alt
Substitution2: "'salt' Stylistic Alternatives in Latin lookup 4-1" thorn.alt
Substitution2: "Single Substitution Randoms-1" thorn.alt
EndChar

StartChar: c
Encoding: 99 99 5
Width: 302
VWidth: 0
Flags: HMW
AnchorPoint: "Above" 168 450 basechar 0
LayerCount: 2
Fore
SplineSet
21 182 m 0
 21 248 50 301 84 339 c 0
 112 371 137 402 182 418 c 0
 186 420 190 420 194 420 c 0
 205 420 212 415 219 409 c 0
 226 403 234 397 239 389 c 0
 244 382 245 375 248 367 c 0
 251 359 259 348 259 338 c 0
 259 327 245 319 236 314 c 0
 227 309 218 302 209 297 c 0
 198 291 185 287 175 281 c 0
 172 279 168 278 164 278 c 0
 158 278 154 281 154 290 c 0
 154 292 155 295 155 297 c 0
 155 309 150 314 135 314 c 0
 129 314 122 314 118 312 c 1
 108 297 100 277 100 255 c 0
 100 215 115 190 128 161 c 0
 139 137 149 113 166 95 c 0
 171 89 178 84 183 78 c 1
 188 77 190 73 194 70 c 0
 202 64 214 56 227 56 c 0
 246 56 260 78 263 95 c 0
 264 101 267 107 272 107 c 0
 274 107 275 107 277 106 c 0
 285 103 296 97 296 86 c 0
 296 84 296 82 295 79 c 0
 285 50 268 21 241 9 c 0
 231 5 220 3 209 -1 c 0
 200 -4 190 -8 180 -10 c 0
 168 -13 156 -15 145 -18 c 0
 142 -19 139 -19 137 -19 c 0
 125 -19 112 -7 106 -0 c 0
 98 9 91 20 84 30 c 0
 56 70 21 119 21 182 c 0
EndSplineSet
Substitution2: "'salt' Stylistic Alternatives in Latin lookup 4-1" c.alt1
Substitution2: "'ss18' Style Set 18 in Latin lookup 17-1" c.alt1
Substitution2: "Single Substitution Randoms2-1" c.alt1
Substitution2: "Single Substitution Randoms-1" c.alt2
EndChar

StartChar: r
Encoding: 114 114 6
Width: 436
VWidth: 0
Flags: HW
HStem: 177 88<319.5 384.012> 374 20G<149 156.5 323 341>
VStem: 92 92<-249.25 19.7038> 92 92<-249.197 -147.888 -145.92 195.531>
AnchorPoint: "Above" 254 450 basechar 0
LayerCount: 2
Back
SplineSet
5 316 m 0xe0
 5 319 8 330 12 333 c 0
 36 353 74 357 109 370 c 0
 117 373 123 376 129 381 c 0
 136 387 145 394 153 394 c 0
 160 394 166 389 170 377 c 0
 178 352 182 324 183 293 c 0
 183 287 183 263 189 263 c 3
 196 263 201.193344182 268.838457824 207 276 c 0
 237 313 253 330 285 358 c 0
 297 368 314 378 332 378 c 3
 350 378 355 357 359 333 c 0
 363 307 370 265 381 265 c 3
 389 265 396 268 406 280 c 0
 411 286 417 290 420 290 c 3
 426 290 428 284 428 277 c 3
 428 262 420 247 410 231 c 0
 400 215 393 205 380 196 c 0
 360 182 347 177 330 177 c 3
 309 177 289 226 279 251 c 0
 272 267 265 275 256 275 c 3
 243 275 234 258 229 247 c 0
 221 232 213 213 202 186 c 0
 193 163 189 143 189 110 c 0
 189 56 184 -4 184 -50 c 2
 184 -75 l 2
 184 -99 182 -124 182 -147 c 0
 182 -166 184 -181 184 -196 c 0
 184 -240 148 -265 122 -283 c 0
 110 -291 101 -293 96 -293 c 3
 89 -293 87 -286 87 -272 c 3
 87 -247 92 -206 92 -176 c 2
 92 -124 l 2
 92 -75 94 -27 94 22 c 0
 94 64.9505362143 95 105.620712073 95 149 c 0
 95 189 83 217 70 244 c 0
 65 255 44 277 34 283 c 0
 23 289 5 303 5 316 c 0xe0
EndSplineSet
Fore
SplineSet
5 316 m 0xe0
 5 319 8 330 12 333 c 0
 36 353 74 357 109 370 c 0
 117 373 123 376 129 381 c 0
 136 387 145 394 153 394 c 0
 160 394 166 389 170 377 c 0
 178 352 182 324 183 293 c 0
 183 287 183 263 189 263 c 3
 196 263 202 269 208 276 c 0
 238 313 253 340 285 368 c 0
 297 378 314 388 332 388 c 3
 350 388 356 367 359 343 c 0
 362 317 370 265 381 265 c 3
 389 265 396 268 406 280 c 0
 411 286 417 290 420 290 c 3
 426 290 428 284 428 277 c 3
 428 262 420 247 410 231 c 0
 400 215 393 205 380 196 c 0
 360 182 347 177 330 177 c 3
 309 177 287 235 279 261 c 0
 274 277 265 285 256 285 c 3
 243 285 234 268 229 257 c 0
 221 242 213 213 202 186 c 0
 193 163 189 143 189 110 c 0
 189 56 184 -4 184 -50 c 2
 184 -75 l 2
 184 -99 182 -124 182 -147 c 0
 182 -166 184 -181 184 -196 c 0
 184 -240 148 -265 122 -283 c 0
 110 -291 101 -293 96 -293 c 3
 89 -293 87 -286 87 -272 c 3
 87 -247 92 -206 92 -176 c 2
 92 -124 l 2
 92 -75 94 -27 94 22 c 0
 94 65 95 106 95 149 c 0
 95 189 83 217 70 244 c 0
 65 255 44 277 34 283 c 0
 23 289 5 303 5 316 c 0xe0
EndSplineSet
Substitution2: "'salt' Stylistic Alternatives in Latin lookup 4-1" r.alt
Substitution2: "'ss18' Style Set 18 in Latin lookup 17-1" r.alt
Substitution2: "Single Substitution Randoms-1" r.alt
Substitution2: "'ss16' Style Set 16 in Latin lookup 20-1" uniA783
Substitution2: "'hist' Historical Forms in Latin lookup 2-1" uniA783
EndChar

StartChar: m
Encoding: 109 109 7
Width: 745
VWidth: 0
Flags: HMW
AnchorPoint: "Above" 347 450 basechar 0
LayerCount: 2
Fore
SplineSet
-1 323 m 0
 -1 340 39 361 47 368 c 0
 59 378 71 375 95 400 c 0
 100 406 111 418 121 418 c 0
 139 418 150 388 155 374 c 1
 166 345 174 325 210 325 c 0
 250 325 280 343 317 350 c 0
 331 353 342 353 349 363 c 0
 352 367 354 370 359 370 c 0
 373 370 383 350 390 342 c 0
 394 337 399 332 402 327 c 1
 408 326 413 325 420 325 c 0
 464 325 481 358 517 369 c 0
 526 372 534 374 542 377 c 0
 549 380 558 381 566 381 c 0
 629 381 649 325 664 277 c 0
 670 259 672 243 672 222 c 0
 672 190 668 160 661 136 c 0
 660 134 660 132 660 130 c 0
 660 117 675 113 681 102 c 0
 694 76 743 87 743 46 c 0
 743 40 740 34 731 31 c 0
 713 24 709 5 689 0 c 0
 671 -5 646 -11 627 -11 c 0
 599 -11 569 -4 569 23 c 0
 569 47 574 72 574 99 c 0
 574 169 567 232 539 275 c 0
 533 284 533 288 520 290 c 0
 509 292 496 293 484 293 c 0
 442 293 428 271 417 242 c 0
 414 235 413 228 413 221 c 3
 413 215 413 209 415 202 c 0
 419 183 426 164 428 145 c 0
 430 125 435 111 451 103 c 0
 458 100 467 96 467 89 c 0
 467 87 466 84 464 81 c 0
 450 59 453 30 433 14 c 0
 422 5 406 0 388 0 c 0
 357 0 342 19 342 44 c 0
 342 60 353 78 353 95 c 0
 353 116 342 130 341 151 c 0
 339 176 335 195 330 214 c 0
 323 241 319 250 302 268 c 0
 289 281 274 293 254 293 c 0
 224 293 207 272 193 254 c 0
 187 246 184 235 179 226 c 0
 172 214 171 204 171 184 c 3
 171 177 171 170 171 163 c 0
 171 115 187 82 220 67 c 0
 227 64 229 60 229 56 c 0
 229 49 221 40 218 33 c 0
 208 11 188 -4 157 -4 c 2
 128 -4 l 2
 113 -4 98 5 98 20 c 0
 98 33 104 45 104 60 c 0
 104 102 96 209 90 247 c 0
 85 278 79 283 56 290 c 0
 50 292 42 293 35 294 c 0
 23 296 -1 308 -1 323 c 0
EndSplineSet
Substitution2: "Single Substitution Randoms-1" m.alt2
Substitution2: "'ss18' Style Set 18 in Latin lookup 17-1" m.alt
Substitution2: "'salt' Stylistic Alternatives in Latin lookup 4-1" m.alt
EndChar

StartChar: o
Encoding: 111 111 8
Width: 423
VWidth: 0
Flags: HMW
AnchorPoint: "Above" 230 450 basechar 0
LayerCount: 2
Back
SplineSet
151.213867188 497.803710938 m 25
 352.786132812 102.196289062 l 1049
30 418 m 1
 312 -130 l 1049
EndSplineSet
Fore
SplineSet
132 260 m 0
 132 235 136 212 143 193 c 0
 160 149 189 76 248 76 c 0
 286 76 300 114 300 154 c 0
 300 235 249 295 194 319 c 0
 190 321 185 321 180 321 c 0
 149 321 132 292 132 260 c 0
31 204 m 0
 31 255 53 290 79 323 c 0
 106 357 163 410 236 410 c 0
 320 410 387 342 387 253 c 0
 387 230 369 169 365 147 c 0
 350 71 313 13 248 -14 c 0
 244 -16 242 -16 239 -16 c 0
 230 -16 225 -9 212 -9 c 0
 203 -9 188 -13 171 -13 c 0
 85 -13 31 117 31 204 c 0
EndSplineSet
EndChar

StartChar: a
Encoding: 97 97 9
Width: 475
VWidth: 0
Flags: HMW
AnchorPoint: "Above" 291 450 basechar 0
LayerCount: 2
Fore
SplineSet
129 199 m 0
 129 187 140 181 145 172 c 0
 159 148 175 126 193 106 c 0
 202 97 213 89 224 89 c 0
 247 89 260 121 267 140 c 1
 268 163 271 187 271 211 c 0
 271 249 267 273 248 294 c 0
 244 298 242 299 240 299 c 3
 238 299 236 298 231 295 c 0
 196 269 169 244 143 222 c 0
 135 216 129 208 129 199 c 0
31 127 m 0
 31 151 43 172 55 186 c 0
 63 195 74 202 83 210 c 0
 101 227 135 248 158 267 c 0
 175 281 200 303 221 320 c 0
 231 328 249 342 256 352 c 0
 259 357 264 366 270 371 c 1
 270 381 l 2
 270 413 279 422 307 431 c 0
 309 432 310 432 312 432 c 0
 323 432 329 420 331 410 c 0
 333 396 331 392 341 384 c 0
 347 380 347 367 350 360 c 0
 358 341 359 312 359 286 c 0
 359 275 358 264 358 253 c 0
 358 178 386 128 414 79 c 0
 420 69 431 56 442 56 c 0
 447 56 451 58 457 63 c 0
 469 73 482 82 491 95 c 0
 508 119 521 152 548 166 c 0
 551 167 553 168 555 168 c 0
 562 168 565 160 565 151 c 0
 565 128 549 117 542 98 c 0
 532 68 510 51 493 28 c 0
 469 -3 441 -38 389 -38 c 0
 366 -38 350 -29 333 -20 c 0
 323 -15 314 -10 306 -2 c 0
 283 22 280 60 272 98 c 1
 250 82 237 59 219 40 c 0
 202 22 180 -8 147 -8 c 0
 115 -8 89 18 73 36 c 0
 54 58 31 89 31 127 c 0
EndSplineSet
Substitution2: "'ss18' Style Set 18 in Latin lookup 17-1" a.alt1
Substitution2: "'salt' Stylistic Alternatives in Latin lookup 4-1" a.alt1
EndChar

StartChar: t
Encoding: 116 116 10
Width: 526
VWidth: 0
Flags: HMW
AnchorPoint: "Above" 246 450 basechar 0
LayerCount: 2
Fore
SplineSet
-8 330 m 0
 -8 339 -2 353 5 358 c 0
 22 372 43 379 67 379 c 0
 107 379 138 364 179 364 c 2
 205 364 l 2
 236 364 262 356 292 356 c 0
 309 356 325 359 342 362 c 0
 361 365 379 368 396 376 c 0
 415 384 434 396 460 396 c 0
 470 396 481 394 491 391 c 0
 494 390 496 383 496 376 c 0
 496 369 494 363 491 363 c 2
 486 363 l 2
 461 363 444 351 429 340 c 0
 418.895774363 332.590234533 407 328 395 324 c 0
 376 318 356 318 336 314 c 0
 313 310 292 303 269 299 c 0
 264 298 259 298 254 297 c 0
 226 294 221 296 215 271 c 0
 211 254 208 237 208 216 c 0
 208 171 223 141 241 110 c 0
 250 95 262 78 285 78 c 0
 302 78 317 86 328 94 c 0
 348 109 364 122 381 138 c 0
 390 147 404 156 413 166 c 0
 416 170 420 172 425 172 c 0
 430 172 442 166 444 158 c 1
 452 153 460 146 467 140 c 0
 475 133 485 123 485 110 c 0
 485 99 479 90 474 83 c 0
 459 62 444 39 423 24 c 0
 419 21 415 19 410 19 c 0
 397 19 385 31 378 38 c 0
 371 45 365 51 360 58 c 1
 349 46 337 36 323 29 c 0
 310 22 295 18 282 12 c 0
 259 1 238 -21 205 -21 c 0
 184 -21 170 -12 157 -0 c 0
 140 16 128 36 120 58 c 0
 111 86 110 114 110 144 c 0
 110 165 111 187 118 207 c 0
 125 227 135 245 147 263 c 0
 150 268 153 273 153 278 c 3
 153 287 146 295 128 296 c 0
 80 299 36 307 -3 320 c 0
 -7 321 -8 325 -8 330 c 0
EndSplineSet
Substitution2: "Single Substitution talt5-1" t.alt5
Substitution2: "'ss17' Style Set 17 in Latin lookup 18-1" t.swash
Substitution2: "Single Substitution talt4-1" t.alt4
Substitution2: "Single Substitution talt3-1" t.alt3
Substitution2: "Single Substitution talt2-1" t.alt2
Substitution2: "Single Substitution talt1-1" t.alt1
Substitution2: "'swsh' Swash in Latin lookup 3-1" t.swash
EndChar

StartChar: g
Encoding: 103 103 11
Width: 360
VWidth: 0
Flags: HMW
AnchorPoint: "Above" 202 450 basechar 0
LayerCount: 2
Fore
SplineSet
31 -362 m 0
 31 -357 33 -352 38 -345 c 0
 56 -320 98 -292 140 -292 c 0
 154 -292 165 -296 178 -296 c 0
 202 -296 209 -271 209 -244 c 0
 209 -131 115 -101 77 -24 c 0
 69 -9 63 9 63 31 c 0
 63 71 79 105 88 140 c 0
 96 170 112 192 123 218 c 0
 126 225 130 235 130 244 c 3
 130 253 123 257 107 257 c 0
 71 257 32 260 32 298 c 0
 32 345 54 344 84 364 c 0
 97 373 111 377 125 377 c 0
 144 377 164 371 179 359 c 0
 190 350 202 342 219 342 c 0
 223 342 227 343 232 344 c 0
 273 353 306 378 328 407 c 0
 331 410 347 432 359 432 c 0
 363 432 369 427 369 419 c 0
 369 407 353 395 347 388 c 0
 312 345 267 315 220 283 c 0
 204 272 198 270 193 247 c 0
 185 213 179 178 179 137 c 0
 179 94 182 64 204 42 c 0
 225 21 247 3 263 -23 c 0
 275 -43 284 -63 295 -83 c 0
 306 -105 315 -125 315 -155 c 0
 315 -204 315 -248 281 -265 c 0
 255 -278 214 -300 212 -333 c 0
 210 -370 178 -389 155 -406 c 0
 148 -411 141 -413 134 -413 c 0
 117 -413 102 -400 88 -394 c 0
 71 -386 31 -383 31 -362 c 0
EndSplineSet
Substitution2: "'ss18' Style Set 18 in Latin lookup 17-1" g.alt
Substitution2: "'salt' Stylistic Alternatives in Latin lookup 4-1" g.alt
EndChar

StartChar: a.alt1
Encoding: 65536 -1 12
Width: 510
VWidth: 0
Flags: HMW
AnchorPoint: "Above" 288 511 basechar 0
LayerCount: 2
Fore
SplineSet
126 162 m 3
 126 143 132 127 138 112 c 0
 149 86 166 62 203 62 c 3
 236 62 266 76 266 109 c 3
 266 131 258 153 255 171 c 0
 250 197 247 222 243 253 c 0
 242 262 228 266 219 266 c 3
 209 266 176 243 170 238 c 0
 144 215 126 199 126 162 c 3
20 111 m 0
 20 165 54 195 86 223 c 0
 106 240 128 259 147 277 c 0
 169 297 200 324 222 345 c 0
 236 359 240 366 241 390 c 0
 242 413 249 526 253 551 c 0
 257 577 261 580 292 580 c 3
 333 580 334 577 334 555 c 0
 333 514 330 490 330 447 c 3
 330 396 334 332 337 295 c 0
 342 237 352 177 373 122 c 0
 385 90 407 36 437 36 c 3
 456 36 476 61 487 75 c 0
 498 89 526 131 534 145 c 0
 546 166 565 207 570 240 c 0
 571 249 574 256 583 256 c 3
 590 256 594 247 594 239 c 0
 594 237 593 236 593 234 c 0
 589 211 572 155 567 144 c 0
 544 91 538 69 503 26 c 0
 480 -2 458 -18 431 -38 c 0
 417 -48 383 -64 360 -64 c 0
 333 -64 319 -40 310 -22 c 0
 303 -9 299 6 296 22 c 0
 293 35 290 50 284 50 c 3
 280 50 277 41 270 32 c 0
 262 21 246 10 239 6 c 0
 218 -5 172 -20 149 -20 c 3
 128 -20 95 -16 74 3 c 0
 45 29 20 59 20 111 c 0
EndSplineSet
EndChar

StartChar: i
Encoding: 105 105 13
Width: 249
VWidth: 0
Flags: HMW
AnchorPoint: "Above" 122 450 basechar 0
LayerCount: 2
Fore
SplineSet
36 508 m 3
 36 530 48 534 60 548 c 16
 73 563 86 592 109 592 c 3
 119 592 130 588 138 585 c 0
 149 580 159 572 169 564 c 0
 178 556 184 547 184 535 c 3
 184 489 164 461 118 461 c 3
 82 461 36 471 36 508 c 3
5 316 m 0
 5 319 8 330 12 333 c 0
 36 353 74 357 109 370 c 0
 117 373 123 376 129 381 c 0
 136 387 145 394 153 394 c 0
 160 394 166 389 170 377 c 0
 180 347 183 311 183 273 c 0
 183 232 179 182 179 141 c 0
 179 116 180 97 189 78 c 0
 193 69 203 57 203 44 c 0
 203 26 185 20 172 15 c 0
 161 11 124 -11 105 -11 c 0
 95 -11 87 -2 87 12 c 0
 87 21 90 30 93 37 c 0
 98 48 101 58 101 73 c 0
 101 97 95 117 95 142 c 2
 95 149 l 2
 95 189 83 217 70 244 c 0
 65 255 44 277 34 283 c 0
 23 289 5 303 5 316 c 0
EndSplineSet
Substitution2: "'ss16' Style Set 16 in Latin lookup 20-1" dotlessi
Substitution2: "'hist' Historical Forms in Latin lookup 2-1" dotlessi
EndChar

StartChar: e.swash
Encoding: 65537 -1 14
Width: 612
VWidth: 0
Flags: HMW
AnchorPoint: "Below" 175 -50 basechar 0
AnchorPoint: "Above" 256 476 basechar 0
LayerCount: 2
Fore
SplineSet
20 291 m 0
 20 310 30 326 40 340 c 0
 57 365 69 392 90 413 c 0
 121 444 171 477 229 477 c 0
 276 477 323 450 323 403 c 0
 323 383 315 364 306 349 c 0
 304 345 303 343 303 340 c 3
 303 337 305 334 310 334 c 2
 314 334 l 1
 327 336 341 337 355 337 c 0
 399 337 438 325 484 325 c 0
 514 325 533 335 544 356 c 0
 548 363 561 387 575 387 c 0
 584 387 589 378 589 369 c 0
 589 349 572 319 567 312 c 0
 546 279 495 257 443 257 c 0
 405 257 368 267 328 267 c 0
 271 267 214 258 179 232 c 0
 169 224 160 215 153 204 c 0
 147 195 144 188 144 181 c 3
 144 173 147 164 152 152 c 0
 163 125 178 100 192 75 c 0
 199 62 211 52 225 52 c 0
 232 52 239 54 247 60 c 0
 277 82 292 118 311 151 c 0
 323 172 333 196 343 218 c 0
 345 223 349 226 353 226 c 0
 358 226 363 222 363 214 c 0
 363 203 357 191 352 181 c 0
 345 164 338 147 331 134 c 0
 308 93 288 42 251 14 c 0
 237 4 221 -3 205 -9 c 0
 191 -14 177 -19 161 -19 c 0
 112 -19 91 26 76 61 c 0
 57 106 48 150 35 200 c 0
 30 218 23 235 23 256 c 0
 23 268 20 280 20 291 c 0
100 321 m 3
 100 316 101 313 105 306 c 0
 108 301 111 296 113 290 c 0
 115 281 118 270 125 270 c 3
 146 270 163 277 178 285 c 0
 190 292 203 299 215 305 c 0
 228 312 232 313 237 328 c 0
 239 335 241 343 241 351 c 0
 241 383 214 414 181 414 c 0
 138 414 114 374 103 335 c 0
 101 329 100 324 100 321 c 3
EndSplineSet
EndChar

StartChar: x
Encoding: 120 120 15
Width: 531
VWidth: 0
Flags: HMW
AnchorPoint: "Above" 249 450 basechar 0
LayerCount: 2
Fore
SplineSet
-190 -400 m 3
 -190 -395 -187 -388 -181 -379 c 0
 -84 -241 -11 -88 85 51 c 0
 105 80 125 108 145 137 c 0
 161 160 165 174 165 186 c 3
 165 202 156 213 121 232 c 0
 99 243 76 253 51 260 c 0
 40 263 35 264 35 268 c 3
 35 270 37 274 41 280 c 0
 58 305 86 341 125 341 c 0
 165 341 198 322 225 301 c 0
 234 294 242 293 247 293 c 3
 252 293 261 300 266 308 c 0
 285 337 312 361 341 379 c 0
 355 388 398 402 433 402 c 0
 459 402 481 394 481 367 c 0
 481 347 475 327 464 317 c 0
 451 304 425 285 400 285 c 0
 378 285 370 303 348 303 c 0
 326 303 321 269 318 246 c 0
 316 235 316 227 316 218 c 3
 316 210 316 198 321 189 c 0
 345 144 371 96 429 96 c 0
 488 96 525 127 552 161 c 0
 562 173 575 183 583 183 c 0
 587 183 590 181 590 176 c 3
 590 171 588 163 583 152 c 0
 567 119 539 94 515 70 c 0
 481 35 439 0 372 0 c 0
 335 0 316 24 299 45 c 0
 285 63 270 79 258 98 c 0
 255 102 250 103 244 103 c 3
 237 103 229 100 224 93 c 0
 192 45 161 -4 133 -55 c 0
 81 -148 18 -229 -50 -307 c 0
 -79 -340 -110 -372 -147 -397 c 0
 -159 -405 -171 -410 -179 -410 c 3
 -186 -410 -190 -407 -190 -400 c 3
EndSplineSet
EndChar

StartChar: e
Encoding: 101 101 16
Width: 364
VWidth: 0
Flags: HMW
AnchorPoint: "Below" 187 -50 basechar 0
AnchorPoint: "Above" 206 450 basechar 0
LayerCount: 2
Fore
SplineSet
127 313 m 0
 127 285 134 280 161 280 c 3
 199 280 237 307 237 346 c 0
 237 372 218 384 192 384 c 0
 169 384 151 381 140 370 c 0
 135 365 134 361 132 353 c 0
 129 340 127 328 127 313 c 0
16 277 m 3
 16 300 33 319 46 333 c 0
 66 354 89 371 115 393 c 24
 138 412 161 425 182 438 c 0
 193 445 203 451 215 451 c 3
 223 451 231 449 240 445 c 0
 258 436 281 428 300 420 c 0
 309 416 321 409 321 399 c 3
 321 395 320 391 318 386 c 0
 312 372 305 357 297 345 c 0
 295 341 293 337 293 333 c 3
 293 326 296 321 305 320 c 0
 334 318 364 317 394 317 c 0
 408 317 422 318 436 318 c 2
 455 318 l 2
 468 318 473 310 473 302 c 3
 473 292 469 283 455 278 c 0
 395 258 320 252 250 241 c 0
 237 239 224 237 211 237 c 3
 199 237 191 236 185 234 c 0
 179 231 173 229 166 227 c 0
 154 224 147 219 147 208 c 3
 147 206 146 204 147 201 c 0
 151 181 156 163 164 145 c 0
 171 128 179 112 186 96 c 0
 193 79 204 57 228 57 c 0
 250 57 269 72 281 84 c 0
 311 115 334 153 354 195 c 0
 357 201 360 205 363 205 c 3
 366 205 369 202 369 195 c 3
 369 179.5 364.411132812 159.028320312 358 143 c 0
 351.3046875 126.26171875 343 109 334 94 c 0
 320 71 300 48 282 28 c 0
 266 10 240 -1 216 -11 c 0
 207 -15 197 -17 188 -17 c 3
 156 -17 118 7 105 29 c 0
 66 95 35 173 18 258 c 0
 17 264 16 270 16 277 c 3
EndSplineSet
Substitution2: "'ss17' Style Set 17 in Latin lookup 18-1" e.swash
Substitution2: "'swsh' Swash in Latin lookup 3-1" e.swash
EndChar

StartChar: f
Encoding: 102 102 17
Width: 466
VWidth: 0
Flags: HMW
AnchorPoint: "Above" 257 450 basechar 0
LayerCount: 2
Fore
SplineSet
29 255 m 3
 29 262 37 273 43 276 c 0
 58 284 65 292 79 303 c 0
 92 313 109 321 119 336 c 0
 124 343 127 345 132 345 c 0
 139 345 151 340 160 333 c 0
 175 322 174 312 188 299 c 0
 196 292 204 288 210 288 c 3
 216 288 221 291 226 298 c 0
 250 328 266 366 304 381 c 0
 322 388 341 390 363 390 c 0
 396 390 419 375 439 359 c 0
 445 354 450 344 450 334 c 3
 450 330 450 326 448 323 c 2
 414 255 l 2
 412 250 400 246 390 246 c 3
 384 246 378 247 373 251 c 0
 354 268 324 278 300 278 c 0
 281 278 265 271 255 249 c 0
 243 222 237 183 230 147 c 0
 229 143 229 122 229 119 c 3
 229 100 239 90 254 88 c 0
 307 82 359 79 415 76 c 0
 461 74 500 74 548 73 c 0
 559 73 573 57 573 44 c 3
 573 29 559 13 546 12 c 0
 539 11 531 11 524 10 c 0
 486 6 451 3 414 3 c 0
 383 3 353 4 323 4 c 0
 293 4 271 0 250 -8 c 0
 225 -17 220 -21 216 -53 c 0
 210 -96 207 -142 204 -177 c 0
 196 -284 198 -339 169 -410 c 0
 164 -424 150 -431 140 -431 c 0
 131 -431 123 -424 123 -408 c 3
 123 -406 124 -403 124 -400 c 0
 126 -383 127 -365 127 -346 c 0
 127 -276 121 -203 121 -129 c 3
 121 -24 118 87 104 180 c 0
 101 201 99 210 85 219 c 0
 70 229 57 237 39 241 c 0
 31 243 29 249 29 255 c 3
EndSplineSet
Substitution2: "'ss17' Style Set 17 in Latin lookup 18-1" f.swash
Substitution2: "'swsh' Swash in Latin lookup 3-1" f.swash
EndChar

StartChar: h
Encoding: 104 104 18
Width: 484
VWidth: 0
Flags: HMW
AnchorPoint: "Above" 159 701 basechar 0
LayerCount: 2
Fore
SplineSet
-33 595 m 0
 -33 605 -30 615 -22 619 c 0
 1 631 6 655 17 678 c 0
 26 696 53 717 77 717 c 0
 91 717 100 707 107 698 c 0
 118 685 123 676 123 651 c 2
 123 623 l 2
 123 604 121 584 121 565 c 0
 121 506 132 489 132 428 c 0
 132 402 131 377 130 351 c 0
 130 345 130 339 130 333 c 3
 130 319 134 315 140 315 c 0
 146 315 156 319 166 323 c 0
 201 335 239 345 266 366 c 0
 280 377 294 386 311 386 c 0
 320 386 329 384 340 379 c 0
 380 362 408 338 408 282 c 0
 408 242 390 211 390 170 c 0
 390 140 402 115 410 92 c 0
 417 72 426 65 449 61 c 0
 466 58 481 46 481 32 c 0
 481 25 478 18 468 11 c 0
 441 -7 419 -27 373 -27 c 0
 327 -27 285 -21 285 28 c 0
 285 66 295 101 295 138 c 0
 295 164 290 188 285 212 c 0
 278 248 262 281 218 281 c 0
 181 281 172 258 157 237 c 0
 149 226 141 216 136 202 c 1
 140 176 144 150 145 120 c 0
 146 92 195 101 195 76 c 0
 195 70 193 63 187 53 c 0
 166 19 136 0 81 0 c 0
 52 0 39 15 39 38 c 0
 39 60 49 82 49 105 c 0
 49 126 46 146 46 168 c 0
 46 185 47 206 47 223 c 0
 47 292 34 344 34 402 c 0
 34 425 20 469 17 517 c 0
 16 533 13 536 6 545 c 0
 -1 553 -7 560 -15 566 c 0
 -24 573 -33 580 -33 595 c 0
EndSplineSet
Substitution2: "Single Substitution Randoms-1" h.alt
EndChar

StartChar: l
Encoding: 108 108 19
Width: 220
VWidth: 0
Flags: HMW
AnchorPoint: "Above" 107 586 basechar 0
LayerCount: 2
Fore
SplineSet
3 523 m 0
 3 532 7 539 16 543 c 0
 22 545 29 544 34 547 c 0
 53 557 58 577 63 607 c 0
 67 628 79 642 91 655 c 0
 95 659 99 660 102 660 c 0
 114 660 125 643 133 630 c 0
 147.391601562 606.614257812 154 591 154 552 c 0
 154 458 141 365 140 269 c 0
 140 240 138 210 138 182 c 0
 138 142 154 117 175 96 c 0
 184 87 193 83 202 83 c 0
 225 83 245 109 259 121 c 0
 267 128 275 135 284 141 c 0
 290 145 295 146 298 146 c 0
 301 146 303 145 303 143 c 3
 303 140 300 135 294 130 c 0
 281 119 271 106 260 92 c 0
 249 77 234 64 220 52 c 0
 196 30 173 9 132 5 c 0
 120 4 109 3 99 3 c 0
 74 3 57 11 57 48 c 2
 57 65 l 2
 57 105 48 138 46 177 c 0
 43 234 43 291 43 348 c 0
 43 352 43 356 43 360 c 0
 30 379 29 404 22 429 c 0
 15 453 13 483 5 510 c 0
 4 515 3 519 3 523 c 0
EndSplineSet
Substitution2: "Single Substitution Randoms-1" l.alt2
Substitution2: "'ss17' Style Set 17 in Latin lookup 18-1" l.swash
Substitution2: "'ss18' Style Set 18 in Latin lookup 17-1" l.alt
Substitution2: "'swsh' Swash in Latin lookup 3-1" l.swash
Substitution2: "'salt' Stylistic Alternatives in Latin lookup 4-1" l.alt
Substitution2: "Single Substitution lalt-1" l.alt
EndChar

StartChar: y
Encoding: 121 121 20
Width: 486
VWidth: 0
Flags: HMW
AnchorPoint: "Above" 225 450 basechar 0
LayerCount: 2
Fore
SplineSet
13 329 m 1
 22 350 39 366 52 383 c 0
 63 397 77 407 95 407 c 0
 104 407 114 404 125 398 c 0
 169 371 189 335 194 274 c 0
 195 262 198 257 202 257 c 3
 206 257 212 262 218 269 c 0
 234 288 249 307 267 323 c 0
 292 345 320 376 365 376 c 0
 401 376 431 359 454 344 c 0
 465 337 474 323 474 309 c 0
 474 300 471 293 462 286 c 0
 448 275 435 260 418 252 c 0
 405 246 391 244 380 235 c 0
 373 229 366 227 359 227 c 0
 350 227 343 231 335 241 c 0
 326 253 318 265 297 265 c 0
 265 265 249 240 235 218 c 0
 226 204 216 191 208 177 c 0
 201 163 198 149 193 134 c 0
 188 117 182 100 177 82 c 0
 162 28 143 -25 118 -70 c 0
 109 -86 101 -103 92 -119 c 0
 86 -129 67 -160 49 -160 c 0
 44 -160 39 -158 34 -152 c 0
 27 -145 25 -137 25 -128 c 0
 25 -105 43 -78 48 -61 c 0
 67 1 97 66 109 136 c 0
 111 146 112 156 112 166 c 0
 112 245 66 301 13 329 c 1
EndSplineSet
EndChar

StartChar: u
Encoding: 117 117 21
Width: 499
VWidth: 0
Flags: HMW
AnchorPoint: "Above" 234 450 basechar 0
LayerCount: 2
Fore
SplineSet
6 316 m 3
 6 331 18 345 26 354 c 0
 37 366 66 380 88 380 c 3
 102 380 120 374 131 370 c 0
 146 365 156 355 156 331 c 3
 156 301 151 271 151 241 c 3
 151 226 150 209 150 198 c 3
 150 193 150 188 151 183 c 0
 157 130 152 70 210 70 c 0
 229 70 248 76 263 88 c 0
 288 109 307 129 321 156 c 0
 321 157 320 159 320 160 c 0
 320 166 321 173 321 179 c 0
 321 187 320 193 320 200 c 3
 320 204 321 208 321 212 c 3
 321 225 313 236 302 239 c 0
 276 245 258 257 240 271 c 0
 236 275 234 277 234 280 c 3
 234 288 250 293 256 298 c 0
 270 310 284 321 296 335 c 0
 304 345 313 354 321 364 c 0
 329 374 356 402 374 402 c 3
 381 402 387 399 393 389 c 0
 396 384 397 378 397 373 c 3
 397 365 395 357 395 347 c 2
 395 340 l 1
 397 321 405 309 405 287 c 3
 405 274 401 261 401 247 c 0
 401 205 406 164 406 122 c 3
 406 78 467 98 487 70 c 0
 490 67 491 64 491 61 c 3
 491 51 476 46 471 39 c 0
 465 31 465 22 456 17 c 0
 449 13 437 13 424 13 c 3
 410 13 404 5 394 1 c 0
 389 -1 381 -3 375 -3 c 3
 369 -3 356 -1 353 4 c 0
 349 10 349 17 346 24 c 0
 341 37 336 49 332 63 c 0
 330 70 327 72 323 72 c 3
 318 72 313 69 309 66 c 0
 307 64 304 62 302 60 c 0
 287 47 268 37 254 23 c 0
 234 4 198 -21 161 -21 c 0
 91 -21 84 53 66 105 c 0
 63 114 63 121 62 130 c 0
 56 166 56 189 53 216 c 0
 51 231 48 242 47 255 c 0
 45 282 25 287 12 301 c 0
 7 306 6 311 6 316 c 3
EndSplineSet
EndChar

StartChar: s
Encoding: 115 115 22
Width: 409
Flags: W
HStem: -31 101<220.735 298.982> 31 67<106 196.081> 201 33<178.766 267.185> 370 72<144.629 234>
VStem: 33 87<272.25 358.375> 316 81<90.7109 187.946> 316 55<77.1431 142.773>
LayerCount: 2
Back
SplineSet
33 270.400390625 m 0
 33 299 46.2001953125 338.599609375 70.400390625 350.700195312 c 0
 82.5 356.200195312 86.900390625 358.400390625 94.599609375 366.099609375 c 0
 119.900390625 388.099609375 154 407.900390625 185.900390625 418.900390625 c 0
 193.599609375 421.099609375 203.5 422.200195312 214.5 422.200195312 c 0
 254.099609375 422.200195312 305.799804688 406.799804688 305.799804688 374.900390625 c 0
 305.799804688 346.299804688 280.5 300.099609375 249.700195312 300.099609375 c 0
 213.400390625 300.099609375 193.599609375 349.599609375 154 349.599609375 c 0
 147.400390625 349.599609375 140.799804688 347.400390625 134.200195312 343 c 0
 127.599609375 339.700195312 124.299804688 337.5 124.299804688 329.799804688 c 0
 124.299804688 322.099609375 119.900390625 314.400390625 119.900390625 304.5 c 0
 119.900390625 268.200195312 139.700195312 253.900390625 157.299804688 234.099609375 c 0
 168.299804688 223.099609375 180.400390625 214.299804688 201.299804688 214.299804688 c 0
 247.5 214.299804688 281.599609375 240.700195312 322.299804688 249.5 c 0
 325.599609375 250.599609375 328.900390625 250.599609375 332.200195312 250.599609375 c 0
 358.599609375 250.599609375 369.599609375 226.400390625 379.5 207.700195312 c 0
 388.299804688 191.200195312 397.099609375 175.799804688 397.099609375 153.799804688 c 0
 397.099609375 110.900390625 370.700195312 83.400390625 370.700195312 41.599609375 c 0
 370.700195312 35 371.799804688 26.2001953125 371.799804688 18.5 c 0
 371.799804688 6.400390625 358.599609375 -6.7998046875 347.599609375 -6.7998046875 c 0
 333.299804688 -6.7998046875 319 -12.2998046875 297 -31 c 0
 286 -40.900390625 276.099609375 -50.7998046875 257.400390625 -50.7998046875 c 0
 231 -50.7998046875 211.200195312 -37.599609375 193.599609375 -27.7001953125 c 0
 177.099609375 -17.7998046875 159.5 -7.900390625 144.099609375 2 c 0
 134.200195312 7.5 123.200195312 10.7998046875 110 10.7998046875 c 0
 102.299804688 10.7998046875 93.5 9.7001953125 84.7001953125 7.5 c 1
 80.2998046875 24 l 1
 93.5 39.400390625 113.299804688 50.400390625 132 60.2998046875 c 0
 147.400390625 69.099609375 162.799804688 77.900390625 182.599609375 77.900390625 c 0
 215.599609375 77.900390625 239.799804688 64.7001953125 264 52.599609375 c 0
 267.299804688 51.5 270.599609375 50.400390625 273.900390625 50.400390625 c 0
 290.400390625 50.400390625 310.200195312 66.900390625 312.400390625 82.2998046875 c 0
 314.599609375 91.099609375 315.700195312 99.900390625 315.700195312 109.799804688 c 0
 315.700195312 150.5 298.099609375 181.299804688 256.299804688 181.299804688 c 0
 234.299804688 181.299804688 216.700195312 174.700195312 196.900390625 170.299804688 c 0
 173.799804688 164.799804688 145.200195312 150.5 118.799804688 150.5 c 0
 63.7998046875 150.5 33 205.5 33 270.400390625 c 0
EndSplineSet
Fore
SplineSet
33 290 m 0xbc
 33 319 46 359 70 371 c 0
 82 376 87 378 95 386 c 0
 120 408 154 428 186 439 c 0
 194 441 204 442 214 442 c 0
 254 442 306 427 306 395 c 0
 306 366 280 320 250 320 c 0
 213 320 194 370 154 370 c 0
 147 370 141 367 134 363 c 0
 128 360 124 358 124 350 c 0
 124 342 120 334 120 324 c 0
 120 288 140 274 157 254 c 0
 168 243 180 234 201 234 c 0
 248 234 282 261 322 270 c 0
 326 271 329 271 332 271 c 0
 359 271 372 248 382 230 c 0
 390 213 397 196 397 174 c 0xbc
 397 131 371 103 371 62 c 0
 371 55 372 46 372 38 c 0
 372 26 359 13 348 13 c 0
 333 13 319 8 297 -11 c 0
 286 -21 276 -31 257 -31 c 0xba
 231 -31 209.558911829 -19.7145900073 193 -9 c 0
 176 2 160 12 144 22 c 0
 134 28 123 31 110 31 c 0
 102 31 94 30 85 28 c 1
 80 44 l 1
 94 59 113 70 132 80 c 0
 147 89 163 98 183 98 c 0x7a
 209.161705033 98 233.383789062 88.2216796875 249 79.4638671875 c 0
 258.551757812 74.107421875 267.151401249 70 274 70 c 0
 290 70 310 87 312 102 c 0
 315 111 316 120 316 130 c 0
 316 170 298 201 256 201 c 0
 234 201 217 195 197 190 c 0
 174 185 145 170 119 170 c 0
 64 170 33 226 33 290 c 0xbc
EndSplineSet
Substitution2: "'ss16' Style Set 16 in Latin lookup 20-1" uniA785
Substitution2: "'hist' Historical Forms in Latin lookup 2-1" uniA785
EndChar

StartChar: k
Encoding: 107 107 23
Width: 558
VWidth: 0
Flags: HMW
AnchorPoint: "Above" 249 440 basechar 0
LayerCount: 2
Fore
SplineSet
6 318 m 0
 6 331 20 346 26 351 c 0
 38 361 45 370 55 382 c 0
 67 397 68 403 68 429 c 0
 68 452 80 476 101 476 c 0
 107 476 114.133711137 472.225408531 121 468 c 0
 134 460 136 434 137 410 c 0
 139 365 153 328 157 286 c 0
 158 271 159 256 159 241 c 0
 159 230 166 225 174 225 c 3
 180 225 187 228 191 230 c 0
 203 236 213 243 223 253 c 0
 256 285 289 327 336 344 c 0
 356 351 365 349 378 360 c 0
 388 368 402 372 418 372 c 0
 428 372 438 370 449 367 c 0
 459 364 480 334 480 311 c 0
 480 301 476 292 465 288 c 0
 450 283 438 278 428 268 c 0
 426 266 422 264 418 264 c 3
 415 264 412 265 411 266 c 0
 403 273 393 286 386 297 c 0
 381 304 375 307 368 307 c 3
 363 307 359 306 354 303 c 0
 342 296 334 285 324 276 c 0
 319 272 317 267 317 262 c 3
 317 258 318 254 321 250 c 0
 328 240 337 231 344 221 c 0
 362 196 372 165 379 130 c 0
 382 113 387 98 392 83 c 0
 395.821289062 71.537109375 400 64 415 64 c 0
 442 64 464.72581581 87.3100022433 478 102 c 0
 496.75131656 122.75131656 514.0078125 142.754882812 524.658203125 173 c 0
 526.887695312 179.33203125 530.72462961 188 539 188 c 0
 547.288162663 188 548 180.245117188 548 174 c 3
 548 156 540 141 533 129 c 0
 518 103 498 78 480 54 c 0
 464 33 427 16 408 -0 c 0
 399 -7 377 -14 357 -14 c 0
 337 -14 319 -7 317 10 c 0
 308 78 316 136 262 165 c 0
 254 169 243 171 232 171 c 0
 217 171 203 166 197 156 c 0
 182 129 180 113 180 74 c 0
 180 40 173 11 173 -23 c 0
 173 -100 186 -182 186 -260 c 0
 186 -302 186 -350 157 -366 c 0
 145 -373 133 -386 121 -386 c 0
 115 -386 109 -382 103 -371 c 0
 98 -362 96 -352 96 -341 c 0
 96 -313 107 -281 107 -254 c 0
 107 -248 107 -242 105 -236 c 0
 98 -212 95 -190 95 -157 c 2
 95 -119 l 2
 95 -84 100 -51 100 -16 c 0
 100 37 93 69 89 110 c 0
 87 125 86 142 86 160 c 3
 86 179 85 198 84 216 c 0
 83 234 80 237 72 247 c 0
 60 262 46 275 34 282 c 0
 27 286 6 300 6 318 c 0
EndSplineSet
EndChar

StartChar: v
Encoding: 118 118 24
Width: 488
VWidth: 0
Flags: HMW
AnchorPoint: "Above" 245 450 basechar 0
LayerCount: 2
Fore
SplineSet
13 306 m 3
 13 324 21 335 24 339 c 0
 39 360 56 375 86 375 c 0
 101 375 121 375 132 366 c 0
 163 342 186 287 207 234 c 0
 223 193 235 154 263 130 c 0
 273 121 280 117 286 117 c 3
 294 117 302 124 310 136 c 0
 320 151 327 165 332 174 c 0
 341 190 367 221 367 248 c 0
 367 257 366 267 363 276 c 0
 353 302 299 304 299 322 c 0
 299 339 354 380 380 380 c 0
 443 380 476 365 476 332 c 0
 476 296 416 208 365 134 c 0
 307 49 267 -8 235 -8 c 3
 207 -8 155 39 129 115 c 0
 120 140 111 165 102 190 c 0
 86 235 71 273 27 292 c 0
 18 296 13 298 13 306 c 3
EndSplineSet
Substitution2: "'ss16' Style Set 16 in Latin lookup 20-1" v.alt
Substitution2: "'hist' Historical Forms in Latin lookup 2-1" v.alt
EndChar

StartChar: w
Encoding: 119 119 25
Width: 703
VWidth: 0
Flags: HMW
AnchorPoint: "Above" 345 450 basechar 0
LayerCount: 2
Back
SplineSet
677.209960938 305.110351562 m 0
 677.209960938 249.404296875 633.358398438 162.094726562 582.772460938 87.9794921875 c 0
 524.873046875 3.1474609375 488.930664062 -8.4208984375 456.530273438 -8.4208984375 c 0
 388.587890625 -8.4208984375 394.790039062 38.8876953125 369.303710938 114.202148438 c 1
 363.681640625 105.331054688 357.911132812 96.56640625 352.049804688 87.9794921875 c 0
 294.150390625 3.1474609375 267.208007812 -8.4208984375 234.807617188 -8.4208984375 c 0
 156.5078125 -8.4208984375 155.052734375 39.322265625 129.229492188 115.239257812 c 0
 120.700195312 140.315429688 111.008789062 164.79296875 102 189.624023438 c 0
 92.8974609375 214.708007812 85.6884765625 243.282226562 62.484375 254.604492188 c 0
 47.4111328125 261.958984375 40.177734375 273.416015625 19.806640625 273.416015625 c 0
 9.5537109375 273.416015625 5.830078125 279.043945312 5.830078125 287 c 0
 5.830078125 304.784179688 23.7060546875 334.200195312 26.759765625 338.393554688 c 0
 41.90234375 359.184570312 52.27734375 378.06640625 82.4013671875 378.06640625 c 0
 221.217773438 378.06640625 177.235351562 195.502929688 253.505859375 130 c 0
 263.6328125 121.302734375 278.740234375 112 285 112 c 0
 292.728515625 112 307.280273438 123.774414062 317 136 c 0
 330.5390625 153.030273438 341 173 347.28125 192.83984375 c 1
 340.025390625 213.390625 323.311523438 234.706054688 307 249 c 0
 295.891601562 258.734375 274.900390625 273.416015625 259.529296875 273.416015625 c 0
 249.276367188 273.416015625 245.552734375 279.043945312 245.552734375 287 c 0
 245.552734375 300.784179688 265.428710938 329.200195312 268.482421875 333.393554688 c 0
 283.625 354.184570312 303 378.06640625 320.124023438 378.06640625 c 0
 458.940429688 378.06640625 416.95703125 195.501953125 493.228515625 130 c 0
 503.229492188 121.411132812 513.740234375 114 520 114 c 0
 527.728515625 114 539.874023438 124.040039062 548 136 c 0
 557.974609375 150.680664062 566.27734375 164.041015625 571.561523438 173.518554688 c 0
 580.448242188 189.934570312 593.375976562 219.772460938 593.375976562 248.46484375 c 0
 593.375976562 257.963867188 591.958984375 267.337890625 588.508789062 276.057617188 c 0
 578.306640625 301.84765625 539.181640625 279.920898438 539.181640625 324.747070312 c 0
 539.181640625 371.504882812 573.026367188 380 606.430664062 380 c 0
 669.634765625 380 677.209960938 352.565429688 677.209960938 305.110351562 c 0
EndSplineSet
Fore
SplineSet
13 306 m 0
 13 324 19 337 22 341 c 0
 37 362 56 375 86 375 c 0
 101 375 121 375 132 366 c 0
 163 342 186 287 207 234 c 0
 223 193 235 154 263 130 c 0
 273 121 280 117 286 117 c 0
 294 117 302 124 310 136 c 0
 317 146 331 172 341 190 c 1
 325 235 310 273 266 292 c 0
 257 296 252 298 252 306 c 0
 252 324 260 336 263 340 c 0
 278 361 295 375 325 375 c 0
 340 375 360 375 371 366 c 0
 402 342 425 287 446 234 c 0
 462 193 474 154 502 130 c 0
 512 121 516 117 522 117 c 0
 530 117 535 124 543 136 c 0
 553 151 560 165 565 174 c 0
 574 190 588 221 588 248 c 0
 588 257 587 267 584 276 c 0
 574 302 518 304 518 322 c 0
 518 339 573 380 599 380 c 0
 662 380 691 365 691 332 c 0
 691 296 656 209 609 135 c 0
 554 48 518 -8 474 -8 c 0
 446 -8 394 39 368 115 c 0
 366 121 364 127 362 133 c 1
 308 54 266 -8 235 -8 c 0
 207 -8 155 39 129 115 c 0
 120 140 111 165 102 190 c 0
 86 235 71 273 27 292 c 0
 18 296 13 298 13 306 c 0
EndSplineSet
Substitution2: "'ss16' Style Set 16 in Latin lookup 20-1" uni01BF
Substitution2: "'hist' Historical Forms in Latin lookup 2-1" uni01BF
EndChar

StartChar: m.alt
Encoding: 65538 -1 26
Width: 871
VWidth: 0
Flags: HMW
AnchorPoint: "Above" 448 440 basechar 0
LayerCount: 2
Fore
SplineSet
7 294 m 0
 7 320 23 325 42 332 c 0
 73 343 105 354 138 363 c 0
 145 365 153 366 159 366 c 0
 191 366 169 324 207 324 c 0
 232 324 249 334 267 344 c 0
 309 367 350 400 412 400 c 0
 436 400 441 386 455 376 c 0
 479 358 477 315 499 294 c 0
 503 290 508 289 512 289 c 0
 525 289 537 302 544 310 c 0
 573 339 619 366 674 366 c 0
 765 366 827 339 827 247 c 0
 827 218 822 192 815 169 c 0
 812 159 809 148 809 138 c 0
 809 90 873 107 873 63 c 0
 873 50 864 39 857 33 c 0
 836 15 809 2 776 2 c 0
 764 2 752 6 739 6 c 2
 737 6 l 2
 729 6 720 6 720 14 c 0
 720 19 723 26 723 32 c 0
 723 36 722 41 722 45 c 0
 722 80 751 106 751 143 c 0
 751 184 731 208 712 230 c 0
 700 244 683 254 667 263 c 0
 657 269 638 279 624 279 c 0
 599 279 587 264 566 257 c 0
 528 245 497 235 497 185 c 0
 497 148 502 114 521 95 c 0
 528.516601562 87.4833984375 537 79 537 64 c 0
 537 47 525.099609375 35.88671875 516 28 c 0
 501 15 470 0 443 0 c 0
 429 0 402 30 402 49 c 3
 402 55 405 60 411 62 c 0
 421 66 423 73 423 83 c 0
 423 95 420 108 420 122 c 3
 420 151 411 179 406 204 c 0
 397 255 396 306 335 306 c 0
 305 306 287 299 263 289 c 0
 238.473236451 278.780515188 216 264 215 231 c 0
 214 219 214 207 214 195 c 0
 214 187 214 179 214 171 c 0
 214 147 216 125 219 104 c 0
 223 79 248 74 248 48 c 0
 248 29 223 23 209 16 c 0
 193 8 172 -1 150 -1 c 0
 132 -1 118 10 118 23 c 0
 118 29 123 35 129 41 c 0
 140 52 151 63 151 84 c 0
 151 127 129 166 114 198 c 0
 103 222 88 268 55 268 c 0
 45 268 33 263 23 263 c 0
 9 263 7 279 7 294 c 0
EndSplineSet
EndChar

StartChar: q
Encoding: 113 113 27
Width: 440
VWidth: 0
Flags: HMW
AnchorPoint: "Above" 228 450 basechar 0
LayerCount: 2
Fore
SplineSet
31 195 m 0
 31 244 53 277 79 308 c 0
 106 340 163 390 236 390 c 0
 259 390 280 386 299 377 c 0
 307 373 312 372 316 372 c 3
 322 372 327 374 338 379 c 0
 340.878831574 380.308559806 343 381 346 381 c 0
 370 381 398 360 398 336 c 0
 398 331 403 272 403 267 c 0
 405 243 405 229 407 205 c 0
 410 164 414 141 417 100 c 0
 419 74 420 55 420 33 c 0
 420 -6 411 -38 407 -73 c 0
 402 -116 406 -159 401 -201 c 0
 398 -227 395 -254 393 -281 c 0
 391 -304 388 -326 388 -350 c 2
 388 -363 l 2
 388 -391 356 -394 338 -403 c 0
 335 -405 316 -411 309 -411 c 0
 300 -411 300 -320 300 -299 c 0
 300 -272 304 -244 306 -217 c 0
 308 -187 307 -157 308 -127 c 0
 310 -82 319 -38 319 7 c 0
 319 20 316 24 312 24 c 3
 307 24 300.912138282 19.103589025 295 14 c 0
 282.100906967 2.86499833103 259.649302683 -15 239 -15 c 0
 230 -15 225 -9 212 -9 c 0
 203 -9 188 -12 171 -12 c 0
 85 -12 31 112 31 195 c 0
132 248 m 0
 132 224 141 182 148 164 c 0
 165 122 189 72 248 72 c 0
 286 72 300 109 300 147 c 0
 300 196 299 238 297 250 c 0
 293 273 282 284 264 295 c 0
 248 305 220 306 197 306 c 3
 166 306 132 279 132 248 c 0
EndSplineSet
EndChar

StartChar: j
Encoding: 106 106 28
Width: 248
VWidth: 0
Flags: HMW
AnchorPoint: "Above" 116 450 basechar 0
LayerCount: 2
Back
SplineSet
184 535 m 3
 184 489 164 461 118 461 c 3
 82 461 36 471 36 508 c 3
 36 530 48 534 60 548 c 16
 73 563 86 592 109 592 c 3
 119 592 128 587 136 584 c 0
 147 579 159 572 169 564 c 0
 178 556 184 547 184 535 c 3
7 320 m 0
 7 335 24 335 40 342 c 0
 55 348 61 361 77 367 c 0
 96 375 116 368 131 379 c 0
 133 381 145 381 148 381 c 0
 172 381 190 360 190 336 c 0
 190 331 194 257 194 252 c 8
 196 220 196 202 200 170 c 0
 203 143 206 127 208 100 c 24
 211 74 212 55 212 33 c 0
 212 -6 203 -38 199 -73 c 0
 194 -116 198 -159 193 -201 c 0
 188 -244 186 -293 180 -337 c 0
 179 -341 179 -345 179 -348 c 0
 179 -353 180 -358 180 -363 c 0
 180 -391 126 -394 108 -407 c 0
 105 -409 103 -411 101 -411 c 0
 92 -411 92 -320 92 -299 c 0
 92 -272 96 -244 98 -217 c 0
 100 -187 99 -157 100 -127 c 0
 102 -82 111 -38 111 7 c 0
 111 36 107 62 104 89 c 0
 98 143 100 213 71 241 c 0
 52 260 35 280 17 293 c 0
 10 298 7 311 7 320 c 0
EndSplineSet
Fore
SplineSet
36 508 m 3
 36 530 48 534 60 548 c 16
 73 563 86 592 109 592 c 3
 119 592 130 588 138 585 c 0
 149 580 159 572 169 564 c 0
 178 556 184 547 184 535 c 3
 184 489 164 461 118 461 c 3
 82 461 36 471 36 508 c 3
7 320 m 0
 7 335 24 335 40 342 c 0
 55 348 61 361 77 367 c 0
 96 375 116 368 131 379 c 0
 133 381 145 381 148 381 c 0
 172 381 190 360 190 336 c 0
 190 331 194 257 194 252 c 8
 196 220 196 202 200 170 c 0
 203 143 206 127 208 100 c 24
 211 74 212 55 212 33 c 0
 212 -6 203 -38 199 -73 c 0
 194 -116 198 -159 193 -201 c 0
 188 -244 186 -293 180 -337 c 0
 179 -341 179 -345 179 -348 c 0
 179 -353 180 -358 180 -363 c 0
 180 -391 126 -394 108 -407 c 0
 105 -409 103 -411 101 -411 c 0
 92 -411 92 -320 92 -299 c 0
 92 -272 96 -244 98 -217 c 0
 100 -187 99 -157 100 -127 c 0
 102 -82 111 -38 111 7 c 0
 111 36 107 62 104 89 c 0
 98 143 100 213 71 241 c 0
 52 260 35 280 17 293 c 0
 10 298 7 311 7 320 c 0
EndSplineSet
Substitution2: "'ss16' Style Set 16 in Latin lookup 20-1" dotlessi
Substitution2: "'hist' Historical Forms in Latin lookup 2-1" dotlessi
EndChar

StartChar: uni01BF
Encoding: 447 447 29
Width: 436
VWidth: 0
Flags: HMW
AnchorPoint: "Above" 240 450 basechar 0
LayerCount: 2
Fore
SplineSet
3 315 m 0
 3 339 21 349 38 356 c 0
 55 363 67 369 95 387 c 0
 102 392 109 393 117 393 c 0
 135 393 158 367 172 346 c 0
 178 338 182 334 187 334 c 3
 191 334 195 336 200 340 c 0
 225 358 252 373 292 373 c 0
 306 373 323 371 337 371 c 0
 341 371 345 372 349 372 c 0
 388 372 417 369 417 309 c 0
 417 194 345 129 295 61 c 0
 281 42 264 22 247 5 c 0
 222 -21 205 -20 205 -63 c 0
 205 -77 206 -91 206 -105 c 0
 206 -167 198 -228 198 -290 c 0
 198 -312 199 -334 199 -355 c 0
 199 -409 191 -445 164 -474 c 0
 157 -481 131 -537 107 -537 c 0
 95 -537 88 -524 88 -510 c 0
 88 -494 94 -474 94 -461 c 0
 97 -390 103 -318 103 -246 c 2
 103 -187 l 2
 103 -133 103 -80 99 -27 c 0
 96 16 87 56 87 102 c 2
 87 137 l 2
 87 170 87 243 72 254 c 0
 51 269 44 279 21 294 c 0
 12 300 3 305 3 315 c 0
192 179 m 2
 192 120 195 49 213 49 c 3
 228 49 248 67 256 77 c 0
 282 110 317 155 317 210 c 0
 317 245 299 271 282 291 c 0
 274 300 271 311 255 311 c 3
 227 311 211 287 199 265 c 0
 195 257 192 250 192 242 c 2
 192 179 l 2
EndSplineSet
Substitution2: "'ss18' Style Set 18 in Latin lookup 17-1" uni01BF.alt
Substitution2: "Single Substitution Randoms-1" uni01BF.alt
Substitution2: "'salt' Stylistic Alternatives in Latin lookup 4-1" uni01BF.alt
EndChar

StartChar: eth
Encoding: 240 240 30
Width: 394
VWidth: 0
Flags: HMW
AnchorPoint: "Above" 194 674 basechar 0
LayerCount: 2
Fore
SplineSet
-30 660 m 0
 -30 709 10 747 57 747 c 0
 92 747 104 709 122 688 c 0
 156 649 184 605 215 563 c 1
 269 604 317 651 367 695 c 0
 389 715 408 735 426 759 c 0
 440 778 457 791 469 813 c 0
 470 816 478 822 483 822 c 3
 486 822 488 821 488 814 c 3
 488 789 459 764 446 750 c 0
 423 726 406 698 380 676 c 0
 329 632 285 581 229 543 c 1
 248 515 261 483 281 455 c 0
 304 422 335 396 351 356 c 0
 362 328 364 275 364 231 c 0
 364 155 327 106 289 64 c 0
 264 36 227 33 192 14 c 0
 172 3 144 -12 121 -12 c 0
 65 -12 25 34 25 92 c 0
 25 147 39 204 63 237 c 0
 74 252 95 250 103 268 c 0
 116 296 148 305 163 332 c 0
 170 345 181 356 181 371 c 0
 181 396 156 413 143 427 c 0
 134 437 124 447 115 457 c 1
 86 437 47 410 17 384 c 0
 11 379 5 377 0 377 c 0
 -6 377 -9 380 -9 385 c 0
 -9 399 19 413 28 420 c 8
 56 441 73 457 97 475 c 1
 78 495 59 517 43 540 c 0
 31 557 20 573 7 589 c 0
 -9 608 -30 633 -30 660 c 0
135 203 m 0
 135 157 164 117 190 95 c 0
 196 90 203 88 210 88 c 0
 233 88 255 113 263 126 c 0
 275 144 281 171 281 198 c 0
 281 250 245 268 225 301 c 0
 221 308 216 311 212 311 c 0
 201 311 191 294 186 285 c 0
 169 256 135 244 135 203 c 0
EndSplineSet
EndChar

StartChar: oslash
Encoding: 248 248 36
Width: 423
VWidth: 0
Flags: HMW
LayerCount: 2
Fore
SplineSet
31 195 m 0
 31 244 53 277 79 308 c 0
 106 340 163 390 236 390 c 0
 245 390 253 389 262 388 c 1
 265 395 269 401 272 408 c 0
 278 421 286 431 294 437 c 2
 342 474 l 2
 347 478 350 480 352 480 c 0
 354 480 354 478 354 476 c 0
 354 473 352 468 349 460 c 2
 310 371 l 1
 356 346 387 297 387 240 c 0
 387 218 369 161 365 140 c 0
 350 68 313 12 248 -13 c 0
 244 -14 240 -15 237 -15 c 0
 230 -15 225 -9 212 -9 c 0
 203 -9 188 -12 171 -12 c 0
 162 -12 153 -11 145 -8 c 1
 144 -11 143 -13 142 -15 c 0
 135 -34 125 -48 112 -59 c 2
 77 -86 l 2
 71 -91 67 -94 65 -94 c 0
 62 -94 60 -91 60 -87 c 0
 60 -83 62 -78 65 -70 c 0
 74 -44 86 -14 101 19 c 1
 57 61 31 138 31 195 c 0
132 248 m 0
 132 226 140 205 147 187 c 2
 161 153 l 1
 169 173 178 194 185 214 c 0
 194 238 204 261 217 290 c 1
 209 295 202 299 194 303 c 0
 190.312182217 304.843908891 185 306 180 306 c 0
 149 306 132 279 132 248 c 0
193 99 m 0
 207 83 225 72 248 72 c 0
 286 72 300 109 300 147 c 0
 300 190 284 227 260 255 c 1
 245 217 227 171 195 102 c 0
 195 101 193 100 193 99 c 0
EndSplineSet
EndChar

StartChar: aring
Encoding: 229 229 48
Width: 475
VWidth: 0
Flags: HMW
LayerCount: 2
Back
SplineSet
129 199 m 0
 129 187 140 181 145 172 c 0
 159 148 175 126 193 106 c 0
 202 97 212 89 223 89 c 0
 246 89 259 121 267 140 c 1
 268 163 271 187 271 211 c 0
 271 249 267 273 248 294 c 0
 246 297 243 299 241 302 c 1
 239 300 l 1
 200 271 171 246 143 222 c 0
 135 216 129 208 129 199 c 0
31 127 m 0
 31 151 42 172 54 186 c 0
 62 195 74 202 83 210 c 0
 101 227 134 248 157 267 c 0
 174 281 200 303 221 320 c 0
 231 328 248 342 255 352 c 0
 258 357 264 366 270 371 c 1
 270 381 l 2
 270 413 279 422 307 431 c 0
 309 432 310 432 312 432 c 0
 323 432 329 420 331 410 c 0
 333 396 331 392 341 384 c 0
 347 380 347 367 350 360 c 0
 358 341 359 312 359 286 c 0
 359 275 358 264 358 253 c 0
 358 178 389 128 417 79 c 0
 423 69 431 56 442 56 c 0
 447 56 451 58 457 63 c 0
 469 73 482 82 491 95 c 0
 508 119 521 152 548 166 c 0
 551 167 553 168 555 168 c 0
 562 168 565 160 565 151 c 0
 565 128 549 117 542 98 c 0
 532 68 510 51 493 28 c 0
 469 -3 444 -38 389 -38 c 0
 366 -38 350 -29 333 -20 c 0
 323 -15 314 -10 306 -2 c 0
 283 22 280 60 272 98 c 1
 250 82 237 59 219 40 c 0
 202 22 179 -8 146 -8 c 0
 114 -8 88 18 72 36 c 0
 53 58 31 89 31 127 c 0
218 665 m 0
 218 651 223 640 227 629 c 0
 237 604 252 560 287 560 c 0
 310 560 318 582 318 605 c 0
 318 651 288 685 255 699 c 0
 252 700 250 700 247 700 c 0
 229 700 218 684 218 665 c 0
157 633 m 0
 157 662 170 682 186 701 c 0
 202 720 236 751 280 751 c 0
 330 751 371 712 371 661 c 0
 371 648 361 613 358 600 c 0
 349 557 326 524 287 509 c 0
 285 508 284 508 282 508 c 0
 277 508 274 511 266 511 c 0
 261 511 251 509 241 509 c 0
 189 509 157 583 157 633 c 0
EndSplineSet
Fore
SplineSet
129 199 m 0
 129 187 140 181 145 172 c 0
 159 148 175 126 193 106 c 0
 202 97 213 89 224 89 c 0
 247 89 260 121 267 140 c 1
 268 163 271 187 271 211 c 0
 271 249 267 273 248 294 c 0
 244 298 242 299 240 299 c 3
 238 299 236 298 231 295 c 0
 196 269 169 244 143 222 c 0
 135 216 129 208 129 199 c 0
31 127 m 0
 31 151 43 172 55 186 c 0
 63 195 74 202 83 210 c 0
 101 227 135 248 158 267 c 0
 175 281 200 303 221 320 c 0
 231 328 249 342 256 352 c 0
 259 357 264 366 270 371 c 1
 270 381 l 2
 270 413 279 422 307 431 c 0
 309 432 310 432 312 432 c 0
 323 432 329 420 331 410 c 0
 333 396 331 392 341 384 c 0
 347 380 347 367 350 360 c 0
 358 341 359 312 359 286 c 0
 359 275 358 264 358 253 c 0
 358 178 386 128 414 79 c 0
 420 69 431 56 442 56 c 0
 447 56 451 58 457 63 c 0
 469 73 482 82 491 95 c 0
 508 119 521 152 548 166 c 0
 551 167 553 168 555 168 c 0
 562 168 565 160 565 151 c 0
 565 128 549 117 542 98 c 0
 532 68 510 51 493 28 c 0
 469 -3 441 -38 389 -38 c 0
 366 -38 350 -29 333 -20 c 0
 323 -15 314 -10 306 -2 c 0
 283 22 280 60 272 98 c 1
 250 82 237 59 219 40 c 0
 202 22 180 -8 147 -8 c 0
 115 -8 89 18 73 36 c 0
 54 58 31 89 31 127 c 0
218 665 m 0
 218 651 221 638 225 627 c 0
 235 602 252 560 287 560 c 0
 310 560 318 582 318 605 c 0
 318 651 288 685 255 699 c 0
 252 700 250 700 247 700 c 0
 229 700 218 684 218 665 c 0
157 633 m 0
 157 662 170 682 186 701 c 0
 202 720 236 751 280 751 c 0
 330 751 371 712 371 661 c 0
 371 648 361 613 358 600 c 0
 349 557 326 524 287 509 c 0
 285 508 284 508 282 508 c 0
 277 508 274 511 266 511 c 0
 261 511 251 509 241 509 c 0
 189 509 157 583 157 633 c 0
EndSplineSet
EndChar

StartChar: igrave
Encoding: 236 236 53
Width: 239
VWidth: 0
Flags: HMW
LayerCount: 2
Fore
SplineSet
5 316 m 0
 5 319 8 330 12 333 c 0
 36 353 74 357 109 370 c 0
 117 373 123 376 129 381 c 0
 136 387 145 394 153 394 c 0
 160 394 166 389 170 377 c 0
 180 347 183 311 183 273 c 0
 183 232 179 182 179 141 c 0
 179 116 180 97 189 78 c 0
 193 69 203 57 203 44 c 0
 203 26 185 20 172 15 c 0
 161 11 124 -11 105 -11 c 0
 95 -11 87 -2 87 12 c 0
 87 21 90 30 93 37 c 0
 98 48 101 58 101 73 c 0
 101 97 95 117 95 142 c 2
 95 149 l 2
 95 189 83 217 70 244 c 0
 65 255 44 277 34 283 c 0
 23 289 5 303 5 316 c 0
-147 756 m 0
 -147 772 -136 779 -126 779 c 0
 -102 779 -80 759 -59 748 c 0
 28 703 105 636 182 570 c 0
 191 562 195 550 195 541 c 0
 195 533 192 527 186 527 c 3
 183 527 180 528 176 531 c 0
 127 568 78 607 28 643 c 0
 -12 672 -56 691 -102 710 c 0
 -117 716 -147 720 -147 756 c 0
EndSplineSet
MultipleSubs2: "'ccmp' Glyph Composition/Decomposition in Latin lookup 15-1" i gravecomb
EndChar

StartChar: iacute
Encoding: 237 237 54
Width: 239
VWidth: 0
Flags: HMW
LayerCount: 2
Fore
SplineSet
5 316 m 0
 5 319 8 330 12 333 c 0
 36 353 74 357 109 370 c 0
 117 373 123 376 129 381 c 0
 136 387 145 394 153 394 c 0
 160 394 166 389 170 377 c 0
 180 347 183 311 183 273 c 0
 183 232 179 182 179 141 c 0
 179 116 180 97 189 78 c 0
 193 69 203 57 203 44 c 0
 203 26 185 20 172 15 c 0
 161 11 124 -11 105 -11 c 0
 95 -11 87 -2 87 12 c 0
 87 21 90 30 93 37 c 0
 98 48 101 58 101 73 c 0
 101 97 95 117 95 142 c 2
 95 149 l 2
 95 189 83 217 70 244 c 0
 65 255 44 277 34 283 c 0
 23 289 5 303 5 316 c 0
17 541 m 0
 17 550 22 562 31 570 c 0
 108 636 185 703 272 748 c 0
 293 759 314 779 338 779 c 0
 348 779 359 772 359 756 c 0
 359 720 329 716 314 710 c 0
 268 691 224 672 184 643 c 0
 134 607 86 568 37 531 c 0
 33 528 29 527 26 527 c 3
 20 527 17 533 17 541 c 0
EndSplineSet
MultipleSubs2: "'ccmp' Glyph Composition/Decomposition in Latin lookup 15-1" i acutecomb
EndChar

StartChar: icircumflex
Encoding: 238 238 55
Width: 239
VWidth: 0
Flags: HMW
LayerCount: 2
Fore
SplineSet
5 316 m 0
 5 319 8 330 12 333 c 0
 36 353 74 357 109 370 c 0
 117 373 123 376 129 381 c 0
 136 387 145 394 153 394 c 0
 160 394 166 389 170 377 c 0
 180 347 183 311 183 273 c 0
 183 232 179 182 179 141 c 0
 179 116 180 97 189 78 c 0
 193 69 203 57 203 44 c 0
 203 26 185 20 172 15 c 0
 161 11 124 -11 105 -11 c 0
 95 -11 87 -2 87 12 c 0
 87 21 90 30 93 37 c 0
 98 48 101 58 101 73 c 0
 101 97 95 117 95 142 c 2
 95 149 l 2
 95 189 83 217 70 244 c 0
 65 255 44 277 34 283 c 0
 23 289 5 303 5 316 c 0
-64 541 m 0
 -64 550 -59 562 -50 570 c 0
 -6 608 39 646 85 681 c 0
 90 685 101 687 111 687 c 3
 117 687 122 686 125 684 c 0
 173 649 218 609 264 570 c 0
 273 562 278 550 278 541 c 0
 278 533 275 527 269 527 c 0
 266 527 262 528 258 531 c 0
 216 562 175 597 132 628 c 0
 120 637 114 641 107 641 c 3
 101 641 94 636 83 628 c 0
 40 596 -1 563 -44 531 c 0
 -48 528 -51 527 -54 527 c 0
 -60 527 -64 533 -64 541 c 0
EndSplineSet
MultipleSubs2: "'ccmp' Glyph Composition/Decomposition in Latin lookup 15-1" i uni0302
EndChar

StartChar: idieresis
Encoding: 239 239 56
Width: 239
VWidth: 0
Flags: HMW
LayerCount: 2
Fore
SplineSet
5 316 m 0
 5 319 8 330 12 333 c 0
 36 353 74 357 109 370 c 0
 117 373 123 376 129 381 c 0
 136 387 145 394 153 394 c 0
 160 394 166 389 170 377 c 0
 180 347 183 311 183 273 c 0
 183 232 179 182 179 141 c 0
 179 116 180 97 189 78 c 0
 193 69 203 57 203 44 c 0
 203 26 185 20 172 15 c 0
 161 11 124 -11 105 -11 c 0
 95 -11 87 -2 87 12 c 0
 87 21 90 30 93 37 c 0
 98 48 101 58 101 73 c 0
 101 97 95 117 95 142 c 2
 95 149 l 2
 95 189 83 217 70 244 c 0
 65 255 44 277 34 283 c 0
 23 289 5 303 5 316 c 0
10 565 m 0
 10 585 23 602 48 615 c 0
 55 619 61 621 66 621 c 0
 79 621 85 609 85 583 c 0
 85 557 84 552 68 542 c 0
 57 535 48 532 39 532 c 0
 19 532 10 548 10 565 c 0
149 565 m 0
 149 585 162 602 187 615 c 0
 194 619 200 621 205 621 c 0
 218 621 224 609 224 583 c 0
 224 557 224 552 208 542 c 0
 197 535 187 532 178 532 c 0
 158 532 149 548 149 565 c 0
EndSplineSet
MultipleSubs2: "'ccmp' Glyph Composition/Decomposition in Latin lookup 15-1" i uni0308
EndChar

StartChar: ccedilla
Encoding: 231 231 57
Width: 302
VWidth: 0
Flags: HMW
LayerCount: 2
Back
SplineSet
272 107 m 0
 281 107 296 95 296 86 c 0
 296 84 296 82 295 79 c 0
 285 50 268 21 241 9 c 0
 231 5 220 3 209 -1 c 0
 199 -4 187 -7 176 -10 c 0
 153 -16 138 -22 122 -33 c 0
 116 -37 114 -40 114 -44 c 3
 114 -47 117 -51 121 -54 c 0
 136 -66 163 -102 163 -129 c 0
 163 -169 103 -198 72 -209 c 0
 52 -216 38 -219 32 -219 c 3
 7 -219 -17 -199 -32 -182 c 0
 -34 -179 -36 -178 -36 -175 c 0
 -36 -171 -31 -166 -23 -162 c 2
 11 -146 l 2
 15 -144 18 -144 22 -144 c 3
 28 -144 34 -146 39 -151 c 0
 48 -159 64 -171 76 -171 c 3
 85 -171 91 -165 91 -146 c 0
 91 -136 88 -126 81 -118 c 0
 74 -110 60 -98 40 -82 c 0
 36 -79 34 -75 34 -71 c 0
 34 -64 42 -56 57 -46 c 2
 90 -24 l 2
 98 -18 103 -12 103 -5 c 3
 103 0 100 6 96 12 c 0
 92 18 88 24 84 30 c 0
 56 70 21 119 21 182 c 0
 21 248 50 301 84 339 c 0
 105 362 123 384 149 401 c 0
 160 408 177 420 194 420 c 3
 223 420 240 389 248 367 c 0
 251 359 259 348 259 338 c 3
 259 324 244 320 235 315 c 0
 226 310 218 302 209 297 c 0
 198 291 185 287 175 281 c 0
 172 279 168 278 164 278 c 0
 158 278 154 281 154 290 c 0
 154 292 155 295 155 297 c 0
 155 309 150 314 135 314 c 0
 129 314 122 314 118 312 c 0
 108 297 100 277 100 255 c 0
 100 215 115 190 128 161 c 0
 139 137 149 113 166 95 c 0
 179 81 201 56 227 56 c 0
 246 56 260 78 263 95 c 0
 264 101 267 107 272 107 c 0
EndSplineSet
Fore
SplineSet
-36 -175 m 0
 -36 -171 -31 -166 -23 -162 c 2
 11 -146 l 2
 21 -141 29 -143 38 -151 c 0
 45 -157 63 -172 76 -172 c 0
 81 -172 86 -170 88 -164 c 0
 90 -158 91 -152 91 -146 c 0
 91 -136 88 -126 81 -118 c 0
 74 -110 60 -98 40 -82 c 0
 36 -79 34 -75 34 -71 c 0
 34 -64 42 -56 57 -46 c 2
 114.526706644 -8.45625461122 l 1
 111.055913718 -5.51085738038 108.099436801 -2.44934293453 106 -0 c 0
 98 9 91 20 84 30 c 0
 56 70 21 119 21 182 c 0
 21 248 50 301 84 339 c 0
 112 371 137 402 182 418 c 0
 186 420 190 420 194 420 c 0
 205 420 212 415 219 409 c 0
 226 403 234 397 239 389 c 0
 244 382 245 375 248 367 c 0
 251 359 259 348 259 338 c 0
 259 327 245 319 236 314 c 0
 227 309 218 302 209 297 c 0
 198 291 185 287 175 281 c 0
 172 279 168 278 164 278 c 0
 158 278 154 281 154 290 c 0
 154 292 155 295 155 297 c 0
 155 309 150 314 135 314 c 0
 129 314 122 314 118 312 c 0
 108 297 100 277 100 255 c 0
 100 215 115 190 128 161 c 0
 139 137 149 113 166 95 c 0
 171 89 178 84 183 78 c 0
 188 77 190 73 194 70 c 0
 202 64 214 56 227 56 c 0
 246 56 260 78 263 95 c 0
 264 101 267 107 272 107 c 0
 274 107 275 107 277 106 c 0
 285 103 296 97 296 86 c 0
 296 84 296 82 295 79 c 0
 285 50 268 21 241 9 c 0
 231 5 220 3 209 -1 c 0
 200 -4 190 -8 180 -10 c 0
 168.071808763 -12.9820478093 156.143617525 -14.9760279368 145.19758131 -17.9462504265 c 2
 122 -33 l 2
 117 -36 114 -39 114 -43 c 0
 114 -46 116 -50 121 -54 c 0
 136 -66 163 -102 163 -129 c 0
 163 -169 103 -198 72 -209 c 0
 52 -216 38 -219 32 -219 c 0
 7 -219 -18 -200 -33 -183 c 0
 -35 -180 -36 -178 -36 -175 c 0
EndSplineSet
EndChar

StartChar: ae
Encoding: 230 230 59
Width: 499
VWidth: 0
Flags: HMW
AnchorPoint: "Above" 264 450 basechar 0
LayerCount: 2
Fore
SplineSet
299 343 m 0
 299 324 300 305 301 287 c 0
 302 280 304 275 312 275 c 0
 327 275 337 275 351 277 c 1
 363 291 390 305 390 328 c 0
 390 334 388 342 383 350 c 0
 371 369 355 382 336 382 c 0
 326 382 316 379 305 371 c 0
 301 368 300 367 300 359 c 0
 300 354 299 348 299 343 c 0
110 201 m 0
 110 193 111 191 114 185 c 0
 119 176 120 162 124 154 c 0
 133 132 147 107 175 107 c 0
 180 107 187 108 193 110 c 0
 208 115 209 126 209 140 c 0
 209 147 209 157 210 162 c 0
 213 173 214 186 214 198 c 3
 214 217 208 235 207 254 c 0
 206 266 205 267 198 273 c 0
 190 280 181 286 171 286 c 0
 166 286 160 285 153 280 c 0
 129 264 110 233 110 201 c 0
6 157 m 0
 6 177 10 197 19 212 c 0
 52 269 113 305 165 342 c 0
 183 355 197 352 207 381 c 0
 213 398 223 397 239 411 c 0
 258 428 282 427 302 435 c 0
 326 445 354 454 386 454 c 0
 433 454 464 436 479 403 c 0
 480 401 481 398 481 396 c 0
 481 386 470 378 465 371 c 0
 454 355 448 337 436 322 c 0
 430 314 423 304 417 295 c 0
 416 293 416 292 416 290 c 3
 416 285 419 282 426 282 c 3
 429 282 432 282 435 282 c 0
 485 286 529 293 572 301 c 0
 577 302 583 303 588 303 c 3
 598 303 603 297 603 289 c 3
 603 282 599 274 592 269 c 0
 568 252 537 247 500 242 c 0
 475 238 450 233 425 231 c 0
 406 230 386 230 367 227 c 0
 353 225 340 220 327 216 c 0
 318 213 314 206 314 189 c 2
 314 160 l 2
 314 131 322 108 322 81 c 0
 322 74 330 69 344 69 c 0
 384 69 407 95 430 114 c 0
 455 135 480 155 508 173 c 0
 513 177 518 178 522 178 c 0
 527 178 531 174 531 169 c 3
 531 165 530 160 525 154 c 0
 515 141 501 129 490 117 c 0
 478 104 467 89 455 75 c 0
 428 45 390 23 354 4 c 0
 341 -3 325 -12 307 -12 c 0
 292 -12 282 -20 271 -20 c 3
 265 -20 259 -21 252 -10 c 0
 247 -3 242 3 236 9 c 0
 228 17 224 20 219 20 c 3
 215 20 211 19 203 16 c 0
 185 9 164 4 147 -2 c 0
 137 -6 126 -8 115 -8 c 0
 60 -8 52 42 33 78 c 1
 17 94 6 126 6 157 c 0
EndSplineSet
EndChar

StartChar: longs
Encoding: 383 383 60
Width: 217
VWidth: 0
Flags: HMW
LayerCount: 2
Fore
SplineSet
160 440 m 0
 160 369 173 310 173 240 c 0
 173 236 173 232 173 228 c 0
 173 192 176 158 176 122 c 2
 176 76 l 2
 176 51 178 27 178 2 c 0
 178 -38 172 -78 172 -118 c 0
 172 -148 175 -177 175 -207 c 0
 175 -259 169 -309 166 -360 c 0
 165 -385 158 -425 133 -425 c 0
 107 -425 101 -400 101 -370 c 0
 101 -348 104 -322 104 -303 c 0
 104 -258 96 -216 94 -172 c 0
 90 -67 81 30 81 134 c 0
 81 154 81 172 82 192 c 1
 60 213 22 251 22 291 c 0
 22 317 50 326 67 339 c 0
 78 347 88 357 98 366 c 1
 104 408 110 450 113 495 c 0
 117 562 160 616 216 632 c 0
 224 634 232 636 240 636 c 0
 285 636 317 597 317 550 c 0
 317 523 293 470 266 470 c 0
 245 470 233 511 212 511 c 0
 206 511 200 509 193 503 c 0
 174 488 160 472 160 440 c 0
EndSplineSet
Substitution2: "'ss18' Style Set 18 in Latin lookup 17-1" longs.alt
Substitution2: "'salt' Stylistic Alternatives in Latin lookup 4-1" longs.alt
EndChar

StartChar: ae_f
Encoding: 65539 -1 61
Width: 772
VWidth: 0
Flags: HMW
AnchorPoint: "lig above" 282 440 baselig 0
AnchorPoint: "lig above" 610 440 baselig 1
LayerCount: 2
Fore
SplineSet
288 168 m 3
 288 143 301 113 306 93 c 0
 308 84 306 81 315 78 c 0
 322 76 330 74 337 74 c 0
 375 74 388 95 398 122 c 1
 392 151 399 216 379 233 c 0
 370 241 351 246 347 248 c 1
 321 248 305 215 293 191 c 0
 290 184 288 176 288 168 c 3
255 392 m 3
 255 388 256 385 257 382 c 0
 263 370 266 355 266 340 c 0
 266 327 265 315 265 302 c 0
 265 298 265 294 265 290 c 3
 265 280 266 273 279 273 c 0
 316 273 337 292 356 311 c 0
 359 314 360 317 360 320 c 3
 360 323 360 326 359 331 c 0
 351 372 342 395 315 418 c 0
 311 421 310 422 304 422 c 0
 293 422 282 429 274 429 c 0
 267 429 255 408 255 392 c 3
91 136 m 0
 91 125 99 124 102 115 c 0
 110 95 115 57 142 57 c 0
 169 57 181 84 195 99 c 1
 195 103 195 107 195 111 c 0
 195 127 197 144 197 160 c 0
 197 202 186 236 181 274 c 1
 171 274 l 2
 121 274 111 237 99 194 c 0
 94 175 91 158 91 136 c 0
7 98 m 0
 7 132 23 137 29 163 c 0
 48 240 102 282 156 324 c 0
 161 328 167 332 173 335 c 1
 172 344 171 353 171 362 c 0
 171 385 177 405 195 413 c 1
 212 437 237 449 261 466 c 0
 276 477 293 490 317 490 c 0
 321 490 363 486 384 479 c 0
 405 472 385 469 401 459 c 0
 422 445 424 426 424 399 c 2
 424 358 l 2
 424 317 435 284 446 251 c 0
 450 241 458 223 468 223 c 3
 491 223 494 278 502 295 c 0
 520 336 549 377 607 377 c 0
 634 377 709 367 709 337 c 0
 709 331 705 324 699 317 c 0
 686 302 674 284 665 264 c 0
 661 255 655 251 649 251 c 0
 636 251 622 268 614 274 c 0
 602 282 582 292 564 292 c 0
 524 292 520 225 520 186 c 2
 520 160 l 2
 520 137 527 133 544 125 c 0
 588 103 645 91 697 80 c 0
 707 78 717 77 727 77 c 0
 769 77 800 107 823 134 c 0
 829 141 835 144 839 144 c 0
 843 144 846 140 846 134 c 3
 846 130 845 124 843 118 c 0
 831 88 817 59 792 43 c 0
 763 24 717 16 675 16 c 0
 614 16 548 28 501 46 c 1
 506 26 509 4 509 -20 c 0
 509 -62 502 -103 502 -145 c 0
 502 -170 504 -194 504 -218 c 0
 504 -256 497 -290 496 -326 c 0
 495 -366 484 -381 459 -398 c 0
 448 -406 433 -429 413 -429 c 0
 403 -429 390 -422 390 -411 c 0
 390 -398 401 -381 403 -373 c 0
 409 -352 414 -330 414 -305 c 0
 414 -274 409 -245 409 -213 c 0
 409 -179 411 -145 411 -111 c 0
 411 -62 410 -14 409 35 c 1
 378 23 341 13 316 -6 c 0
 305 -15 293 -18 281 -18 c 0
 241 -18 220 18 208 50 c 1
 182 26 153 9 123 -11 c 0
 111 -19 98 -22 86 -22 c 0
 29 -22 7 35 7 98 c 0
EndSplineSet
Ligature2: "'liga' Standard Ligatures in Latin lookup 0 doubles" ae uniA77C
LCarets2: 1 420
Ligature2: "'liga' Standard Ligatures in Latin lookup 0 doubles" ae f
EndChar

StartChar: ae_g
Encoding: 65540 -1 62
Width: 754
VWidth: 0
Flags: HMW
AnchorPoint: "lig above" 392 496 baselig 0
AnchorPoint: "lig above" 575 440 baselig 1
LayerCount: 2
Fore
SplineSet
311 194 m 1
 312 141 323 107 352 80 c 0
 361 72 367 56 382 56 c 0
 388 56 393 59 399 59 c 1
 435 76 463 108 488 136 c 0
 506 156 513 186 525 214 c 0
 528 221 530 228 530 234 c 3
 530 251 515 254 488 254 c 3
 465 254 443 258 421 258 c 3
 378 258 330 222 311 194 c 1
289 340 m 0
 289 310 293 281 319 281 c 3
 337 281 354 292 366 303 c 0
 396 329 431 360 431 414 c 0
 431 444 412 479 381 479 c 0
 353 479 330 458 314 443 c 0
 298 428 290 418 290 386 c 0
 290 373 289 356 289 340 c 0
6 92 m 0
 6 152 51 183 77 220 c 0
 105 259 148 290 196 309 c 1
 196 373 232 399 261 436 c 0
 273 451 280 466 295 479 c 0
 319 500 343 528 372 542 c 0
 390 550 416 565 438 565 c 3
 478 565 505 527 518 499 c 0
 520 494 522 489 522 484 c 3
 522 469 518 459 513 448 c 0
 500 422 488 394 475 369 c 0
 469 357 463 345 463 339 c 3
 463 314 542 308 567 308 c 0
 620 308 667 328 682 368 c 0
 684 374 691 378 697 378 c 3
 703 378 709 374 709 363 c 0
 709 321 681 288 651 274 c 0
 610 255 608 244 600 194 c 0
 595 164 590 135 590 105 c 0
 590 38 639 20 675 -12 c 0
 710 -43 731 -88 750 -133 c 0
 758 -153 763 -172 763 -191 c 0
 763 -240 727 -275 697 -299 c 0
 694 -301 692 -304 692 -306 c 3
 692 -310 699 -315 704 -318 c 0
 707 -320 710 -323 710 -328 c 3
 710 -335 704 -343 701 -346 c 0
 687 -359 665 -346 641 -360 c 0
 619 -372 593 -385 571 -395 c 0
 566 -397 562 -398 558 -398 c 0
 543 -398 536 -384 536 -368 c 0
 536 -360 538 -350 542 -343 c 0
 558 -314 583 -288 625 -288 c 0
 631 -288 637 -288 644 -289 c 1
 661 -270 674 -236 674 -203 c 0
 674 -180 667 -157 650 -141 c 0
 614 -106 573 -75 537 -40 c 0
 517 -20 502 1 497 34 c 0
 494 59 485 68 474 68 c 3
 464 68 451 59 439 45 c 0
 417 20 396 -15 353 -18 c 1
 339 -23 324 -26 310 -26 c 0
 289 -26 270 -18 262 2 c 0
 253 23 251 53 233 53 c 3
 221 53 208 42 198 37 c 0
 172 23 159 9 138 -6 c 0
 127 -13 116 -16 106 -16 c 0
 74 -16 46 13 29 30 c 0
 14 45 6 68 6 92 c 0
113 173 m 3
 113 145 122 117 141 107 c 0
 154 100 173 81 180 81 c 3
 190 81 210 108 217 121 c 0
 223 132 226 145 229 158 c 1
 226 183 221 204 221 232 c 2
 221 239 l 1
 213 248 207 258 203 269 c 1
 174 260 148 234 129 214 c 0
 120 204 113 191 113 173 c 3
EndSplineSet
LCarets2: 1 507
Ligature2: "'liga' Standard Ligatures in Latin lookup 0 doubles" ae g
Ligature2: "'liga' Standard Ligatures in Latin lookup 0 doubles" ae uni1D79
EndChar

StartChar: ae_t
Encoding: 65541 -1 63
Width: 870
VWidth: 0
Flags: HMW
AnchorPoint: "lig above" 388 555 baselig 0
AnchorPoint: "lig above" 666 440 baselig 1
LayerCount: 2
Fore
SplineSet
105 184 m 0
 105 149 130 121 153 108 c 0
 158 105 162 104 167 104 c 0
 182 104 196 117 207 129 c 0
 215 138 218 143 218 152 c 3
 218 155 218 160 217 165 c 0
 214 191 212 217 211 244 c 0
 210 257 202 265 187 260 c 0
 147 248 105 229 105 184 c 0
6 125 m 0
 6 186 46 232 80 264 c 0
 107 289 137 299 178 307 c 0
 201 311 208 313 208 329 c 3
 208 340 206 353 206 364 c 0
 206 378 209 389 209 403 c 0
 209 479 250 519 290 558 c 0
 327 594 367 630 439 630 c 0
 465 630 481 617 495 604 c 0
 512 588 534 567 534 536 c 0
 534 470 483 422 451 384 c 0
 445 377 443 373 443 369 c 3
 443 364 450 362 458 361 c 0
 479 359 502 358 525 358 c 0
 638 358 744 370 846 385 c 0
 855 386 864 388 872 388 c 0
 885 388 895 384 895 365 c 0
 895 337 860 336 840 329 c 0
 798 313 741 310 694 302 c 0
 675 299 657 297 638 294 c 0
 614 291 601 282 595 260 c 0
 588 237 583 213 583 187 c 0
 583 137 601 57 650 57 c 0
 683 57 709 82 722 104 c 0
 734 124 761 159 791 159 c 0
 801 159 814 157 824 147 c 0
 839 133 855 118 855 99 c 0
 855 92 852 84 846 75 c 0
 833 56 810 21 779 21 c 0
 763 21 746 29 731 36 c 0
 724 39 721 39 718 39 c 3
 713 39 709 37 702 29 c 0
 671 -3 625 -36 572 -36 c 0
 536 -36 521 -4 510 24 c 0
 505 37 500 50 497 64 c 0
 495 74 491 79 486 79 c 3
 482 79 478 75 473 68 c 0
 451 33 424 -1 376 -8 c 0
 361 -10 359 -11 350 -18 c 0
 339 -27 324 -37 308 -37 c 0
 301 -37 294 -35 287 -30 c 0
 256 -9 241 29 231 72 c 0
 229 81 225 85 220 85 c 3
 216 85 211 82 206 77 c 0
 192 61 177 45 161 31 c 0
 147 19 119 1 92 1 c 0
 81 1 71 4 61 11 c 0
 33 31 6 77 6 125 c 0
296 423 m 0
 298 390 303 359 304 323 c 0
 304 313 308 310 313 310 c 3
 316 310 321 313 325 316 c 0
 357 341 380 375 413 398 c 0
 432 411 450 438 450 466 c 0
 450 493 431 515 407 529 c 0
 391 538 372 546 354 546 c 3
 345 546 339 540 334 535 c 0
 319 520 306 513 303 485 c 0
 301 464 298 443 296 423 c 0
306 217 m 2
 306 205 l 1
 310 159 317 117 330 81 c 0
 336 63 339 59 359 55 c 0
 365 54 371 53 376 53 c 0
 397 53 411 67 423 79 c 0
 455 111 484 140 495 193 c 0
 499 214 506 235 514 254 c 0
 516 259 517 264 517 268 c 3
 517 276 513 281 500 281 c 3
 491 281 482 280 473 279 c 0
 431 276 391 271 357 257 c 0
 346 253 336 248 325 243 c 0
 310 235 306 232 306 217 c 2
EndSplineSet
LCarets2: 1 498
Ligature2: "'liga' Standard Ligatures in Latin lookup 0 doubles" ae uniA787
Ligature2: "'liga' Standard Ligatures in Latin lookup 0 doubles" ae t
EndChar

StartChar: e_n
Encoding: 65542 -1 64
Width: 738
VWidth: 0
Flags: HMW
AnchorPoint: "Lig below" 178 -40 baselig 0
AnchorPoint: "lig above" 226 468 baselig 0
AnchorPoint: "Lig below" 488 -40 baselig 1
AnchorPoint: "lig above" 518 440 baselig 1
LayerCount: 2
Fore
SplineSet
106 310 m 0
 106 297 113 289 127 289 c 0
 154.664531433 289 178.263409292 299.18022741 197 312 c 0
 216 325 234 339 254 350 c 0
 266 356 269 367 269 378 c 3
 269 383 268 388 267 393 c 0
 259 429 236 458 198 458 c 0
 142.694266243 458 124.501953125 402.126953125 111.862304688 350 c 0
 108.663085938 336.806640625 106 323.234922644 106 310 c 0
128 178 m 3
 128 173 128 167 129 160 c 0
 137 119 146 78 177 60 c 0
 183 57 188 56 193 56 c 3
 202 56 209 59 217 64 c 0
 229 72 243 79 253 89 c 0
 266 102 276 120 285 138 c 0
 290 149 293 156 293 165 c 3
 293 170 292 175 290 183 c 0
 287 196 284 209 284 223 c 3
 284 246 273 258 241 258 c 3
 197 258 170 237 147 213 c 0
 134 200 128 192 128 178 c 3
16 318 m 0
 16 364 43 396 66 422 c 0
 95 454 125 486 158 513 c 0
 176 528 198 542 228 542 c 0
 268 542 301 525 330 509 c 0
 340.970956935 502.947058242 343 494 343 479 c 2
 343 471 l 2
 343 458 344 445 344 432 c 0
 344 418 341 405 338 394 c 0
 336 388 334 381 334 375 c 3
 334 366 338 358 346 354 c 0
 360 347 372 338 385 331 c 0
 398 324 404 321 409 321 c 3
 416 321 423 324 439 331 c 0
 458 339 479 346 498 355 c 0
 521 365 554 379 586 379 c 0
 638 379 671 352 672 300 c 0
 673 271 682 243 682 213 c 0
 682 189 674 166 674 143 c 0
 674 113 676 75 697 64 c 0
 706.120117188 59.22265625 728 47 728 37 c 0
 728 32 724 27 713 22 c 0
 695 14 684 4 660 2 c 0
 635 0 632 -22 610 -22 c 0
 586 -22 578 -7 578 11 c 0
 578 26 582 43 582 59 c 0
 582 81 577 102 577 125 c 0
 577 140 578 154 578 168 c 0
 578 215 575 269 543 287 c 0
 524 298 498 303 469 303 c 0
 446 303 436.533203125 287.270507812 428 272 c 0
 409 238 397 195 380 154 c 1
 384 125 378 87 401 75 c 0
 410 70 421 68 429 63 c 0
 436.818158063 58.1136512103 450 47 450 36 c 0
 450 32 448 27 442 23 c 0
 420 8 387 0 352 -0 c 0
 329 0 313 16 313 39 c 0
 313 42 313 45 313 48 c 0
 313 56 312 63 310 69 c 0
 307 77 301 83 295 83 c 3
 291 83 288 82 285 77 c 0
 279 68 271 59 264 50 c 0
 256 40 255 29 245 20 c 0
 231 8 202 -3 189 -4 c 0
 180 -5 171 -4 162 -4 c 0
 72 -4 39 43 31 127 c 0
 28 157 24 187 24 218 c 0
 24 226 25 233 25 241 c 0
 25 257 21 273 20 288 c 1
 17 298 16 308 16 318 c 0
EndSplineSet
LCarets2: 1 341
Ligature2: "'liga' Standard Ligatures in Latin lookup 0 doubles" e n
EndChar

StartChar: e_m
Encoding: 65543 -1 65
Width: 952
VWidth: 0
Flags: HMW
AnchorPoint: "Lig below" 140 -40 baselig 0
AnchorPoint: "lig above" 209 489 baselig 0
AnchorPoint: "Lig below" 622 -40 baselig 1
AnchorPoint: "lig above" 620 440 baselig 1
LayerCount: 2
Fore
SplineSet
105 359 m 0
 105 330 108 308 113 282 c 0
 116 263 125 254 135 254 c 3
 140 254 145 256 150 259 c 0
 169 272 187 285 205 299 c 0
 213 305 221 311 229 316 c 0
 249 329 254 334 263 359 c 0
 270 380 277 403 277 425 c 3
 277 472 231 496 178 496 c 0
 110 496 105 425 105 359 c 0
128 171 m 3
 128 168 128 163 129 158 c 0
 135 107 150 63 205 63 c 0
 271 63 304 117 331 160 c 0
 335 166 337 175 337 184 c 3
 337 190 336 196 334 201 c 0
 321 231 301 263 260 263 c 0
 227 263 198 244 177 229 c 0
 166 222 156 214 147 205 c 0
 135 194 128 187 128 171 c 3
16 329 m 0
 16 468 72 560 214 560 c 0
 288 560 352 533 352 467 c 3
 352 429 334 399 317 371 c 0
 314 366 313 362 313 358 c 3
 313 350 320 344 328 344 c 2
 342 344 l 2
 364 344 382 338 397 329 c 0
 407 323 412 320 417 320 c 3
 423 320 428.440429688 323.293945312 440 331 c 0
 470 351 507 365 549 365 c 0
 583 365 605 350 625 332 c 0
 636 322 646 316 655 316 c 3
 663 316 672 320 682 328 c 0
 694 337 706 346 719 354 c 0
 739 367 761 376 792 376 c 0
 859 376 890 342 908 292 c 0
 911 284 912 277 912 267 c 0
 912 261 913 255 913 250 c 0
 913 235 906 222 906 205 c 0
 906 190 908 176 908 161 c 0
 908 152 908 143 908 134 c 0
 908 98 908 56 921 31 c 0
 925 23 935 12 935 2 c 0
 935 -3 932 -9 925 -13 c 0
 906 -23 890 -36 872 -45 c 0
 860 -51 854 -59 846 -70 c 0
 843 -74 839 -76 835 -76 c 0
 828 -76 825 -69 825 -59 c 0
 825 -44 831 -31 831 -14 c 0
 831 -11 831 -8 831 -5 c 0
 831 15 836 34 836 55 c 0
 836 114 833 178 816 221 c 0
 809 238 810 245 797 256 c 0
 781 270 761 283 734 283 c 0
 709 283 692 273 678 262 c 0
 668 254 667 238 667 211 c 0
 667 182 663 155 663 127 c 2
 663 114 l 2
 663 91 664 74 680 63 c 0
 688 57 698 47 698 38 c 0
 698 32 694 27 685 23 c 0
 663 13 641 5 620 -5 c 0
 613 -8 599 -14 592 -14 c 0
 580 -14 577 2 577 16 c 0
 577 41 589 61 589 88 c 0
 589 96 588 105 588 113 c 2
 588 133 l 2
 588 172 581 211 574 246 c 1
 564 266 542 281 515 281 c 0
 473 281 443 255 420 233 c 1
 420 223 421 213 421 202 c 0
 421 180 418 158 418 136 c 2
 418 122 l 2
 418 98 420 69 440 69 c 2
 447 69 l 2
 454 69 463 68 463 62 c 0
 463 60 462 57 459 53 c 0
 441 29 410 17 378 8 c 0
 370 6 363 4 355 4 c 0
 329 4 322 18 322 38 c 0
 322 51 325 65 328 79 c 0
 328 81 329 84 329 86 c 3
 329 90 327 92 324 92 c 3
 322 92 319 90 316 86 c 0
 274 35 233 -11 139 -11 c 0
 98 -11 71 -1 55 26 c 0
 41 50 38 79 36 106 c 0
 31 181 16 252 16 329 c 0
EndSplineSet
LCarets2: 1 342
Ligature2: "'liga' Standard Ligatures in Latin lookup 0 doubles" e m
EndChar

StartChar: e_c
Encoding: 65544 -1 66
Width: 695
VWidth: 0
Flags: HMW
AnchorPoint: "Lig below" 144 -40 baselig 0
AnchorPoint: "lig above" 229 488 baselig 0
AnchorPoint: "Lig below" 539 -40 baselig 1
AnchorPoint: "lig above" 537 440 baselig 1
LayerCount: 2
Fore
SplineSet
133 169 m 3
 133 164 139 143 141 137 c 0
 145 127 149 117 154 108 c 0
 162 92 166 71 186 66 c 0
 194 64 204 63 213 63 c 0
 254 63 303 120 325 146 c 0
 330 152 335 158 339 164 c 0
 343 170 345 176 345 181 c 3
 345 188 342 193 337 199 c 0
 319 219 296 237 263 237 c 0
 221 237 175 222 146 199 c 0
 136 191 133 180 133 169 c 3
15 250 m 0
 15 285 17 331 32 358 c 0
 39 371 47 380 54 395 c 0
 82 452 127 500 181 530 c 0
 198 540 215 548 240 548 c 0
 302 548 335 508 335 445 c 0
 335 421.857199929 330.539411819 404.449441805 323.776364387 389 c 0
 316.948578022 373.402669187 308.705313598 359.410627195 299 344 c 0
 295.892658153 339.065992841 293 333 293 329 c 3
 293 320 300 313 311 313 c 3
 318 313 326 314 333 314 c 3
 355.674045715 314 381.10404073 303 401 303 c 3
 405 303 411 303 417 305 c 0
 445 313 466 325 487 342 c 0
 506 357 524 370 557 370 c 0
 599 370 644 363 644 322 c 0
 644 289 619 260 601 243 c 0
 596 239 590 236 584 236 c 0
 578 236 571 239 568 247 c 0
 562 262 561 272 547 280 c 0
 536 286 522 292 509 292 c 0
 489 292 474 286 463 272 c 0
 454 260 448 248 448 241 c 3
 448 235 449 220 453 208 c 0
 457 198 461 188 465 178 c 0
 480 140 491 100 519 74 c 0
 540 54 576 48 612 48 c 0
 664 48 692 90 713 122 c 0
 721.588607231 135.087506442 729 147 737 160 c 0
 741 167 746 170 749 170 c 3
 752 170 754 167 754 162 c 3
 754 159 753 155 752 151 c 0
 722 44 637.975060816 -15.6488396045 514 -29 c 0
 508 -30 502 -31 496 -31 c 0
 408 -31 395 66 375 136 c 0
 372 145 366 150 360 150 c 3
 355 150 349 146 344 140 c 0
 325 115 309 90 291 66 c 0
 270 38 246 11 207 1 c 1
 193 -13 161 -25 131 -25 c 0
 77 -25 60 28 46 72 c 0
 29 127 15 184 15 250 c 0
110 289 m 2
 110 273 110 264 128 264 c 3
 137 264 146 265 154 267 c 0
 168 270 180 275 192 281 c 0
 212 290 226.177170203 309.372057427 236 330 c 0
 246 351 253 367 253 393 c 0
 253 426 223 463 192 463 c 0
 151 463 124 412 115 371 c 0
 111 354 110 344 110 325 c 2
 110 289 l 2
EndSplineSet
LCarets2: 1 359
Ligature2: "'liga' Standard Ligatures in Latin lookup 0 doubles" e c
EndChar

StartChar: ae_n
Encoding: 65545 -1 67
Width: 923
VWidth: 0
Flags: HMW
AnchorPoint: "lig above" 386 456 baselig 0
AnchorPoint: "lig above" 673 440 baselig 1
LayerCount: 2
Fore
SplineSet
6 92 m 0
 6 152 51 183 77 220 c 0
 101 254 137 282 178 301 c 0
 188 306 195 312 196 328 c 0
 199 368 224 398 246 422 c 0
 275 454 305 486 338 513 c 0
 356 528 378 542 408 542 c 0
 448 542 481 523 510 509 c 0
 521 503 523 494 523 479 c 2
 523 471 l 2
 523 458 524 445 524 432 c 0
 524 418 521 405 518 394 c 0
 516 388 514 381 514 375 c 0
 514 366 517 358 525 354 c 0
 539 347 552 337 565 330 c 0
 578 323 585 320 589 320 c 0
 594 320 603 323 619 330 c 0
 638 338 659 345 678 354 c 0
 701 364 736 379 766 379 c 0
 818 379 851 352 852 300 c 0
 853 271 862 243 862 213 c 0
 862 189 854 166 854 143 c 0
 854 113 856 74 877 63 c 0
 886.120193854 58.2227556 908 46 908 37 c 0
 908 32 904 27 893 22 c 0
 875 14 864 4 840 2 c 0
 815 0 812 -22 790 -22 c 0
 766 -22 758 -7 758 11 c 0
 758 26 762 43 762 59 c 0
 762 81 757 102 757 125 c 0
 757 140 758 154 758 168 c 0
 758 215 755 269 723 287 c 0
 704 298 678 303 649 303 c 0
 626 303 616.495117188 287.291992188 608 272 c 0
 588 236 574 195 560 154 c 1
 564 125 558 87 581 75 c 0
 590 70 601 68 609 63 c 0
 616.818158063 58.1136512103 630 47 630 36 c 0
 630 32 628 27 622 23 c 0
 600 8 567 0 532 -0 c 0
 509 0 493 16 493 39 c 0
 493 42 493 45 493 48 c 0
 493 56 492 63 490 69 c 0
 487 77 481 83 475 83 c 0
 471 83 468 82 465 77 c 0
 459 68 451 59 444 50 c 0
 436 40 435 29 425 20 c 0
 411 8 382 -3 369 -4 c 0
 360 -5 351 -4 342 -4 c 0
 297 -4 266 8 245 30 c 0
 235 41 229 47 221 47 c 3
 217 47 213 46 207 42 c 0
 204 40 201 38 198 37 c 0
 172 23 159 9 138 -6 c 0
 127 -13 116 -16 106 -16 c 0
 74 -16 46 13 29 30 c 0
 14 45 6 68 6 92 c 0
307 178 m 0
 307 173 308 167 309 160 c 0
 317 119 326 78 357 60 c 0
 363 57 367 56 372 56 c 0
 381 56 389 59 397 64 c 0
 409 72 423 79 433 89 c 0
 446 102 456 120 465 138 c 0
 470 149 473 156 473 165 c 0
 473 170 472 175 470 183 c 0
 467 196 464 209 464 223 c 0
 464 246 453 258 421 258 c 0
 377 258 349 237 326 213 c 0
 313 200 307 192 307 178 c 0
286 310 m 0
 286 297 293 289 307 289 c 2
 311 289 l 1
 337 292 358 299 377 312 c 0
 396 325 413 339 433 350 c 0
 445 356 449 367 449 378 c 0
 449 383 448 388 447 393 c 0
 439 429 416 458 378 458 c 0
 311 458 297 376 287 318 c 0
 287 315 286 312 286 310 c 0
113 173 m 0
 113 145 122 117 141 107 c 0
 154 100 173 81 180 81 c 0
 186 81 196 91 204 101 c 0
 209 108 211 111 211 118 c 2
 211 127 l 1
 208 157 204 187 204 218 c 0
 204 226 205 233 205 241 c 3
 205 256 198 261 190 261 c 3
 185 261 180 259 176 256 c 0
 158 244 142 228 129 214 c 0
 120 204 113 191 113 173 c 0
EndSplineSet
LCarets2: 1 526
Ligature2: "'liga' Standard Ligatures in Latin lookup 0 doubles" ae n
EndChar

StartChar: ae_m
Encoding: 65546 -1 68
Width: 1135
VWidth: 0
Flags: HMW
AnchorPoint: "lig above" 390 496 baselig 0
AnchorPoint: "lig above" 825 450 baselig 1
LayerCount: 2
Fore
SplineSet
6 92 m 0
 6 152 51 183 77 220 c 0
 99 251 130 277 165 295 c 0
 186 306 196 302 196 334 c 0
 196 473 252 574 394 574 c 0
 468 574 532 542 532 467 c 0
 532 429 514 399 497 371 c 0
 494 366 493 362 493 358 c 0
 493 350 500 344 508 344 c 2
 522 344 l 2
 554 344 577 329 597 316 c 1
 629 341 676 365 729 365 c 0
 763 365 785 350 805 332 c 0
 816 322 826 316 835 316 c 0
 843 316 852 320 862 328 c 0
 874 337 886 346 899 354 c 0
 919 367 941 376 972 376 c 0
 1039 376 1070 342 1088 292 c 0
 1091 284 1092 277 1092 267 c 0
 1092 261 1093 255 1093 250 c 0
 1093 235 1086 222 1086 205 c 0
 1086 190 1088 176 1088 161 c 0
 1088 152 1088 143 1088 134 c 0
 1088 98 1088 56 1101 31 c 0
 1105 23 1115 12 1115 2 c 0
 1115 -3 1112 -9 1105 -13 c 0
 1086 -23 1070 -36 1052 -45 c 0
 1040 -51 1034 -59 1026 -70 c 0
 1023 -74 1019 -76 1015 -76 c 0
 1008 -76 1005 -69 1005 -59 c 0
 1005 -44 1011 -31 1011 -14 c 0
 1011 -11 1011 -8 1011 -5 c 0
 1011 15 1016 34 1016 55 c 0
 1016 114 1013 178 996 221 c 0
 989 238 990 245 977 256 c 0
 961 270 941 283 914 283 c 0
 889 283 872 273 858 262 c 0
 848 254 847 238 847 211 c 0
 847 182 843 155 843 127 c 2
 843 114 l 2
 843 91 844 74 860 63 c 0
 868 57 878 47 878 38 c 0
 878 32 874 24 865 20 c 0
 843 10 820 3 799 -7 c 0
 792 -10 781 -14 772 -14 c 0
 760 -14 757 2 757 16 c 0
 757 41 769 61 769 88 c 0
 769 96 768 105 768 113 c 2
 768 133 l 2
 768 172 761 211 754 246 c 1
 744 266 722 281 695 281 c 0
 653 281 623 255 600 233 c 1
 600 223 601 213 601 202 c 0
 601 180 598 158 598 136 c 2
 598 122 l 2
 598 98 600 69 620 69 c 2
 627 69 l 2
 634 69 643 68 643 62 c 0
 643 60 642 57 639 53 c 0
 621 29 591 17 559 8 c 0
 551 6 543 4 535 4 c 0
 509 4 502 18 502 38 c 0
 502 51 505 65 508 79 c 0
 508 81 509 84 509 86 c 0
 509 90 507 92 504 92 c 0
 502 92 499 90 496 86 c 0
 454 35 413 -11 319 -11 c 0
 278 -11 251 -1 235 26 c 0
 230 34 227 42 224 51 c 1
 215 48 206 41 198 37 c 0
 172 23 159 9 138 -6 c 0
 127 -13 116 -16 106 -16 c 0
 74 -16 46 13 29 30 c 0
 14 45 6 68 6 92 c 0
308 171 m 0
 308 168 308 163 309 158 c 0
 315 107 330 63 385 63 c 0
 451 63 484 117 511 160 c 0
 515 166 517 175 517 184 c 0
 517 190 516 196 514 201 c 0
 501 231 481 263 440 263 c 0
 407 263 378 244 357 229 c 0
 346 222 335 214 326 205 c 0
 314 194 308 188 308 171 c 0
285 364 m 0
 285 335 288 308 293 282 c 0
 296 263 305 254 315 254 c 0
 320 254 325 256 330 259 c 0
 349 272 367 285 385 299 c 0
 393 305 401 311 409 316 c 0
 429 329 434 334 443 359 c 0
 450 380 457 403 457 425 c 0
 457 479 411 510 358 510 c 0
 290 510 285 430 285 364 c 0
113 173 m 0
 113 145 122 117 141 107 c 0
 154 100 173 81 180 81 c 0
 186 81 196 91 204 101 c 0
 212 111 214 117 214 127 c 3
 214 131 214 136 213 142 c 0
 209 173 204 205 202 237 c 0
 201 251 195 259 186 259 c 3
 183 259 179 258 175 255 c 0
 158 243 142 227 129 214 c 0
 120 204 113 191 113 173 c 0
EndSplineSet
LCarets2: 1 521
Ligature2: "'liga' Standard Ligatures in Latin lookup 0 doubles" ae m
EndChar

StartChar: e_f
Encoding: 65547 -1 69
Width: 697
VWidth: 0
Flags: HMW
AnchorPoint: "Lig below" 136 -40 baselig 0
AnchorPoint: "lig above" 204 476 baselig 0
AnchorPoint: "Lig below" 510 -40 baselig 1
AnchorPoint: "lig above" 498 440 baselig 1
LayerCount: 2
Fore
SplineSet
91 389 m 3
 91 384 91 380 92 372 c 0
 93 363 93 352 95 345 c 0
 100 324 103 303 106 282 c 0
 108 271 112 262 118 262 c 3
 122 262 130 267 133 269 c 0
 161.230075378 288.695401426 189.908203125 308.822265625 208.33984375 339 c 0
 217.982421875 354.7890625 227 373.329883138 227 396 c 0
 227 429 211 459 170 459 c 0
 129 459 106 437 94 405 c 0
 92 399 91 393 91 389 c 3
16 309 m 0
 16 398 57 437 109 477 c 0
 137.37992379 498.830710608 193 540 244 540 c 0
 285 540 321 511 321 467 c 0
 321 432 305 407 287 385 c 0
 282 379 280 373 280 367 c 3
 280 358 284 350 294 345 c 0
 333 325 358 294 377 254 c 0
 382 243 388 238 396 238 c 3
 403 238 410 242 418 250 c 0
 453 285 483 328 525 355 c 0
 533 360 541 363 550 363 c 0
 587 363 624 322 646 307 c 0
 650 304 652 298 652 291 c 0
 652 261 622 205 592 205 c 0
 583 205 575 210 567 221 c 0
 555 239 530 270 503 270 c 0
 496 270 488 268 480 262 c 0
 438 231 433 159 419 101 c 0
 418 98 418 96 418 94 c 3
 418 80 430 75 455 75 c 3
 520 75 588 83 656 83 c 0
 698 83 798 80 798 36 c 0
 798 -2 734 4 696 3 c 0
 627 1 555 -6 483 -7 c 0
 430 -8 420 -54 412 -101 c 0
 400 -177 382 -254 363 -329 c 0
 352 -373 336 -416 313 -455 c 0
 301 -475 288 -488 280 -488 c 0
 274 -488 271 -482 271 -468 c 0
 271 -461 272 -452 274 -441 c 0
 292 -346 305 -245 305 -136 c 0
 305 -77 299 -19 294 37 c 0
 293 50 288 56 281 56 c 3
 275 56 270 52 262 45 c 0
 251 35 239 25 227 16 c 0
 208 0 174 -16 142 -16 c 0
 119 -16 98 -8 85 16 c 0
 59 65 44 129 32 188 c 0
 24 225 16 267 16 309 c 0
121 205 m 3
 121 201 122 196 123 191 c 0
 137 138 164 76 221 76 c 0
 251 76 271 102 284 121 c 1
 275 185 256 237 218 274 c 0
 213 279 208 281 204 281 c 3
 199 281 193 278 188 273 c 0
 172 257 155 244 137 230 c 0
 125 221 121 214 121 205 c 3
EndSplineSet
Ligature2: "'liga' Standard Ligatures in Latin lookup 0 doubles" e uniA77C
LCarets2: 1 327
Ligature2: "'liga' Standard Ligatures in Latin lookup 0 doubles" e f
EndChar

StartChar: e_g
Encoding: 65548 -1 70
Width: 551
VWidth: 0
Flags: HMW
AnchorPoint: "Lig below" 132 -40 baselig 0
AnchorPoint: "lig above" 232 491 baselig 0
AnchorPoint: "Lig below" 444 -40 baselig 1
AnchorPoint: "lig above" 436 440 baselig 1
LayerCount: 2
Fore
SplineSet
131 194 m 1
 132 141 142 107 171 80 c 0
 180 72 186 56 201 56 c 0
 207 56 213 60 219 59 c 0
 255 76 283 108 308 136 c 0
 326 156 333 186 345 214 c 0
 348 221 350 228 350 234 c 3
 350 251 335 254 308 254 c 3
 285 254 262 258 240 258 c 3
 197 258 150 222 131 194 c 1
108 340 m 0
 108 310 113 281 139 281 c 3
 157 281 175 294 187 305 c 0
 217 331 250 360 250 414 c 0
 250 444 232 479 201 479 c 0
 173 479 149 457 133 442 c 0
 117 427 109 418 109 386 c 0
 109 373 108 356 108 340 c 0
16 309 m 3
 16 373 51 399 80 436 c 0
 92 451 99 466 114 479 c 0
 138 500 163 528 192 542 c 0
 210 550 235 565 257 565 c 3
 297 565 327 527 340 499 c 0
 342 494 344 489 344 484 c 3
 344 470 339 459 334 448 c 0
 321 422 309 394 295 369 c 0
 288.444335938 357.293945312 283 347 283 339 c 3
 283 314 361 308 386 308 c 0
 439 308 487 328 502 368 c 0
 504 374 510 378 516 378 c 3
 522 378 528 374 528 363 c 0
 528 321 500 288 470 274 c 0
 429 255 427 244 419 194 c 0
 414 164 410 135 410 105 c 0
 410 38 458 20 494 -12 c 0
 529 -43 550 -88 569 -133 c 0
 577 -153 582 -172 582 -191 c 0
 582 -240 546 -275 516 -299 c 0
 513 -301 512 -304 512 -306 c 3
 512 -315 529 -316 529 -328 c 3
 529 -337 522 -345 518 -348 c 0
 504 -357 483 -347 460 -360 c 0
 438 -372 413 -385 391 -395 c 0
 386 -397 381 -398 377 -398 c 0
 362 -398 355 -384 355 -368 c 0
 355 -360 357 -350 361 -343 c 0
 377 -314 402 -288 444 -288 c 0
 464 -288 467 -287 475 -273 c 0
 486 -254 494 -228 494 -203 c 0
 494 -180 487 -157 470 -141 c 0
 434 -106 392 -75 356 -40 c 0
 336 -20 322 1 317 34 c 0
 314 59 304 68 293 68 c 3
 283 68 270 59 258 45 c 0
 236 20 216 -15 173 -18 c 1
 159 -23 144 -26 130 -26 c 0
 109 -26 90 -18 82 2 c 0
 73 23 59 31 53 53 c 24
 36 109 28 155 23 199 c 0
 18 242 16 253 16 309 c 3
EndSplineSet
LCarets2: 1 330
Ligature2: "'liga' Standard Ligatures in Latin lookup 0 doubles" e uni1D79
Ligature2: "'liga' Standard Ligatures in Latin lookup 0 doubles" e g
EndChar

StartChar: e_s_s
Encoding: 65549 -1 71
Width: 753
VWidth: 0
Flags: HMW
AnchorPoint: "Lig below" 108 -40 baselig 0
AnchorPoint: "lig above" 174 441 baselig 0
AnchorPoint: "Lig below" 310 -40 baselig 1
AnchorPoint: "lig above" 383 440 baselig 1
AnchorPoint: "Lig below" 507 -40 baselig 2
AnchorPoint: "lig above" 579 440 baselig 2
LayerCount: 2
Fore
SplineSet
16 334 m 0
 16 361 22 384 36 400 c 0
 46 411 55 420 64 432 c 0
 84 460 107 482 139 501 c 0
 155 510 175 515 194 515 c 0
 223 515 250 504 259 478 c 0
 265 462 277 442 277 423 c 0
 277 410 270 399 263 389 c 0
 260 385 259 380 259 376 c 3
 259 371 262 367 268 363 c 0
 278 357 287 348 296 339 c 0
 300 335 318 332 323 332 c 3
 330 332 337 337 343 342 c 0
 363 361 385 380 419 380 c 0
 462 380 487 358 505 330 c 0
 510 322 515 319 521 319 c 3
 527 319 534 323 541 331 c 0
 560 351 576 375 597 392 c 0
 607 400 615 410 624 417 c 0
 630 422 637 425 647 425 c 0
 656 425 664 423 672 420 c 0
 687 414 700 405 715 400 c 0
 735 394 746 390 746 366 c 0
 746 326 742 307 719 285 c 0
 711 277 704 273 697 273 c 0
 688 273 680 280 671 292 c 0
 665 300 654 302 647 310 c 0
 644 314 641 315 638 315 c 0
 614 315 580 226 566 177 c 0
 562 163 560 155 560 146 c 3
 560 141 560 134 561 126 c 0
 562 116 562 105 562 95 c 0
 562 -11 549 -114 549 -218 c 2
 549 -235 l 2
 549 -288 532 -319 502 -342 c 0
 496 -347 489 -349 484 -349 c 0
 467 -349 458 -325 458 -304 c 0
 458 -291 459 -278 459 -265 c 0
 459 -238 457 -211 457 -184 c 0
 457 -163 457 -142 457 -121 c 0
 457 -20 455 83 447 179 c 0
 444 214 430 291 392 291 c 0
 379 291 366 283 355 274 c 0
 343 265 339 261 339 251 c 3
 339 247 339 241 340 234 c 0
 350 170 351 99 355 28 c 0
 357 -11 358 -48 358 -90 c 0
 358 -157 354 -225 343 -287 c 0
 337 -318 301 -322 288 -346 c 0
 285 -351 280 -355 276 -355 c 0
 271 -355 267 -352 267 -342 c 0
 267 -340 268 -336 268 -334 c 0
 268 -316 264 -301 264 -283 c 0
 264 -271 265 -259 265 -247 c 0
 265 -211 260 -175 260 -138 c 0
 260 -131 260 -124 260 -117 c 0
 260 -63 251 -10 248 41 c 0
 247 49 244 53 240 53 c 3
 236 53 231 50 225 44 c 0
 194 14 151 -18 104 -18 c 0
 56 -18 61 44 51 84 c 0
 34 156 24 234 17 317 c 0
 17 323 16 329 16 334 c 0
122 200 m 3
 122 195 123 188 126 178 c 0
 136 142 147 106 163 76 c 0
 168 67 174 64 180 64 c 0
 205 64 237 118 243 135 c 1
 243 160 l 2
 243 167.837774722 242.317436527 175.129498665 241.148468134 182 c 0
 237.8430732 201.427146578 230.648667583 217.486442305 224 233 c 0
 220.837855794 240.589146095 216.875779109 256.977549453 211.101969205 267.999999702 c 0
 207.746198787 274.40630907 203.778425064 279 199 279 c 0
 195 279 191 275 185 267 c 0
 173 250 155 237 139 224 c 0
 127 214 122 209 122 200 c 3
98 335 m 0
 98 326 99 316 100 307 c 0
 102 291 108 284 116 284 c 3
 121 284 126 286 132 290 c 0
 147 299 161 312 175 323 c 0
 188 334 197 340 201 361 c 0
 203 368 203 376 203 383 c 0
 203 407 190 435 160 435 c 0
 130 435 109 396 99 376 c 1
 100 374 100 371 100 369 c 0
 100 358 98 346 98 335 c 0
EndSplineSet
LCarets2: 2 260 452
Ligature2: "'liga' Standard Ligatures in Latin lookup 0 triples" e uniA785 uniA785
EndChar

StartChar: e_s
Encoding: 65550 -1 72
Width: 604
VWidth: 0
Flags: HMW
AnchorPoint: "Lig below" 132 -50 baselig 0
AnchorPoint: "lig above" 210 440 baselig 0
AnchorPoint: "Lig below" 360 -40 baselig 1
AnchorPoint: "lig above" 452 440 baselig 1
LayerCount: 2
Fore
SplineSet
102 392 m 0
 102 360 133 349 133 321 c 0
 133 316 131 310 128 305 c 0
 126 302 124 297 124 293 c 3
 124 288 125 284 128 280 c 0
 132 274 136 271 142 271 c 3
 145 271 149 272 153 274 c 0
 171 284 185 297 203 306 c 0
 210 310 217 313 225 316 c 0
 240 322 245 327 245 343 c 2
 244 370 l 2
 244 392 239 396 227 407 c 0
 209 423 184 436 156 436 c 0
 129 436 102 419 102 392 c 0
16 245 m 0
 16 253 17 261 22 268 c 1
 19 279 19 290 19 300 c 0
 19 327 26 353 35 375 c 0
 58 434 109 472 171 492 c 0
 187 497 203 500 218 500 c 0
 262 500 300 480 321 450 c 0
 327.687662687 440.446196161 336 428 336 415 c 0
 336 405 327 398 327 382 c 2
 327 355 l 2
 327 334 340 339 350 327 c 0
 363 311 361 299 365 276 c 0
 367 266 371 261 376 261 c 3
 380 261 385 264 389 268 c 0
 400 281 411 293 424 304 c 0
 437 315 452 324 474 324 c 0
 521 324 567 298 584 266 c 0
 588 259 590 251 590 243 c 0
 590 220 577 196 561 192 c 0
 547 188 543 183 533 177 c 0
 529 175 526 173 524 173 c 0
 511 173 510 199 503 209 c 0
 493 223 475 238 456 238 c 0
 447 238 438 235 430 226 c 0
 396 188 397 112 387 52 c 1
 390 16 392 -21 392 -57 c 3
 392 -117 390 -171 377 -313 c 0
 374 -351 368 -365 346 -385 c 0
 336 -394 321 -414 304 -414 c 0
 283 -414 280 -391 280 -370 c 0
 280 -289 296 -188 296 -108 c 3
 296 -75 294 -44 293 -13 c 0
 292 2 285 9 277 9 c 3
 273 9 270 8 266 6 c 0
 245 -6 219 -16 191 -24 c 0
 167 -31 139 -43 116 -43 c 0
 95 -43 78 -33 71 0 c 0
 67 18 65 36 61 54 c 0
 52 94 39 133 32 176 c 0
 29 195 16 222 16 245 c 0
147 187 m 3
 147 182 148 177 150 169 c 0
 154 153 159 138 163 122 c 0
 171 89 186 51 228 51 c 0
 241 51 254 55 265 60 c 0
 283 69 284 71 285 96 c 0
 286 119 289 144 289 168 c 0
 289 213 280 255 233 255 c 0
 211 255 194 242 181 231 c 0
 174 225 167 219 161 212 c 0
 152 202 147 196 147 187 c 3
EndSplineSet
LCarets2: 1 302
Ligature2: "'liga' Standard Ligatures in Latin lookup 0 doubles" e uniA785
EndChar

StartChar: uniA785
Encoding: 42885 42885 73
Width: 417
VWidth: 0
Flags: HMW
AnchorPoint: "Above" 194 450 basechar 0
LayerCount: 2
Fore
SplineSet
5 323 m 0
 5 338 20 345 36 352 c 0
 52 359 59 358 74 366 c 0
 83 371 106 381 119 381 c 0
 143 381 176 360 176 336 c 0
 176 331 175 326 175 321 c 0
 175 307 178 295 182 283 c 0
 184 277 190 274 196 274 c 3
 201 274 207 277 211 283 c 0
 228 307 247 331 268 352 c 0
 277 362 303 379 324 379 c 0
 355 379 385 344 398 324 c 0
 402 318 403 312 403 306 c 0
 403 278 363 257 351 240 c 0
 345 231 339 228 335 228 c 0
 316 228 308 288 282 288 c 0
 252 288 244 250 235 228 c 0
 223 199 214 166 205 135 c 0
 199 115 196 102 196 79 c 3
 196 64 198 48 198 33 c 0
 198 -6 189 -38 185 -73 c 0
 180 -116 184 -159 179 -201 c 0
 174 -244 172 -293 166 -337 c 0
 165 -341 165 -345 165 -348 c 0
 165 -353 166 -358 166 -363 c 0
 166 -385 136 -396 114 -404 c 0
 107 -407 95 -411 89 -411 c 0
 85 -411 83 -396 82 -377 c 0
 80 -349 80 -311 80 -299 c 0
 80 -272 84 -244 86 -217 c 0
 88 -187 87 -157 88 -127 c 0
 90 -82 99 -38 99 7 c 0
 99 36 95 62 92 89 c 0
 86 143 94 209 65 237 c 0
 46 256 30 274 15 297 c 0
 10 305 5 314 5 323 c 0
EndSplineSet
EndChar

StartChar: uniA787
Encoding: 42887 42887 74
Width: 526
VWidth: 0
Flags: HMW
LayerCount: 2
Back
SplineSet
-8 330 m 0
 -8 339 -2 353 5 358 c 0
 22 372 43 379 67 379 c 0
 115 379 151 364 205 364 c 0
 236 364 262 356 292 356 c 0
 309 356 325 359 342 362 c 0
 361 365 379 368 396 376 c 0
 415 384 434 396 460 396 c 0
 470 396 481 394 491 391 c 0
 494 390 496 383 496 376 c 0
 496 369 494 363 491 363 c 0
 462 363 447 351 429 340 c 0
 418 334 407 329 395 325 c 0
 376 319 356 318 336 314 c 0
 313 310 292 303 269 299 c 0
 254 297 238 296 222 295 c 1
 221 291 219 286 218 282 c 0
 211 261 208 241 208 216 c 0
 208 171 223 141 241 110 c 0
 250 95 262 78 285 78 c 0
 302 78 317 86 328 94 c 0
 348 109 364 122 381 138 c 0
 390 147 404 156 413 166 c 0
 416 170 420 172 425 172 c 0
 430 172 442 166 444 158 c 1
 452 153 460 146 467 140 c 0
 475 133 485 123 485 110 c 0
 485 99 478 91 473 84 c 0
 458 63 444 39 423 24 c 0
 419 21 415 19 410 19 c 0
 397 19 389 32 382 39 c 0
 375 46 366 51 360 58 c 1
 349 46 337 36 323 29 c 0
 310 22 295 18 282 12 c 0
 259 1 238 -21 205 -21 c 0
 184 -21 170 -12 157 -0 c 0
 140 16 128 36 120 58 c 0
 111 86 110 114 110 144 c 0
 110 165 111 187 118 207 c 0
 125 227 136 245 147 263 c 0
 153 273 157 284 161 295 c 1
 99 295 44 304 -3 320 c 0
 -7 321 -8 325 -8 330 c 0
EndSplineSet
Fore
SplineSet
-8 330 m 0
 -8 339 -2 353 5 358 c 0
 22 372 43 379 67 379 c 0
 107 379 138 364 179 364 c 2
 205 364 l 2
 236 364 262 356 292 356 c 0
 309 356 325 359 342 362 c 0
 361 365 379 368 396 376 c 0
 415 384 434 396 460 396 c 0
 470 396 481 394 491 391 c 0
 494 390 496 383 496 376 c 0
 496 369 494 363 491 363 c 2
 486 363 l 2
 461 363 444 351 429 340 c 0
 418.895774363 332.590234533 407 328 395 324 c 0
 376 318 356 318 336 314 c 0
 313 310 292 303 269 299 c 0
 264 298 259 298 254 297 c 0
 226 294 221 296 215 271 c 0
 211 254 208 237 208 216 c 0
 208 171 223 141 241 110 c 0
 250 95 262 78 285 78 c 0
 302 78 317 86 328 94 c 0
 348 109 364 122 381 138 c 0
 390 147 404 156 413 166 c 0
 416 170 420 172 425 172 c 0
 430 172 442 166 444 158 c 1
 452 153 460 146 467 140 c 0
 475 133 485 123 485 110 c 0
 485 99 479 90 474 83 c 0
 459 62 444 39 423 24 c 0
 419 21 415 19 410 19 c 0
 397 19 385 31 378 38 c 0
 371 45 365 51 360 58 c 1
 349 46 337 36 323 29 c 0
 310 22 295 18 282 12 c 0
 259 1 238 -21 205 -21 c 0
 184 -21 170 -12 157 -0 c 0
 140 16 128 36 120 58 c 0
 111 86 110 114 110 144 c 0
 110 165 111 187 118 207 c 0
 125 227 135 245 147 263 c 0
 150 268 153 273 153 278 c 3
 153 287 146 295 128 296 c 0
 80 299 36 307 -3 320 c 0
 -7 321 -8 325 -8 330 c 0
EndSplineSet
Substitution2: "Single Substitution talt4-1" t.alt4
Substitution2: "Single Substitution talt5-1" t.alt5
Substitution2: "Single Substitution talt3-1" t.alt3
Substitution2: "Single Substitution talt2-1" t.alt2
Substitution2: "Single Substitution talt1-1" t.alt1
EndChar

StartChar: uniA783
Encoding: 42883 42883 75
Width: 535
VWidth: 0
Flags: HMW
AnchorPoint: "Above" 280 450 basechar 0
LayerCount: 2
Fore
SplineSet
4.6494140625 316.405273438 m 0
 4.6494140625 359.222792668 103.961387547 359.15870794 128.745117188 381.388671875 c 0
 135.806640625 387.719726562 144.665039062 393.686523438 152.672851562 393.686523438 c 0
 190.65810743 393.686523438 161.688221275 301.958007812 187 301.958007812 c 3
 191.443359375 301.958007812 197.575195312 303.965820312 206 306.427734375 c 0
 247.815429688 318.64453125 277.828125 344.040039062 312 363 c 0
 323.626953125 369.451171875 341.532226562 374.4296875 358.1015625 374.4296875 c 0
 384.41796875 374.4296875 399.297851562 361.9296875 407 334 c 0
 419.029296875 290.380859375 422.251953125 301.775390625 422.251953125 256.909179688 c 0
 422.251953125 229.841125608 420.901367188 204.594546762 420.901367188 177.33203125 c 0
 420.901367188 140.448242188 429.581054688 95.4208984375 458.440429688 95.4208984375 c 0
 466.124023438 95.4208984375 475.23828125 98.61328125 486 106 c 0
 505.630859375 119.475585938 524.612304688 136.768554688 537.15234375 158 c 0
 541.602539062 165.534179688 545.575195312 167.96484375 549 167.96484375 c 0
 554.607421875 167.688476562 558.314453125 159.482421875 558.314453125 150 c 3
 558.314453125 143.942382812 556.716796875 137.36328125 553.071289062 132 c 0
 512.997070312 73.0419921875 478.704101562 -14.0859375 381.2109375 -14.0859375 c 0
 336.84765625 -14.0859375 318.938476562 25.98828125 318.938476562 68.08203125 c 0
 318.938476562 98.2021484375 324.770507812 138.370117188 333 166 c 0
 335.763671875 175.27734375 338.731445312 184.545898438 338.731445312 194.786132812 c 0
 338.731445312 213.517574207 337.176997961 244.351233229 331 258.434586196 c 0
 325.438336101 271.114997663 317.023455373 281 299.090820312 281 c 0
 279.013671875 280.981445312 263.903320312 273.387695312 250 266 c 0
 221.604492188 250.911132812 194.6328125 226.333984375 194.6328125 187 c 3
 194.6328125 134.606445312 200.067382812 80.376953125 200.067382812 26.814453125 c 0
 200.067382812 -46.26171875 189.90234375 -113.774414062 189.90234375 -189.9921875 c 0
 189.90234375 -208.515037519 185.078125 -227.506938748 185.078125 -240.627929688 c 0
 185.078125 -247.02734375 187.586914062 -252.451171875 196.186523438 -256.71484375 c 0
 201.28125 -259.240234375 203.481445312 -262.670898438 203.481445312 -266.716796875 c 0
 203.481445312 -289.79296875 138.921875 -332.868164062 125 -342 c 0
 120.849609375 -344.721679688 107.46875 -347.305664062 102.3125 -347.305664062 c 0
 97.5849609375 -347.305664062 93.8876953125 -345.1328125 93.8876953125 -338.90234375 c 0
 93.8876953125 -323.259020104 94.998046875 -305.36780188 94.998046875 -287.416015625 c 0
 94.998046875 -269.045898438 98.701171875 -251.504882812 98.701171875 -232.96484375 c 0
 98.701171875 -211.854492188 93.0908203125 -194.986328125 93.0908203125 -173.43359375 c 0
 93.0908203125 -129.083007812 107.625 -91.3984375 107.625 -48.94921875 c 0
 107.625 -21.4130821172 102.024414062 3.92429636594 102.024414062 32.1337890625 c 0
 102.024414062 128.544673825 95.7027508662 247.720387915 33.9736328125 282.829101562 c 0
 23.1220703125 289.000976562 4.6494140625 302.953125 4.6494140625 316.405273438 c 0
EndSplineSet
Substitution2: "'ss18' Style Set 18 in Latin lookup 17-1" uniA783.alt
Substitution2: "'ss17' Style Set 17 in Latin lookup 18-1" uniA783.swash
Substitution2: "'salt' Stylistic Alternatives in Latin lookup 4-1" uniA783.alt
Substitution2: "'swsh' Swash in Latin lookup 3-1" uniA783.swash
Substitution2: "Single Substitution Randoms-1" uniA783.alt
EndChar

StartChar: A
Encoding: 65 65 76
Width: 534
VWidth: 0
Flags: HMW
AnchorPoint: "Above" 280 570 basechar 0
LayerCount: 2
Back
SplineSet
31 -23 m 0
 22 -23 15 -15 15 -3 c 0
 15 9 22 18 25 24 c 0
 50 81 57 154 72 220 c 0
 98 329 132 436 162 545 c 0
 164 551 166 558 166 563 c 0
 166 571 162 576 152 579 c 0
 141 582 130 585 119 588 c 0
 110 590 104 598 104 605 c 0
 104 612 110 616 117 616 c 0
 120 616 125 615 127 615 c 0
 141 613 156 611 172 611 c 0
 188 611 213 612 230 612 c 0
 246 612 281 611 297 611 c 0
 317 611 338 610 338 584 c 0
 338 580 338 576 338 573 c 0
 338 542 348 515 356 488 c 0
 376 423 390 359 412 297 c 0
 436 228 455 159 477 90 c 0
 485 65 495 41 517 33 c 0
 521 32 555 26 555 12 c 0
 555 2 546 -4 537 -4 c 0
 527 -4 515 0 507 0 c 0
 494 0 480 -2 465 -2 c 0
 451 -2 418 0 404 0 c 0
 389 0 362 -9 340 -9 c 0
 327 -9 308 -4 308 12 c 3
 308 22 323 22 333 26 c 0
 346 32 364 41 364 60 c 0
 364 83 354 106 349 128 c 0
 337 182 325 222 311 273 c 0
 308 285 302 291 290 291 c 0
 284 291 278 290 271 290 c 0
 234 290 196 294 163 300 c 0
 161 300 159 301 157 301 c 0
 150 301 147 298 144 287 c 0
 139 266 137 257 132 237 c 0
 123 201 111 170 111 131 c 0
 111 91 129 61 155 45 c 0
 166 38 172 31 172 22 c 0
 172 11 157 -7 138 -7 c 0
 126 -7 118 0 108 0 c 0
 87 0 66 0 57 -10 c 0
 52 -15 42 -23 31 -23 c 0
161 350 m 0
 161 349 160 347 160 346 c 0
 160 340 164 335 172 334 c 0
 204 329 241 326 277 326 c 0
 288 326 290 332 290 340 c 0
 290 343 290 346 289 349 c 0
 283 377 279 396 273 419 c 0
 261 461 257 510 235 540 c 0
 229 548 224 551 221 551 c 0
 219 551 215 550 213 540 c 0
 197 475 177 414 161 350 c 0
31 -23 m 0
 22 -23 15 -15 15 -3 c 0
 15 9 22 18 25 24 c 0
 50 81 57 154 72 220 c 0
 98 329 132 436 162 545 c 0
 164 551 166 558 166 563 c 0
 166 571 162 576 152 579 c 0
 141 582 130 585 119 588 c 0
 110 590 104 598 104 605 c 0
 104 612 110 616 117 616 c 0
 120 616 125 615 127 615 c 0
 141 613 156 611 172 611 c 0
 188 611 213 612 230 612 c 0
 246 612 281 611 297 611 c 0
 317 611 338 610 338 584 c 0
 338 580 338 576 338 573 c 0
 338 542 348 515 356 488 c 0
 376 423 390 359 412 297 c 0
 436 228 455 159 477 90 c 0
 485 65 495 41 517 33 c 0
 521 32 555 29 555 12 c 0
 555 2 546 -4 537 -4 c 0
 527 -4 515 0 507 0 c 0
 494 0 480 -2 465 -2 c 0
 451 -2 418 0 404 0 c 0
 389 0 362 -9 340 -9 c 0
 328 -9 316 -6 310 5 c 0
 301 22 333 26 333 26 c 1
 351 36 364 37 364 60 c 0
 364 83 354 106 349 128 c 0
 337 182 325 222 311 273 c 0
 308 285 302 291 290 291 c 0
 284 291 278 290 271 290 c 0
 234 290 196 294 163 300 c 0
 161 300 159 301 157 301 c 0
 150 301 147 298 144 287 c 0
 139 266 137 257 132 237 c 0
 123 201 111 170 111 131 c 0
 111 91 129 61 155 45 c 0
 166 38 172 31 172 22 c 0
 172 11 157 -7 138 -7 c 0
 126 -7 118 0 108 0 c 0
 87 0 66 0 57 -10 c 0
 52 -15 42 -23 31 -23 c 0
161 350 m 0
 161 349 160 347 160 346 c 0
 160 340 164 335 172 334 c 0
 204 329 241 326 277 326 c 0
 288 326 290 332 290 340 c 0
 290 343 290 346 289 349 c 0
 283 377 279 396 273 419 c 0
 261 461 257 510 235 540 c 0
 229 548 224 551 221 551 c 0
 219 551 215 550 213 540 c 0
 197 475 177 414 161 350 c 0
EndSplineSet
Fore
SplineSet
18 -3 m 0
 18 9 22.1283094988 17.9375422752 25 24 c 0
 52 81 57 154 72 220 c 0
 98 329 132 436 162 545 c 0
 164 551 166 558 166 563 c 0
 166 571 162 576 152 579 c 0
 141 582 130 585 119 588 c 0
 110 590 104 598 104 605 c 0
 104 612 110 616 117 616 c 0
 120 616 125 615 127 615 c 0
 141 613 156 611 172 611 c 0
 188 611 213 612 230 612 c 0
 246 612 281 611 297 611 c 0
 317 611 338 610 338 584 c 0
 338 580 338 576 338 573 c 0
 338 542 348 515 356 488 c 0
 376 423 390 359 412 297 c 0
 436 228 454 159 476 90 c 0
 484 65 494 36 517 33 c 0
 534 31 555 26 555 12 c 0
 555 2 546 -4 537 -4 c 0
 527 -4 515 0 507 0 c 0
 494 0 480 -2 465 -2 c 0
 451 -2 418 0 404 0 c 0
 389 0 362 -9 340 -9 c 0
 327 -9 308 -4 308 12 c 3
 308 22 323 22 333 26 c 0
 346 32 364 41 364 60 c 0
 364 83 354 106 349 128 c 0
 337 182 325 222 311 273 c 0
 308 285 302 291 290 291 c 0
 284 291 278 290 271 290 c 0
 234 290 196 294 163 300 c 0
 161 300 159 301 157 301 c 0
 150 301 147 298 144 287 c 0
 139 266 137 257 132 237 c 0
 123 201 111 170 111 131 c 0
 111 91 129 61 155 45 c 0
 166 38 172 31 172 22 c 0
 172 11 157 -7 138 -7 c 0
 126 -7 118 0 108 0 c 0
 87 0 66 0 57 -10 c 0
 52 -15 42 -23 31 -23 c 0
 22 -23 18 -15 18 -3 c 0
160 346 m 0
 160 340 164 335 172 334 c 0
 204 329 241 326 277 326 c 0
 288 326 290 332 290 340 c 0
 290 343 290 346 289 349 c 0
 283 377 279 396 273 419 c 0
 261 461 257 510 235 540 c 0
 229 548 224 551 221 551 c 0
 219 551 215 550 213 540 c 0
 197 475 177 414 161 350 c 0
 161 349 160 347 160 346 c 0
EndSplineSet
Substitution2: "'ss18' Style Set 18 in Latin lookup 17-1" A.alt
Substitution2: "'salt' Stylistic Alternatives in Latin lookup 4-1" A.alt
Substitution2: "'ss20' Style Set 20 in Latin lookup 4-1" A.alt
EndChar

StartChar: B
Encoding: 66 66 77
Width: 485
VWidth: 0
Flags: HMW
AnchorPoint: "Above" 265 570 basechar 0
LayerCount: 2
Fore
SplineSet
184 269 m 3
 184 255 185 239 185 226 c 0
 185 203 185 149 185 126 c 0
 187 109 189 86 189 72 c 3
 189 57 206 32 230 32 c 3
 269 32 306 51 319 70 c 0
 335 93 351 142 351 173 c 0
 351 204 334 254 315 273 c 0
 306 282 297 291 282 296 c 0
 264 302 250 307 234 307 c 3
 223 307 213 305 201 300 c 0
 187 294 184 291 184 269 c 3
6 619 m 3
 6 625 12 631 25 631 c 0
 42 631 56 626 70 624 c 0
 89 621 123 620 152 620 c 0
 186 620 202 636 245 636 c 0
 332 636 442 609 442 502 c 0
 442 465 425 426 415 406 c 0
 406 390 397 374 385 361 c 0
 380 355 377 350 377 345 c 3
 377 338 382 332 392 327 c 0
 444 303 485 260 485 201 c 0
 485 125 446 71 403 38 c 0
 361 7 300 -7 226 -7 c 0
 212 -7 199 -6 188 -5 c 0
 175 -4 166 -3 159 3 c 0
 150 10 141 16 134 16 c 0
 119 16 114 0 85 0 c 0
 71 0 60 5 56 5 c 0
 54 5 45 0 33 0 c 0
 18 0 11 13 11 21 c 0
 11 37 22 42 41 47 c 0
 77 56 82 58 82 100 c 0
 82 116 84 152 84 166 c 0
 84 200 77 234 77 273 c 0
 77 327 81 380 81 432 c 0
 81 435 80 438 80 441 c 0
 80 470 86 512 86 534 c 0
 86 540 85 549 85 558 c 0
 85 579 76 585 62 589 c 0
 49 592 36 595 23 599 c 0
 13 602 6 612 6 619 c 3
189 365 m 2
 189 346 197 342 211 342 c 0
 219 342 227 344 240 344 c 0
 250 344 279 349 286 357 c 0
 304 378 320 426 320 459 c 0
 320 490 305 533 288 552 c 0
 271 571 253 584 228 584 c 0
 222 584 215 583 207 581 c 0
 194 578 189 571 189 554 c 3
 189 550 190 545 190 541 c 0
 190 532 190 522 190 513 c 0
 190 489 189 443 189 420 c 2
 189 365 l 2
EndSplineSet
EndChar

StartChar: C
Encoding: 67 67 78
Width: 549
VWidth: 0
Flags: HMW
AnchorPoint: "Above" 286 570 basechar 0
LayerCount: 2
Fore
SplineSet
20 327 m 0
 20 409 57 460 88 508 c 0
 117 552 166 583 218 605 c 0
 247 618 286 624 324 624 c 0
 352 624 380 621 406 614 c 0
 418 611 436 610 454 609 c 0
 470 608 479 607 491 607 c 0
 502 607 517 603 517 583 c 2
 517 572 l 1
 516 562 516 553 516 543 c 0
 516 508 519 493 527 464 c 0
 527 462 528 460 528 459 c 3
 528 449 518 446 505 441 c 0
 501 440 497 439 494 439 c 3
 488 439 483 443 481 450 c 0
 475 477 457 501 442 528 c 0
 422 565 364 592 296 592 c 0
 273 592 257 586 241 579 c 0
 210 565 186 545 169 523 c 0
 166 519 155 484 154 480 c 0
 145 445 138 386 138 343 c 0
 138 317 141 277 147 254 c 0
 164 190 187 119 230 82 c 0
 255 60 264 42 301 33 c 0
 315 30 329 28 344 28 c 0
 357 28 368 29 378 32 c 0
 438 48 458 109 485 168 c 0
 489 178 489 208 513 208 c 0
 524 208 529 199 529 186 c 0
 529 146 515 121 515 94 c 0
 515 72 525 68 525 37 c 0
 525 22 523 5 512 -8 c 0
 511 -9 506 -37 483 -37 c 0
 473 -37 466.598162805 -30.3345214379 460 -22 c 0
 441 2 447 11 432 11 c 0
 417 11 405 8 391 3 c 0
 370 -4 346 -15 311 -15 c 0
 297 -15 284.098190865 -13.2781931794 272 -12 c 0
 258.655681517 -10.5901514483 242.733197378 -10 226 -10 c 0
 211 -10 196 -4 187 9 c 0
 177 22 156 25 133 43 c 0
 91 77 70.4020721981 128.144301455 53 176 c 0
 37 220 20 267 20 327 c 0
EndSplineSet
Substitution2: "'ss18' Style Set 18 in Latin lookup 17-1" C.alt
Substitution2: "'salt' Stylistic Alternatives in Latin lookup 4-1" C.alt
Substitution2: "'ss20' Style Set 20 in Latin lookup 4-1" C.alt
EndChar

StartChar: D
Encoding: 68 68 79
Width: 590
VWidth: 0
Flags: HMW
AnchorPoint: "Above" 289 570 basechar 0
LayerCount: 2
Fore
SplineSet
10 19 m 0
 10 35 20.8020416558 38.6672337933 40 44 c 0
 76 54 81 56 81 96 c 0
 81 112 82 147 82 161 c 0
 82 194 76 228 76 266 c 0
 76 319 79 371 79 422 c 0
 79 440 81 493 81 514 c 0
 81 556 76 558 40 566 c 0
 20.5496106194 570.322308751 10 575 10 591 c 0
 10 599 16 612 31 612 c 0
 43 612 52 607 54 607 c 0
 58 607 70 612 84 612 c 0
 113 612 125 602 140 602 c 0
 151 602 164 614 194 614 c 0
 221 614 249 617 279 617 c 0
 318 617 355 610 384 598 c 0
 436 576 487.810727833 545.871743496 517 503 c 0
 549 456 582 406 582 326 c 0
 582 268 567 223 552 179 c 0
 535 132 511 81 469 48 c 0
 446 31 426 27 416 15 c 0
 407 3 392 -4 377 -4 c 0
 369 -4 363 -3 353 0 c 1
 335 -5 315 -9 292 -9 c 0
 249 -9 231 -4 194 -4 c 0
 164 -4 151 14 140 14 c 0
 125 14 113 -2 84 -2 c 0
 70 -2 58 3 54 3 c 0
 52 3 43 -2 31 -2 c 0
 16 -2 10 11 10 19 c 0
181 211 m 0
 181 184 189 137 192 109 c 0
 196 73 193 54 207 45 c 0
 219 38 237 33 258 33 c 0
 286 33 314 41 336 51 c 1
 347 62 359 75 373 87 c 0
 416 123 438 193 455 255 c 0
 461 277 464 316 464 342 c 0
 464 384 458 441 449 476 c 0
 447 482 439 493 437 507 c 0
 435 516 437 515 434 519 c 0
 417 541 393 560 362 573 c 0
 346 581 328 586 306 586 c 0
 275 586 246 580 222 571 c 0
 221 571 221 570 220 570 c 0
 215 568 210 565 205 563 c 0
 193 551 190 502 190 469 c 0
 190 434 191 399 191 361 c 0
 191 310 181 255 181 211 c 0
EndSplineSet
Substitution2: "'ss18' Style Set 18 in Latin lookup 17-1" D.alt
Substitution2: "'salt' Stylistic Alternatives in Latin lookup 4-1" D.alt
Substitution2: "'ss20' Style Set 20 in Latin lookup 4-1" D.alt
EndChar

StartChar: E
Encoding: 69 69 80
Width: 404
VWidth: 0
Flags: HMW
AnchorPoint: "Above" 211 570 basechar 0
LayerCount: 2
Fore
SplineSet
1 589 m 0
 1 606 15 615 26 615 c 0
 41 615 63 608 82 608 c 0
 113 608 132 604 163 604 c 0
 183 604 206 604 225 604 c 0
 247 604 267 608 295 608 c 2
 318 608 l 2
 323 608 330 610 340 610 c 0
 368 610 371 582 371 565 c 3
 371 542 366 492 336 492 c 0
 320 492 305 507 301 511 c 0
 288 526 282 543 270 558 c 0
 268 559 250 561 237 561 c 0
 218 561 195 559 176 559 c 0
 173 559 172 553 172 546 c 0
 172 523 182 500 182 469 c 0
 182 440 179 414 179 386 c 3
 179 357 185 352 215 352 c 3
 247 352 271 353 293 363 c 0
 298 365 320 382 341 382 c 0
 367 382 368 352 368 344 c 0
 368 322 374 313 374 290 c 0
 374 267 346 253 327 253 c 0
 300 253 299 278 299 293 c 0
 299 308 297 311 287 311 c 0
 262 311 243 304 217 304 c 0
 193 304 185 302 185 287 c 3
 185 284 186 280 186 276 c 0
 189 243 195 197 195 160 c 0
 195 130 191 104 188 78 c 0
 187 73 186 69 186 65 c 3
 186 59 189 55 200 55 c 3
 218 55 239 54 255 54 c 0
 294 54 314 62 316 74 c 0
 317 80 325 127 354 127 c 0
 382 127 385 96 385 79 c 0
 385 42 394 35 394 3 c 0
 394 -17 378 -33 353 -33 c 0
 334 -33 328 -27 324 -16 c 0
 320 -5 315 -1 309 -1 c 3
 305 -1 302 -2 298 -2 c 0
 294 -2 289 -3 284 -3 c 0
 265 -3 247 0 232 0 c 2
 187 0 l 2
 169 0 153 -1 142 -4 c 0
 113 -12 89 -7 75 -16 c 0
 68 -21 62 -23 54 -23 c 0
 42 -23 30 -14 30 -1 c 0
 30 21 61 29 66 46 c 0
 69 56 69 68 70 82 c 0
 73 116 81 146 81 181 c 0
 81 233 72 288 68 340 c 0
 65 382 62 425 62 469 c 0
 62 501 65 532 65 563 c 3
 65 574 51 582 43 582 c 3
 31 582 31 566 20 566 c 0
 10 566 1 574 1 589 c 0
EndSplineSet
Substitution2: "'ss18' Style Set 18 in Latin lookup 17-1" E.alt
Substitution2: "'salt' Stylistic Alternatives in Latin lookup 4-1" E.alt
EndChar

StartChar: F
Encoding: 70 70 81
Width: 404
VWidth: 0
Flags: HMW
AnchorPoint: "Above" 211 570 basechar 0
LayerCount: 2
Fore
SplineSet
-10 589 m 0
 -10 606 7 615 20 615 c 0
 38 615 63 608 82 608 c 0
 113 608 132 604 163 604 c 2
 225 604 l 2
 247 604 267 608 295 608 c 0
 315 608 320 610 340 610 c 0
 368 610 371 582 371 565 c 3
 371 542 366 492 336 492 c 0
 320 492 305 507 301 511 c 0
 286 526 282 543 270 558 c 0
 268 559 250 561 237 561 c 0
 218 561 195 559 176 559 c 3
 173 559 172 553 172 546 c 0
 172 523 182 500 182 469 c 0
 182 449 179 423 179 405 c 2
 179 386 l 2
 179 357 185 352 215 352 c 3
 247 352 270 353 293 363 c 0
 298 365 320 382 341 382 c 0
 367 382 368 352 368 344 c 2
 368 323 l 2
 368 304 374 303 374 290 c 0
 374 267 346 253 327 253 c 0
 300 253 299 278 299 293 c 0
 299 308 297 311 287 311 c 0
 262 311 243 304 217 304 c 0
 193 304 185 302 185 287 c 3
 185 284 186 280 186 276 c 0
 189 243 193 205 195 160 c 24
 196 140 195 124 197 109 c 0
 201 73 198 54 212 45 c 0
 222 39 242 40 242 20 c 0
 242 5 224 -6 199 -6 c 0
 169 -6 151 14 140 14 c 0
 125 14 113 -2 84 -2 c 0
 70 -2 58 3 54 3 c 0
 52 3 43 -2 31 -2 c 0
 16 -2 10 11 10 19 c 0
 10 35 20.8020416558 38.6672337933 40 44 c 0
 76 54 81 56 81 96 c 2
 81 181 l 2
 81 233 72 288 68 340 c 0
 65 382 62 425 62 469 c 0
 62 501 65 532 65 563 c 3
 65 574 50 582 40 582 c 3
 26 582 26 566 13 566 c 0
 2 566 -10 574 -10 589 c 0
EndSplineSet
Substitution2: "'ss18' Style Set 18 in Latin lookup 17-1" F.alt
Substitution2: "'salt' Stylistic Alternatives in Latin lookup 4-1" F.alt
Substitution2: "'ss20' Style Set 20 in Latin lookup 4-1" F.alt
EndChar

StartChar: G
Encoding: 71 71 82
Width: 462
VWidth: 0
Flags: HMW
AnchorPoint: "Above" 248 570 basechar 0
LayerCount: 2
Fore
SplineSet
-1 -2 m 0
 -1 16 22 18 34 18 c 0
 52 18 68 28 70 35 c 0
 77 59 82 103 82 131 c 0
 82 190 77 256 77 318 c 0
 77 364 80 403 80 448 c 0
 80 470 79 510 77 527 c 2
 73 566 l 2
 71 582 49 588 34 591 c 0
 32 592 30 593 30 596 c 3
 30 609 49 612 67 612 c 3
 76 612 84 611 89 611 c 0
 106 611 122 610 138 610 c 0
 160 610 182 612 207 612 c 0
 218 612 243 611 253 611 c 1
 263 614 291 615 301 615 c 0
 318 615 337 614 352 614 c 0
 364 614 375 617 389 617 c 0
 414 617 415 600 415 585 c 3
 415 572 411 553 411 548 c 0
 411 528 422 510 422 493 c 0
 422 483 413 478 406 478 c 0
 397 478 390 482 385 487 c 0
 372 499 353 512 343 534 c 0
 334 552 330 564 317 571 c 0
 303 579 244 581 218 581 c 2
 202 581 l 2
 190 581 179 579 179 568 c 2
 179 522 l 2
 179 478 173 416 173 372 c 0
 173 358 190 357 209 356 c 0
 248 353 299 353 333 353 c 3
 345 353 356 356 366 356 c 0
 375 356 385 355 392 355 c 0
 396 355 402 357 410 357 c 0
 424 357 428 344 428 337 c 0
 428 321 412 308 412 300 c 3
 412 273 417 244 417 215 c 0
 417 193 421 174 421 150 c 0
 421 141 420 133 420 125 c 0
 420 108 424 79 424 58 c 0
 424 34 457 50 457 22 c 0
 457 0 423 -1 401 -1 c 0
 396 -1 390 0 387 -0 c 0
 362 0 348 10 329 10 c 0
 301 10 241 0 205 0 c 0
 185 0 163 3 147 3 c 0
 115 3 71 -1 43 -8 c 0
 38.9013303439 -9.36622321871 24.2963923813 -13 12 -13 c 3
 5 -13 -1 -12 -1 -2 c 0
173 298 m 3
 173 291 174 282 174 273 c 0
 174 214 182 159 182 101 c 2
 182 66 l 2
 182 46 185 44 204 38 c 0
 215 35 226 32 236 32 c 0
 252 32 288 37 308 38 c 0
 346 39 349 107 349 153 c 0
 349 196 346 236 345 282 c 0
 344 314 342 315 313 317 c 0
 306 318 298 318 290 318 c 0
 269 318 216 315 192 315 c 0
 176 315 173 308 173 298 c 3
EndSplineSet
EndChar

StartChar: H
Encoding: 72 72 83
Width: 509
Flags: HMW
HStem: -254 21G<175.5 224> -4 21G<111 131> 296 39<319.5 334>
VStem: 20 150<279 400.5> 95 94<46.5 50.5> 130 93<-197 -141> 443 80<162 179>
LayerCount: 2
Fore
SplineSet
13 396 m 0xf2
 13 405 18 412 25 417 c 0
 48 433 51 449 63 478 c 0
 73 502 73 531 85 554 c 0
 91 566 98 575 101 581 c 0
 103 587 111 610 128 610 c 0
 162 610 167 555 167 528 c 0
 167 489 158 462 158 430 c 0
 158 407 163 383 163 355 c 0
 163 339 162 324 162 309 c 0
 162 301 162 293 163 285 c 0
 163 273 166 267 171 267 c 0
 176 267 183 271 193 279 c 0xf2
 232 309 278 335 347 335 c 0
 399 335 433 317 459 296 c 0
 488 272 516 239 516 187 c 0
 516 137 493 99 469 72 c 0
 451 50 446 26 417 9 c 0
 391 -5 375 -13 356 -30 c 0
 327 -55 294 -72 267 -97 c 0
 255 -108 243 -118 229 -128 c 0
 221 -133 216 -140 216 -142 c 0
 216 -157 259 -166 292 -173 c 0
 301 -175 306 -181 306 -188 c 0
 306 -193 304 -199 299 -204 c 0
 264 -239 241 -254 193 -254 c 0
 144 -254 123 -215 123 -179 c 0
 123 -146 142 -136 155 -123 c 0xe6
 179 -100 212 -81 239 -64 c 0
 274 -42 304 -13 338 10 c 0
 375 35 397 54 416 94 c 0
 427 117 436 139 436 164 c 0
 436 194 430 223 406 250 c 0
 377 285 353 296 301 296 c 0
 260 296 235 275 214 253 c 0
 207 247 201 240 195 233 c 0
 181 216 177 206 177 186 c 0
 177 179 177 172 178 162 c 0
 181 125 182 87 182 53 c 0
 182 40 176 22 158 16 c 0
 146 12 132 -4 116 -4 c 0
 92 -4 88 20 88 45 c 0
 88 56 89 68 89 77 c 0
 89 138 78 194 72 255 c 0
 69.2521453186 282.936522594 67 311 66 338 c 0xea
 65.5543205895 350.033344085 44 369 29 374 c 0
 20 378 13 386 13 396 c 0xf2
EndSplineSet
Substitution2: "'ss17' Style Set 17 in Latin lookup 18-1" H.alt
Substitution2: "'ss18' Style Set 18 in Latin lookup 17-1" H.alt
Substitution2: "'swsh' Swash in Latin lookup 3-1" H.alt
Substitution2: "'salt' Stylistic Alternatives in Latin lookup 4-1" H.alt
Substitution2: "'ss20' Style Set 20 in Latin lookup 4-1" H.alt
EndChar

StartChar: I
Encoding: 73 73 84
Width: 266
VWidth: 0
Flags: HMW
AnchorPoint: "Above" 132 570 basechar 0
LayerCount: 2
Fore
SplineSet
10 19 m 0
 10 35 20.6700476249 39.1675119062 40 44 c 0
 76 53 81 55 81 96 c 0
 81 112 82 147 82 161 c 0
 82 194 76 228 76 266 c 0
 76 319 79 371 79 422 c 0
 79 440 81 493 81 514 c 0
 81 551 76 556 40 565 c 0
 20.6700476249 569.832488094 10 575 10 591 c 0
 10 599 16 612 31 612 c 0
 43 612 52 607 54 607 c 0
 58 607 70 612 84 612 c 0
 113 612 125 602 140 602 c 0
 151 602 164 616 194 616 c 0
 219 616 237 606 237 591 c 0
 237 571 217 571 207 565 c 0
 194 557 190 504 190 469 c 0
 190 434 191 399 191 361 c 0
 191 310 181 255 181 211 c 0
 181 184 187 137 191 109 c 0
 195.53515625 77.2548828125 201.850220267 43.3832599109 217 41 c 0
 227.313470464 39.3775552429 237 34.4470346168 237 20 c 0
 237 5 219 -6 194 -6 c 0
 164 -6 151 14 140 14 c 0
 125 14 113 -2 84 -2 c 0
 70 -2 58 3 54 3 c 0
 52 3 43 -2 31 -2 c 0
 16 -2 10 11 10 19 c 0
EndSplineSet
Substitution2: "'ss18' Style Set 18 in Latin lookup 17-1" I.alt
Substitution2: "'salt' Stylistic Alternatives in Latin lookup 4-1" I.alt
Substitution2: "'ss20' Style Set 20 in Latin lookup 4-1" I.alt
EndChar

StartChar: J
Encoding: 74 74 85
Width: 268
VWidth: 0
Flags: HMW
AnchorPoint: "Above" 147 570 basechar 0
LayerCount: 2
Fore
SplineSet
10 591 m 0
 10 599 16 612 31 612 c 0
 43 612 52 607 54 607 c 0
 58 607 70 612 84 612 c 0
 113 612 125 602 140 602 c 0
 151 602 164 616 194 616 c 0
 219 616 237 606 237 591 c 0
 237 571 217 571 207 565 c 0
 194 557 190 504 190 469 c 0
 190 434 191 399 191 361 c 0
 191 310 181 255 181 211 c 0
 181 160 185 160 185 130 c 3
 185 97 181 59 177 24 c 0
 172 -19 175 -62 170 -104 c 0
 154 -236 124 -251 31 -304 c 0
 28 -306 21 -307 19 -307 c 0
 15 -307 13 -303 13 -298 c 0
 13 -289 31 -264 51 -226 c 0
 66 -197 68 -151 68 -120 c 0
 68 -90 69 -60 70 -30 c 0
 71 12 80 54 81 96 c 1
 81 96 l 1
 81 112 82 147 82 161 c 0
 82 194 76 228 76 266 c 0
 76 319 79 371 79 422 c 0
 79 440 81 493 81 514 c 0
 81 556 77 558 40 566 c 0
 21 570 10 576 10 591 c 0
EndSplineSet
Substitution2: "'ss16' Style Set 16 in Latin lookup 20-1" I
Substitution2: "'hist' Historical Forms in Latin lookup 2-1" I
EndChar

StartChar: K
Encoding: 75 75 86
Width: 560
VWidth: 0
Flags: HMW
AnchorPoint: "Above" 279 570 basechar 0
LayerCount: 2
Fore
SplineSet
10 19 m 0
 10 35 20.8020416558 38.6672337933 40 44 c 0
 76 54 81 56 81 96 c 0
 81 112 82 147 82 161 c 0
 82 194 76 228 76 266 c 0
 76 319 79 371 79 422 c 0
 79 440 81 493 81 514 c 0
 81 557 77.1333534931 558.182451896 40 566 c 0
 21 570 10 575 10 591 c 0
 10 599 16 612 31 612 c 0
 43 612 52 607 54 607 c 0
 58 607 70 612 84 612 c 0
 113 612 125 602 140 602 c 0
 151 602 164 616 194 616 c 0
 219 616 237 606 237 591 c 0
 237 571 217 571 207 565 c 0
 194 557 190 504 190 469 c 0
 190 434 191 399 191 361 c 0
 191 357 189 335 189 327 c 3
 189 320 191 318 194 318 c 3
 197 318 202 321 206 325 c 0
 227 342 241 368 250 380 c 0
 292 436 311 471 359 538 c 0
 362 542 363 546 363 549 c 3
 363 554 359 558 349 560 c 0
 328 564 308 573 308 589 c 0
 308 597 315 610 329 610 c 0
 341 610 349 605 351 605 c 0
 355 605 367 610 380 610 c 0
 394 610 404 606 412 602 c 1
 431 613 443 616 483 616 c 0
 505 616 527 604 527 588 c 0
 527 567 513 558 495 555 c 0
 465 550 438 556 419 528 c 0
 378 467 365 440 320 385 c 0
 301 362 298 357 284 341 c 1
 301 309 337 262 364 220 c 0
 403 160 400 155 425 119 c 0
 450 83 477 32 545 32 c 0
 553 32 558 22 558 16 c 0
 558 9 552 -5 536 -5 c 0
 497 -5 417 0 381 0 c 0
 369 0 360 16 360 30 c 0
 360 37 354 40 352 45 c 0
 310 132 277 197 222 266 c 0
 219 269 202 269 195 269 c 3
 183 269 181 249 181 232 c 2
 181 211 l 2
 181 184 189 137 192 109 c 0
 196 73 193 54 207 45 c 0
 217 39 237 40 237 20 c 0
 237 5 219 -6 194 -6 c 0
 164 -6 151 14 140 14 c 0
 125 14 113 -2 84 -2 c 0
 70 -2 58 3 54 3 c 0
 52 3 43 -2 31 -2 c 0
 16 -2 10 11 10 19 c 0
EndSplineSet
EndChar

StartChar: L
Encoding: 76 76 87
Width: 416
VWidth: 0
Flags: HMW
AnchorPoint: "Above" 245 570 basechar 0
LayerCount: 2
Fore
SplineSet
10 591 m 0
 10 599 16 612 31 612 c 0
 43 612 52 607 54 607 c 0
 58 607 70 612 84 612 c 0
 113 612 125 602 140 602 c 0
 151 602 164 616 194 616 c 0
 219 616 237 606 237 591 c 0
 237 571 217 571 207 565 c 0
 199 560 197 536 197 511 c 0
 197 497 198 482 198 469 c 0
 198 449 195 423 195 405 c 0
 195 291 211 249 211 155 c 2
 211 141 l 2
 211 118 207 99 204 79 c 0
 203 72 203 66 203 62 c 3
 203 51 209 50 233 50 c 3
 248 50 259 49 271 49 c 0
 310 49 352 57 352 69 c 0
 352 75 357 122 380 122 c 3
 400 122 401 91 401 74 c 2
 401 51 l 2
 401 32 410 23 410 -2 c 0
 410 -22 398 -38 379 -38 c 3
 365 -38 361 -26 359 -15 c 0
 357 -5 355 -1 341 -1 c 3
 336 -1 329 -2 324 -2 c 0
 315 -3 306 -3 300 -3 c 0
 281 -3 263 0 248 0 c 2
 203 0 l 2
 185 0 169 -1 158 -4 c 0
 129 -12 105 -12 91 -21 c 0
 84 -26 78 -28 70 -28 c 0
 58 -28 46 -19 46 -6 c 0
 46 16 77 24 82 41 c 0
 85 51 85 63 86 77 c 0
 89 111 97 141 97 176 c 0
 97 228 88 283 84 335 c 0
 81 377 78 425 78 469 c 0
 78 487 81 493 81 514 c 0
 81 556 77 558 40 566 c 0
 21 570 10 575 10 591 c 0
EndSplineSet
EndChar

StartChar: M
Encoding: 77 77 88
Width: 745
VWidth: 0
Flags: HMW
AnchorPoint: "Above" 394 570 basechar 0
LayerCount: 2
Fore
SplineSet
-13 587 m 0
 -13 594 -6 602 10 603 c 0
 50 603 80 596 118 596 c 0
 130 596 140 591 140 579 c 0
 140 572 145 567 149 563 c 0
 194 508 220 439 262 381 c 0
 278 359 309 309 338 266 c 0
 350 248 360 238 368 238 c 3
 376 238 384 246 396 264 c 0
 470 376 527 469 598 584 c 1
 599 584 l 1
 611 600 627 606 638 609 c 0
 648 612 662 616 692 616 c 0
 717 616 735 606 735 591 c 0
 735 571 714 572 705 565 c 0
 694 557 693 499 693 464 c 3
 693 429 689 399 689 361 c 0
 689 310 679 255 679 211 c 0
 679 186 684 137 687 109 c 0
 691 73 691 54 705 45 c 0
 715 39 735 40 735 20 c 0
 735 5 717 -6 692 -6 c 0
 662 -6 649 14 638 14 c 0
 623 14 611 -2 582 -2 c 0
 568 -2 556 3 552 3 c 0
 550 3 542 -2 530 -2 c 0
 515 -2 508 11 508 19 c 0
 508 35 518.802041656 38.6672337933 538 44 c 0
 574 54 579 56 579 96 c 0
 579 112 581 147 581 161 c 0
 581 194 574 228 574 266 c 0
 574 319 576 345 576 396 c 0
 577 415 573 426 567 426 c 3
 563 426 557 421 550 410 c 0
 506 338 475 285 420 195 c 0
 395 154 361 98 341 98 c 3
 329 98 319 115 313 126 c 0
 285 179 278 199 243 251 c 0
 222 283 204 321 180 351 c 0
 175 357 169 364 164 372 c 0
 157 382 149 387 142 387 c 3
 134 387 127 377 126 358 c 0
 123 321 119 284 119 243 c 0
 119 198 121 141 126 97 c 0
 129 71 136 46 157 33 c 0
 162 30 176 19 176 10 c 0
 176 0 158 -2 145 -2 c 0
 131 -2 106 0 92 0 c 0
 81 0 72 -2 61 -2 c 0
 45 -2 40 4 40 12 c 0
 40 27 55 50 56 63 c 0
 61 200 77 340 77 478 c 0
 77 494 77 511 75 526 c 0
 72 555 61 564 40 571 c 0
 29 575 17 576 1 576 c 0
 -7 576 -13 581 -13 587 c 0
EndSplineSet
EndChar

StartChar: N
Encoding: 78 78 89
Width: 546
VWidth: 0
Flags: HMW
AnchorPoint: "Above" 283 570 basechar 0
LayerCount: 2
Fore
SplineSet
10 587 m 3
 10 594 17 602 33 603 c 0
 39 603 46 602 52 602 c 0
 85 600 108 596 141 596 c 0
 153 596 163 591 163 579 c 3
 163 572 168 567 172 563 c 0
 217 508 263 453 314 403 c 0
 337 380 354 355 377 334 c 0
 383 328 389 325 394 325 c 3
 401 325 405 334 405 352 c 3
 405 412 400 470 398 529 c 0
 397 551 392 562 373 571 c 0
 354 579 345 585 330 590 c 0
 320 593 315 598 315 601 c 3
 315 604 320 608 329 608 c 0
 344 608 356 609 371 609 c 3
 395 609 427 606 451 606 c 3
 472 606 487 608 506 608 c 3
 511 608 520 608 524 607 c 0
 530 606 535 604 535 600 c 3
 535 596 530 592 520 588 c 0
 513 585 505 583 498 580 c 0
 474 571 469 565 467 535 c 0
 464 491 460 446 460 400 c 0
 460 350 467 303 467 255 c 2
 467 153 l 2
 467 127 469 75 475 54 c 0
 478 45 482 34 482 24 c 0
 482 10 474 -11 455 -11 c 0
 439 -11 424 14 419 25 c 0
 389 84 378 133 347 184 c 0
 333 207 301 251 281 271 c 0
 255 298 240 335 211 360 c 0
 205 366 198 372 191 378 c 0
 183 385 174 388 166 388 c 3
 157 388 150 381 149 365 c 0
 145 326 142 279 142 236 c 0
 142 191 144 141 149 97 c 0
 152 71 159 45 180 33 c 0
 186 30 199 19 199 10 c 0
 199 1 181 -2 168 -2 c 0
 154 -2 129 0 115 0 c 0
 104 0 95 -2 84 -2 c 0
 69 -2 63 11 63 19 c 3
 63 34 78 50 79 63 c 0
 84 200 100 340 100 478 c 0
 100 494 100 511 98 526 c 0
 96 546 93 555 80 563 c 0
 64 573 48 576 24 576 c 3
 16 576 10 581 10 587 c 3
EndSplineSet
EndChar

StartChar: O
Encoding: 79 79 90
Width: 565
VWidth: 0
Flags: HMW
AnchorPoint: "Above" 277 570 basechar 0
LayerCount: 2
Fore
SplineSet
4 444 m 0
 4 451 7 460 14 465 c 0
 21 471 28 478 37 484 c 0
 47 491 56 500 68 506 c 0
 84 514 85 516 97 530 c 0
 124 561 162 580 199 599 c 0
 227 613 254 627 297 627 c 0
 414 627 487 573 523 496 c 0
 543 454 551 408 556 364 c 0
 558 345 560 326 560 307 c 0
 560 265 550 231 542 197 c 0
 532 154 526 99 497 65 c 0
 488 55 478 47 469 38 c 0
 462 31 444 13 426 13 c 0
 408 13 406 12 393 4 c 0
 374 -8 350 -22 319 -22 c 0
 299 -22 280 -16 263 -10 c 0
 222 3 184 18 156 48 c 0
 128 79 98 116 85 162 c 0
 80 181 78 201 75 219 c 0
 73 235 71 251 71 268 c 0
 71 282 73 295 73 307 c 2
 73 339 l 2
 73 343 73 344 69 353 c 0
 63 365 58 379 54 392 c 0
 48 413 51 423 24 424 c 0
 11 425 4 434 4 444 c 0
145 479 m 0
 145 474 146 468 148 459 c 0
 151 447 157 435 159 420 c 0
 163 398 162 383 168 370 c 0
 171 363 176 352 176 341 c 0
 176 325 171 320 171 308 c 0
 171 300 169 292 169 285 c 0
 169 264 177 242 181 219 c 0
 188 181 202 149 222 123 c 0
 249 86 283 56 326 38 c 0
 337 33 349 30 360 30 c 0
 384 30 380 42 400 61 c 0
 441 100 459 179 459 264 c 0
 459 368 424 459 370 508 c 0
 353 524 336 528 317 542 c 0
 302 554 289 572 267 572 c 0
 217 572 179 546 155 513 c 0
 147 502 145 487 145 479 c 0
EndSplineSet
Substitution2: "'ss18' Style Set 18 in Latin lookup 17-1" O.alt
Substitution2: "'salt' Stylistic Alternatives in Latin lookup 4-1" O.alt
Substitution2: "'ss20' Style Set 20 in Latin lookup 4-1" O.alt
EndChar

StartChar: P
Encoding: 80 80 91
Width: 452
VWidth: 0
Flags: HMW
AnchorPoint: "Above" 273 570 basechar 0
LayerCount: 2
Fore
SplineSet
6 602 m 3
 6 606 6 610 9 613 c 0
 12 616 19 616 25 616 c 0
 42 616 57 612 71 610 c 0
 90 607 121 606 150 606 c 0
 184 606 209 621 252 621 c 0
 301 621 359 614 399 588 c 0
 430 567 449 540 449 491 c 3
 449 449 440 415 427 393 c 0
 415 372 400 350 381 334 c 0
 364 320 332 300 300 292 c 0
 274 285 250 282 227 282 c 2
 211 282 l 2
 190 282 188 280 184 252 c 0
 182 240 181 231 181 211 c 0
 181 184 189 137 192 109 c 0
 196 73 193 54 207 45 c 0
 217 39 237 40 237 20 c 0
 237 5 219 -6 194 -6 c 0
 164 -6 151 14 140 14 c 0
 125 14 113 -2 84 -2 c 0
 70 -2 58 3 54 3 c 0
 52 3 43 -2 31 -2 c 0
 16 -2 10 11 10 19 c 0
 10 35 21 39 40 44 c 0
 76 53 81 55 81 96 c 0
 81 112 82 147 82 161 c 0
 82 194 76 228 76 266 c 0
 76 322 79 376 79 430 c 0
 79 458 85 500 85 522 c 0
 85 528 84 536 84 545 c 3
 84 565 80 574 66 574 c 3
 48 574 31 581 14 588 c 0
 9 590 6 596 6 602 c 3
195 349 m 3
 195 323 208 318 218 318 c 3
 260 318 287 334 301 355 c 0
 323 387 326 406 326 453 c 3
 326 480 311 519 294 538 c 0
 277 557 259 575 234 575 c 0
 228 575 223 575 216 573 c 0
 196 568 196 559 196 544 c 3
 196 533 197 522 197 511 c 0
 197 489 195 429 195 408 c 0
 195 398 196 389 196 379 c 0
 196 369 195 359 195 349 c 3
EndSplineSet
Substitution2: "'ss18' Style Set 18 in Latin lookup 17-1" P.alt
Substitution2: "'salt' Stylistic Alternatives in Latin lookup 4-1" P.alt
Substitution2: "'ss20' Style Set 20 in Latin lookup 4-1" P.alt
EndChar

StartChar: Q
Encoding: 81 81 92
Width: 583
VWidth: 0
Flags: HMW
AnchorPoint: "Above" 287 570 basechar 0
LayerCount: 2
Fore
SplineSet
144 479 m 0
 144 459 156 440 159 420 c 0
 163 398 162 383 168 370 c 0
 171 363 176 352 176 341 c 0
 176 325 171 320 171 308 c 0
 171 300 169 292 169 285 c 0
 169 264 177 242 181 219 c 0
 188 181 202 149 222 123 c 0
 249 86 283 56 326 38 c 0
 337 33 349 30 360 30 c 0
 384 30 380 42 400 61 c 0
 441 100 459 179 459 264 c 0
 459 368 424 459 370 508 c 0
 353 524 336 528 317 542 c 0
 302 554 289 572 267 572 c 0
 217 572 179 546 155 513 c 0
 147 502 144 487 144 479 c 0
4 444 m 0
 4 468 39 485 54 497 c 0
 58 500 63 504 68 506 c 0
 84 514 85 516 97 530 c 0
 124 561 162 580 199 599 c 0
 227 613 254 627 297 627 c 0
 486 627 560 489 560 307 c 0
 560 265 550 231 542 197 c 0
 532 154 526 99 497 65 c 0
 488 55 478 47 469 38 c 0
 465 34 459 27 451 21 c 0
 440 14 436 6 436 -1 c 3
 436 -5 438 -8 440 -11 c 2
 563 -142 l 2
 593 -174 618 -195 668 -195 c 0
 716 -195 751 -150 770 -135 c 1
 772 -135 l 2
 776 -135 784 -140 784 -144 c 3
 784 -145 784 -145 783 -146 c 2
 727 -207 l 1
 690 -237 666 -256 607 -256 c 0
 568 -256 530 -236 495 -198 c 2
 349 -38 l 2
 335 -23 333 -24 306 -21 c 0
 291 -19 276 -14 263 -10 c 0
 222 3 184 18 156 48 c 0
 128 79 98 116 85 162 c 0
 76 195 71 231 71 268 c 0
 71 282 73 295 73 307 c 0
 73 311 72 314 72 319 c 0
 72 329 73 336 73 339 c 0
 73 343 73 344 69 353 c 0
 63 366 57 380 53 394 c 0
 46 418 48 419 22 425 c 0
 12 427 4 432 4 444 c 0
EndSplineSet
EndChar

StartChar: R
Encoding: 82 82 93
Width: 586
VWidth: 0
Flags: HMW
AnchorPoint: "Above" 291 570 basechar 0
LayerCount: 2
Fore
SplineSet
4 604 m 3
 4 610 8 615 15 616 c 0
 18 616 21 616 24 616 c 0
 41 616 56 612 70 610 c 0
 89 607 121 606 150 606 c 0
 184 606 209 621 252 621 c 0
 339 621 449 596 449 501 c 0
 449 468 432 434 422 416 c 0
 399.215443007 379.194177166 367.904660379 349.907225423 323 331 c 0
 315 327 311 322 311 317 c 3
 311 312 312 307 316 304 c 0
 330 292 342 277 351 268 c 0
 363 254 375 246 387 231 c 0
 407 207 427 173 435 141 c 0
 446 99 463 60 511 60 c 0
 545 60 586 84 611 102 c 0
 621 109 630 118 637 127 c 0
 643 135 649 137 653 137 c 3
 659 137 663 130 663 122 c 3
 663 115 661 106 655 98 c 0
 624 54 574 28 527 15 c 0
 517 12 507 10 496 10 c 0
 417 10 376 79 352 120 c 0
 324.100566701 167.661531885 286 211 254 259 c 0
 244 275 237 286 228 295 c 0
 218 305 210 309 203 309 c 3
 181.328332685 309 181 237.431599063 181 211 c 0
 181 184 189 137 192 109 c 0
 196 73 193 54 207 45 c 0
 217 39 237 40 237 20 c 0
 237 5 219 -6 194 -6 c 0
 164 -6 151 14 140 14 c 0
 125 14 113 -2 84 -2 c 0
 70 -2 58 3 54 3 c 0
 52 3 43 -2 31 -2 c 0
 16 -2 10 11 10 19 c 0
 10 35 20.5496106194 39.6776912487 40 44 c 0
 76 52 81 54 81 96 c 0
 81 112 82 147 82 161 c 0
 82 194 76 228 76 266 c 0
 76 319 79 371 79 422 c 2
 79 430 l 2
 79 458 85 500 85 522 c 0
 85 528 84 536 84 545 c 3
 84 560 80 570 61 574 c 0
 45 578 29 582 13 588 c 0
 7 590 4 598 4 604 c 3
195 359 m 2
 195 348 197 341 210 341 c 3
 218 341 228 343 235 345 c 0
 264 352 286 362 298 379 c 0
 312 400 326 436 326 463 c 0
 326 490 311 519 294 538 c 0
 277 557 259 575 234 575 c 0
 230 575 226 575 222 574 c 0
 196 570 196 567 196 537 c 3
 196 528 197 520 197 511 c 0
 197 489 195 449 195 428 c 0
 195 418 196 409 196 399 c 0
 196 390 195 381 195 373 c 2
 195 359 l 2
EndSplineSet
EndChar

StartChar: S
Encoding: 83 83 94
Width: 400
VWidth: 0
Flags: HMW
AnchorPoint: "Above" 177 570 basechar 0
LayerCount: 2
Back
SplineSet
19 510 m 0
 19 573 62 612 127 622 c 0
 140 624 153 625 167 625 c 0
 203 625 231 614 255 605 c 0
 262 602 270 598 278 598 c 3
 289 598 280 624 311 624 c 3
 323 624 335 593 335 576 c 3
 335 559 327 557 326 542 c 0
 324 521 324 506 324 487 c 3
 324 463 313 452 297 452 c 0
 283 452 274 461 274 483 c 0
 274 492 276 498 276 500 c 3
 276 524 237 551 210 566 c 0
 186 579 172 591 147 591 c 0
 118 591 114 572 114 557 c 0
 114 514 153 473 184 443 c 0
 234 395 276 341 312 290 c 0
 340 251 380 198 380 129 c 0
 380 79 349 47 319 26 c 0
 312 21 306 17 299 13 c 0
 280 0 249 -22 204 -22 c 0
 162 -22 138 -8 108 -8 c 0
 82 -8 66 -14 56 -25 c 0
 52 -30 48 -32 44 -32 c 3
 37 -32 33 -25 33 -15 c 3
 33 -11 33 -7 35 -3 c 0
 47 27 63 46 63 79 c 0
 63 83 60 99 60 113 c 0
 60 118 60 147 82 147 c 3
 97 147 110 132 118 119 c 0
 131 99 128 102 142 90 c 0
 151 82 160 74 167 62 c 0
 179 43 194 31 227 31 c 0
 251 31 274 37 287 47 c 0
 300 57 308 79 308 97 c 0
 308 114 299 134 287 151 c 0
 266 179 249 203 223 224 c 0
 185 254 155 286 124 321 c 0
 86 365 52 406 29 463 c 0
 23 477 19 493 19 510 c 0
EndSplineSet
Fore
SplineSet
19 510 m 0
 19 573 62 612 127 622 c 0
 140 624 153 625 167 625 c 0
 203 625 230 614 254 604 c 0
 261.029944405 601.070856498 270 598 278 598 c 3
 289 598 280 624 311 624 c 3
 323 624 335 593 335 576 c 3
 335 559 327 557 326 542 c 0
 324 521 324 506 324 487 c 3
 324 463 313 452 297 452 c 0
 283 452 274 461 274 483 c 0
 274 492 276 498 276 500 c 3
 276 524 237 551 210 566 c 0
 186 579 172 591 147 591 c 0
 118 591 114 572 114 557 c 0
 114 514 153 473 184 443 c 0
 234 395 278 342 314 291 c 0
 342 252 380 198 380 129 c 0
 380 79 348.782226562 47.6396484375 320 25 c 0
 292.337890625 3.2412109375 259.576869401 -22 204 -22 c 0
 162 -22 138 -8 108 -8 c 0
 82 -8 66 -14 56 -25 c 0
 52 -30 48 -32 44 -32 c 3
 37 -32 33 -25 33 -15 c 3
 33 -11 33 -7 35 -3 c 0
 47 27 63 46 63 79 c 0
 63 83 60 99 60 113 c 0
 60 118 60 147 82 147 c 3
 97 147 109 132 118 119 c 0
 125 109 130 99 142 90 c 0
 152 83 160 74 167 62 c 0
 179 43 194 31 227 31 c 0
 251 31 274 37 287 47 c 0
 300 57 308 79 308 97 c 0
 308 114 299 134 287 151 c 0
 266 179 249 203 223 224 c 0
 185 254 155 286 124 321 c 0
 86 365 52 406 29 463 c 0
 23 477 19 493 19 510 c 0
EndSplineSet
Substitution2: "'ss18' Style Set 18 in Latin lookup 17-1" S.alt
Substitution2: "'salt' Stylistic Alternatives in Latin lookup 4-1" S.alt
Substitution2: "'ss20' Style Set 20 in Latin lookup 4-1" S.alt
EndChar

StartChar: T
Encoding: 84 84 95
Width: 490
VWidth: 0
Flags: HMW
AnchorPoint: "Above" 229 570 basechar 0
LayerCount: 2
Fore
SplineSet
-9 620 m 0
 -9 630 7 643 21 643 c 0
 46 643 42 606 72 606 c 0
 87 606 98 610 113 610 c 0
 132 610 151 608 171 608 c 0
 224 608 315 611 367 611 c 0
 388 611 406 607 424 607 c 0
 447 607 465 619 482 626 c 1
 488 621 l 1
 477 590 475 545 472 504 c 0
 471 486 467 479 462 479 c 3
 455 479 445 495 439 506 c 0
 419 544 395 573 332 573 c 0
 306 573 289 569 286 555 c 0
 281 532 277 511 277 481 c 0
 277 434 282 389 285 344 c 0
 291 252 284 158 304 77 c 0
 309 56 316 35 326 16 c 0
 329 11 330 6 330 3 c 3
 330 -3 325 -7 315 -7 c 3
 312 -7 309 -6 306 -6 c 0
 280 -2 243 0 223 0 c 3
 209 0 182 -3 162 -4 c 0
 159 -4 157 -5 155 -5 c 3
 147 -5 144 -3 144 2 c 3
 144 4 145 8 146 12 c 0
 156 45 173 74 173 118 c 2
 173 135 l 2
 173 194 184 252 184 313 c 0
 184 357 182 404 182 448 c 0
 182 488 177 519 169 551 c 0
 164 570 161 571 137 571 c 0
 74 571 60 533 36 497 c 0
 30 489 24 484 19 484 c 3
 14 484 10 489 10 499 c 3
 10 502 11 505 11 508 c 0
 13 522 14 535 14 551 c 0
 14 580 5 598 -7 614 c 0
 -8 616 -9 618 -9 620 c 0
EndSplineSet
Substitution2: "'ss18' Style Set 18 in Latin lookup 17-1" T.alt
Substitution2: "'salt' Stylistic Alternatives in Latin lookup 4-1" T.alt
Substitution2: "'ss20' Style Set 20 in Latin lookup 4-1" T.alt
EndChar

StartChar: U
Encoding: 85 85 96
Width: 696
Flags: HMW
AnchorPoint: "Above" 346 570 basechar 0
LayerCount: 2
Fore
SplineSet
46 587 m 0
 46 595 54 608 72 608 c 0
 87 608 97 603 99 603 c 0
 103 603 118 607 135 607 c 0
 170 607 184 598 202 598 c 0
 215 598 224 612 256 612 c 0
 267 612 271 597 271 577 c 3
 271 541 253 535 233 507 c 0
 224 494 221 483 219 476 c 0
 209 441 201 376 201 339 c 0
 201 307 204 273 211 250 c 0
 231 186 232 115 273 78 c 0
 291 62 300 45 322 35 c 0
 337 28 352 23 372 23 c 0
 384 23 407 30 420 39 c 0
 437 51 458 62 476 76 c 0
 498 93 506 101 506 132 c 3
 506 146 505 161 504 174 c 0
 500 237 497 288 497 311 c 3
 497 379 490 468 488 527 c 0
 487 549 482 561 463 570 c 0
 445 578 436 584 421 589 c 0
 412 592 407 597 407 600 c 0
 407 603 411 606 420 606 c 0
 434 606 447 608 461 608 c 0
 484 608 559 605 588 605 c 0
 613 605 627 607 645 607 c 0
 650 607 657 607 661 606 c 0
 667 605 672 603 672 599 c 0
 672 595 666 591 657 587 c 0
 650 584 644 581 637 578 c 0
 614 569 609 564 607 534 c 0
 603 490 601 445 601 399 c 0
 601 349 608 262 608 214 c 0
 608 179 607 147 607 112 c 0
 607 86 609 54 612 47 c 0
 622 22 663 13 663 3 c 0
 663 -11 654 -31 631 -31 c 3
 609 -31 522 -27 513 -16 c 0
 500 0 503 25 488 25 c 0
 470 25 430 4 417 -1 c 0
 396 -8 373 -20 340 -20 c 0
 318 -20 308 -17 291 -11 c 1
 263 -11 251 -10 231 5 c 0
 218 14 221 21 194 39 c 0
 144 73 119 124 99 172 c 0
 81 216 59 262 59 322 c 0
 59 380 76 411 96 437 c 0
 107 451 131 487 131 510 c 0
 131 552 125.922932507 553.014012271 82 561 c 0
 60 565 46 571 46 587 c 0
EndSplineSet
EndChar

StartChar: V
Encoding: 86 86 97
Width: 574
VWidth: 0
Flags: HMW
AnchorPoint: "Above" 309 570 basechar 0
LayerCount: 2
Fore
SplineSet
0 585 m 3
 0 592 8 608 23 608 c 3
 28 608 49 609 54 609 c 3
 87 609 117 607 157 607 c 3
 168 607 173 600 173 590 c 0
 173 583 175 575 177 570 c 0
 206 510 237 449 272 393 c 0
 281 379 306 328 326 292 c 0
 329 287 333 284 337 284 c 3
 341 284 346 287 348 292 c 0
 386 390 416 462 448 565 c 0
 450 570 451 574 451 581 c 3
 451 612 505 614 536 614 c 3
 546 614 565 605 565 590 c 3
 565 577 549 570 544 570 c 0
 499 568 492 532 481 496 c 24
 472 465 470 445 460 417 c 0
 452 394 442 374 435 360 c 0
 420 328 415 297 403 266 c 0
 388 228 382 164 374 124 c 0
 369 100 361 54 361 30 c 3
 361 6 358 -36 336 -36 c 3
 318 -36 310 -8 307 4 c 0
 292 66 292 116 274 171 c 0
 266 196 246 243 233 266 c 0
 215 297 211 332 188 364 c 0
 178 378 158 394 145 417 c 0
 120 464 115 519 75 551 c 24
 54 568 38 569 10 573 c 0
 3 574 0 579 0 585 c 3
EndSplineSet
EndChar

StartChar: W
Encoding: 87 87 98
Width: 798
VWidth: 0
Flags: HMW
AnchorPoint: "Above" 425 570 basechar 0
LayerCount: 2
Fore
SplineSet
0 585 m 0
 0 592 8 608 23 608 c 0
 28 608 49 609 54 609 c 0
 87 609 117 607 157 607 c 0
 168 607 173 600 173 590 c 0
 173 583 175 575 177 570 c 0
 206 510 237 449 272 393 c 0
 281 379 306 328 326 292 c 0
 329 287 333 284 337 284 c 0
 341 284 346 287 348 292 c 0
 362 329 375 362 388 395 c 1
 383 402 377 409 373 417 c 0
 348 464 342 519 302 551 c 0
 281 568 265 569 237 573 c 0
 230 574 227 579 227 585 c 0
 227 592 235 608 250 608 c 0
 255 608 276 609 281 609 c 0
 314 609 344 607 384 607 c 0
 395 607 400 600 400 590 c 0
 400 583 403 575 405 570 c 0
 414 552 422 533 431 515 c 1
 436 531 442 547 448 565 c 0
 450 570 451 574 451 581 c 0
 451 612 505 614 536 614 c 0
 546 614 565 605 565 590 c 0
 565 577 549 570 544 570 c 0
 499 568 492 532 481 496 c 0
 475 476 473 460 469 444 c 1
 479 427 488 410 499 393 c 0
 508 379 533 328 553 292 c 0
 556 287 560 284 564 284 c 0
 568 284 573 287 575 292 c 0
 613 390 643 462 675 565 c 0
 677 570 678 574 678 581 c 0
 678 612 732 614 763 614 c 0
 773 614 792 605 792 590 c 0
 792 577 776 570 771 570 c 0
 726 568 719 532 708 496 c 0
 699 465 698 445 688 417 c 0
 680 394 669 374 662 360 c 0
 647 328 643 297 631 266 c 0
 616 228 609 164 601 124 c 0
 596 100 588 54 588 30 c 0
 588 6 585 -36 563 -36 c 0
 545 -36 537 -8 534 4 c 0
 519 66 519 116 501 171 c 0
 493 196 473 243 460 266 c 0
 446 290 441 317 428 343 c 1
 418 317 413 291 403 266 c 0
 388 228 382 164 374 124 c 0
 369 100 361 54 361 30 c 0
 361 6 358 -36 336 -36 c 0
 318 -36 310 -8 307 4 c 0
 292 66 292 116 274 171 c 0
 266 196 246 243 233 266 c 0
 215 297 211 332 188 364 c 0
 178 378 158 394 145 417 c 0
 120 464 115 519 75 551 c 0
 54 568 38 569 10 573 c 0
 3 574 0 579 0 585 c 0
EndSplineSet
Substitution2: "'ss16' Style Set 16 in Latin lookup 20-1" uni01F7
Substitution2: "'hist' Historical Forms in Latin lookup 2-1" uni01F7
EndChar

StartChar: X
Encoding: 88 88 99
Width: 566
VWidth: 0
Flags: HMW
AnchorPoint: "Above" 296 570 basechar 0
LayerCount: 2
Fore
SplineSet
17 597 m 0
 17 604 21 612 34 613 c 0
 66 613 141 606 171 606 c 0
 181 606 188 592 188 578 c 0
 188 571 191 567 194 563 c 0
 230 508 236 505 269 447 c 0
 278 431 282 426 291 414 c 0
 298 404 304 400 310 400 c 3
 316 400 322 404 327 412 c 0
 353 453 376 482 408 536 c 0
 410 540 412 544 412 547 c 3
 412 554 407 559 399 561 c 0
 382 565 368 574 368 589 c 0
 368 597 373 610 385 610 c 0
 395 610 402 605 403 605 c 3
 406 605 416 610 427 610 c 0
 432 610 436 609 440 608 c 0
 446 606 450 605 453 605 c 3
 458 605 460 606 469 610 c 0
 479 614 490 616 512 616 c 0
 530 616 549 604 549 588 c 0
 549 566 533 556 517 554 c 0
 505 553 474 548 460 528 c 0
 422 476 406 440 369 385 c 0
 359.301229147 369.481966635 341 339.379124388 341 324 c 3
 341 316 344 307 350 294 c 0
 361 269 373 241 389 212 c 0
 421 152 422 155 443 119 c 0
 464 83 487 32 543 32 c 0
 549 32 553 22 553 16 c 0
 553 9 548 -4 535 -5 c 0
 503 -5 416 1 386 1 c 0
 376 1 368 17 368 31 c 0
 368 38 365 42 362 46 c 0
 326 102 308 150 285 202 c 0
 280 214 274 220 268 220 c 3
 261 220 255 215 248 203 c 0
 229 169 197 128 170 75 c 0
 169 72 168 68 168 64 c 3
 168 58 170 51 180 50 c 0
 197 47 214 40 214 20 c 0
 214 5 200 -6 180 -6 c 0
 156 -6 146 14 137 14 c 0
 125 14 115 -2 92 -2 c 0
 84 -2 79 0 71 0 c 0
 62 0 59 -2 50 -2 c 0
 38 -2 33 11 33 19 c 0
 33 41 56 49 70 53 c 0
 82.1624227974 56.4749779421 104 72 116 90 c 0
 153 147 199 209 234 267 c 0
 241 278 244 287 244 296 c 3
 244 305 240 314 234 325 c 0
 218 354 196 389 179 417 c 0
 168 435 138 465 124 487 c 0
 107 514 95 532 83 553 c 1
 67 571 52 576 27 576 c 0
 21 576 17 591 17 597 c 0
EndSplineSet
EndChar

StartChar: Y
Encoding: 89 89 100
Width: 509
Flags: HMW
HStem: -6 21G<345 372.5> -2 21G<190 203.5 243 264.5> 593 20G<18.5 28.5 472 476 475.5 481> 594 20G<54.5 73>
VStem: 248 99<154 235> 391 115<582.5 596>
LayerCount: 2
Fore
SplineSet
3 590 m 0x5c
 3 597 11 613 26 613 c 0
 31 613 52 614 57 614 c 0
 89 614 120 612 160 612 c 0
 171 612 176 605 176 595 c 0
 176 588 178 580 180 575 c 0x5c
 209 514 204 527 240 471 c 0
 247 459 267 418 286 385 c 0
 294 371 300 365 306 365 c 0
 312 365 317 372 321 384 c 0
 350 459 358 468 388 564 c 0
 390 569 391 573 391 580 c 0
 391 612 441 613 472 613 c 2
 476 613 l 2
 486 613 506 604 506 589 c 0
 506 576 489 570 485 569 c 0
 440 567 433 531 422 495 c 0
 407 447 420 475 403 438 c 0
 388 406 383 375 371 344 c 0
 358 310 347 259 347 211 c 0
 347 184 353 137 357 109 c 0
 361 73 364 55 370 45 c 0
 375.565055709 35.7249071519 403 36 403 20 c 0
 403 4 385 -6 360 -6 c 0xac
 330 -6 317 14 306 14 c 0
 291 14 279 -2 250 -2 c 0
 236 -2 224 3 220 3 c 0
 218 3 210 -2 197 -2 c 0
 183 -2 176 11 176 19 c 0
 176 35 187 39 206 44 c 0
 242 54 247 56 247 96 c 0
 247 112 248 147 248 161 c 0
 248 188 244 217 242 247 c 1
 234 273 214 321 201 344 c 0
 183 375 179 410 156 442 c 0
 146 456 126 472 113 495 c 0
 95 528 82 541 68 554 c 0
 48 572 40 574 13 578 c 0
 6 579 3 585 3 590 c 0x5c
EndSplineSet
EndChar

StartChar: z
Encoding: 122 122 101
Width: 384
Flags: HMW
AnchorPoint: "Above" 210 450 basechar 0
LayerCount: 2
Fore
SplineSet
1 -2 m 0
 1 2 4 7 8 11 c 2
 51 54 l 1
 60 61 70 66 79 71 c 0
 86 76 90 85 94 90 c 0
 134 142 177 199 214 243 c 0
 222 252 226 259 226 264 c 3
 226 271 220 276 204 280 c 0
 188 284 170 288 150 288 c 0
 142 288 134 288 126 288 c 0
 91 288 58 287 21 277 c 0
 11 274 6 278 6 283 c 0
 6 286 8 289 11 292 c 0
 27 309 52 333 64 345 c 0
 73 354 72 353 83 356 c 0
 135 372 177 372 236 372 c 0
 282 372 304 359 335 359 c 0
 349 359 365 365 383 365 c 3
 388 365 390 363 390 360 c 0
 390 357 388 352 384 348 c 2
 320 285 l 1
 286 274 279 269 261 246 c 0
 226 202 202 165 161 117 c 0
 157 112 155 107 155 103 c 3
 155 99 157 97 162 97 c 3
 164 97 166 97 169 98 c 0
 177 100 186 100 196 100 c 0
 232 100 271 55 323 55 c 2
 332 55 l 2
 344 55 365 56 378 62 c 0
 385 65 389 63 389 59 c 0
 389 56 386 51 379 44 c 2
 325 -11 l 1
 312 -26 293 -31 272 -31 c 0
 217 -31 161 15 110 15 c 0
 87 15 57 12 25 -2 c 0
 20 -4 11 -7 7 -7 c 3
 3 -7 1 -5 1 -2 c 0
EndSplineSet
EndChar

StartChar: Z
Encoding: 90 90 102
Width: 488
Flags: HMW
AnchorPoint: "Above" 257 570 basechar 0
LayerCount: 2
Fore
SplineSet
10 7 m 0
 10 10 11 13 13 16 c 0
 145 190 246 371 354 554 c 0
 360 564 363 572 363 577 c 3
 363 584 357 587 342 587 c 3
 327 587 313 587 298 586 c 0
 211 583 106 565 68 488 c 0
 54 459 53 447 47 420 c 1
 40 415 35 409 26 422 c 1
 27 458 30 549 34 596 c 0
 35 610 39 612 58 612 c 2
 443 612 l 2
 471 612 479 608 479 601 c 0
 479 595 473 587 467 579 c 0
 344 406 255 225 144 46 c 0
 141 42 140 39 140 36 c 3
 140 32 144 30 153 30 c 0
 172 30 193 28 214 28 c 0
 281 28 351 35 401 70 c 0
 413 79 430 106 446 152 c 0
 450 158 466 156 469 148 c 0
 466 106 464 66 461 35 c 0
 458 4 453 -1 414 -2 c 2
 367 -3 l 2
 257 -6 120 -2 26 -6 c 1
 25 -6 l 2
 16 -6 10 0 10 7 c 0
EndSplineSet
EndChar

StartChar: period
Encoding: 46 46 104
Width: 259
VWidth: 0
Flags: HMW
LayerCount: 2
Fore
SplineSet
61.396484375 46.3642578125 m 3
 61.396484375 68.6962890625 73.15625 73.5712890625 85.3232421875 87.08984375 c 16
 98.2197265625 101.598632812 111.396484375 130.715820312 134.756835938 130.715820312 c 3
 144.420898438 130.715820312 153.161132812 125.859375 161.323242188 122.407226562 c 0
 172.698242188 117.595703125 185.34765625 111.438476562 194.849609375 103.08984375 c 0
 203.5703125 95.4287109375 209.639648438 85.919921875 209.639648438 73.912109375 c 3
 209.639648438 28.2724609375 190.147460938 0 144 0 c 3
 108.431640625 0 61.396484375 9.4951171875 61.396484375 46.3642578125 c 3
EndSplineSet
EndChar

StartChar: periodcentered
Encoding: 183 183 105
Width: 259
VWidth: 0
Flags: HMW
LayerCount: 2
Fore
SplineSet
61 288 m 3
 61 310 73 315 85 329 c 16
 98 344 112 373 135 373 c 3
 145 373 153 367 161 364 c 0
 172 359 185 353 195 345 c 0
 204 337 210 328 210 316 c 3
 210 270 190 242 144 242 c 3
 108 242 61 251 61 288 c 3
EndSplineSet
EndChar

StartChar: colon
Encoding: 58 58 106
Width: 347
VWidth: 0
Flags: HMW
LayerCount: 2
Fore
SplineSet
81 350 m 0
 81 361 90 375 98 387 c 0
 112 408 134 440 168 440 c 0
 194 440 214 426 230 414 c 0
 244 404 266 388 266 369 c 0
 266 363 264 357 258 350 c 0
 240 330 218 298 183 298 c 0
 153 298 121 317 101 327 c 0
 87 334 81 342 81 350 c 0
86 46 m 3
 86 68 98 73 110 87 c 16
 123 102 136 131 159 131 c 3
 188 131 234 104 234 74 c 3
 234 28 215 0 169 0 c 3
 133 0 86 9 86 46 c 3
EndSplineSet
EndChar

StartChar: comma
Encoding: 44 44 107
Width: 347
VWidth: 0
Flags: HMW
LayerCount: 2
Fore
SplineSet
71.525390625 -246.213867188 m 0
 71.525390625 -238.42578125 74.0556640625 -228.580078125 80.52734375 -217.213867188 c 0
 106.469726562 -171.649414062 131.767578125 -129.213867188 155.767578125 -76.2138671875 c 0
 170.264648438 -44.2001953125 177.356445312 -15.6826171875 190.62890625 15.2177734375 c 0
 192.2109375 18.900390625 192.959960938 22.0625 192.959960938 24.7861328125 c 3
 192.959960938 43.3427734375 161.903320312 41.779296875 150 45 c 0
 132.64453125 49.6962890625 106.497070312 44.435546875 93.4296875 63.0986328125 c 0
 87.087890625 72.1552734375 84.349609375 81.8740234375 84.349609375 91.7861328125 c 3
 84.349609375 116.372070312 97.6904296875 142.112304688 103.38671875 161.782226562 c 0
 107.271484375 175.205078125 114.448242188 195.610351562 134.767578125 195.610351562 c 3
 145.213867188 195.610351562 156.178710938 192.858398438 164.651367188 190.399414062 c 0
 189.752929688 183.116210938 216.747070312 179.8125 237.31640625 150.436523438 c 0
 253.872070312 126.79296875 259.712890625 104.28125 259.712890625 82.7861328125 c 3
 259.712890625 54.49609375 251.532226562 27.8154296875 242.620117188 1.8798828125 c 0
 212.178710938 -86.7060546875 162.474609375 -166.388671875 117.993164062 -242.213867188 c 0
 108.454101562 -258.474609375 96.9453125 -265.594726562 87.767578125 -265.594726562 c 3
 78.544921875 -265.594726562 71.67578125 -258.4609375 71.525390625 -246.213867188 c 0
EndSplineSet
EndChar

StartChar: semicolon
Encoding: 59 59 108
Width: 347
VWidth: 0
Flags: HMW
LayerCount: 2
Back
SplineSet
81.1279296875 349.760742188 m 0
 81.1279296875 360.666992188 90.5966796875 372.014648438 99.9736328125 382.57421875 c 0
 118.103515625 402.990234375 133.692382812 440.392578125 167.53515625 440.392578125 c 0
 193.14453125 440.392578125 211.177734375 423.55078125 227.2265625 411.454101562 c 0
 240.822265625 401.206054688 266.44140625 387.875976562 266.44140625 369.150390625 c 0
 266.44140625 363.336914062 263.97265625 357.005859375 257.911132812 350.083984375 c 0
 240.138671875 329.791992188 218.842773438 298.357421875 183.438476562 298.357421875 c 0
 153.08203125 298.357421875 120.5859375 316.920898438 100.875976562 326.619140625 c 0
 86.3896484375 333.747070312 81.1279296875 341.630859375 81.1279296875 349.760742188 c 0
68.208984375 -272.650390625 m 0
 68.208984375 -264.862304688 70.7392578125 -255.016601562 77.2109375 -243.650390625 c 0
 103.153320312 -198.0859375 128.451171875 -155.650390625 152.451171875 -102.650390625 c 0
 166.948242188 -70.63671875 174.040039062 -42.119140625 187.3125 -11.21875 c 0
 188.89453125 -7.5361328125 189.643554688 -4.3740234375 189.643554688 -1.650390625 c 3
 189.643554688 16.90625 158.586914062 15.3427734375 146.68359375 18.5634765625 c 0
 129.328125 23.259765625 103.180664062 17.9990234375 90.11328125 36.662109375 c 0
 83.771484375 45.71875 81.033203125 55.4375 81.033203125 65.349609375 c 3
 81.033203125 89.935546875 94.3740234375 115.67578125 100.0703125 135.345703125 c 0
 103.955078125 148.768554688 111.131835938 169.173828125 131.451171875 169.173828125 c 3
 141.897460938 169.173828125 152.862304688 166.421875 161.334960938 163.962890625 c 0
 186.436523438 156.6796875 213.430664062 153.375976562 234 124 c 0
 250.555664062 100.356445312 256.396484375 77.8447265625 256.396484375 56.349609375 c 3
 256.396484375 28.0595703125 246.215820312 1.37890625 237.303710938 -24.556640625 c 0
 206.862304688 -113.142578125 159.158203125 -192.825195312 114.676757812 -268.650390625 c 0
 105.137695312 -284.911132812 93.62890625 -292.03125 84.451171875 -292.03125 c 3
 75.228515625 -292.03125 68.359375 -284.897460938 68.208984375 -272.650390625 c 0
EndSplineSet
Fore
SplineSet
81 350 m 0
 81 361 90 375 98 387 c 0
 112 408 134 440 168 440 c 0
 194 440 214 426 230 414 c 0
 244 404 266 388 266 369 c 0
 266 363 264 357 258 350 c 0
 240 330 218 298 183 298 c 0
 153 298 121 317 101 327 c 0
 87 334 81 342 81 350 c 0
68 -273 m 0
 68 -265 71 -255 77 -244 c 0
 103 -198 128 -156 152 -103 c 0
 166 -71 174 -42 187 -11 c 0
 189 -7 190 -5 190 -2 c 3
 190 17 159 16 147 19 c 0
 130 24 103 18 90 37 c 0
 84 46 81 55 81 65 c 3
 81 90 94 115 100 135 c 0
 104 148 111 169 131 169 c 3
 141 169 153 166 161 164 c 0
 186 157 213 153 234 124 c 0
 251 100 256 77 256 56 c 3
 256 28 247 1 238 -25 c 0
 208 -114 159 -193 115 -269 c 0
 105 -285 93 -292 84 -292 c 3
 75 -292 68 -285 68 -273 c 0
EndSplineSet
EndChar

StartChar: bracketleft
Encoding: 91 91 109
Width: 348
VWidth: 2048
Flags: HMW
LayerCount: 2
Fore
SplineSet
121 134 m 0
 121 187 123 254 125 336 c 0
 127 418 128 485 128 538 c 0
 128 559 129 581 132 609 c 0
 135 640 169 669 196 669 c 3
 210 669 253 666 320 659 c 1
 328 657 332 652 332 643 c 0
 332 638 329 634 325 632 c 1
 299 627 255 619 192 608 c 1
 192 586 l 2
 192 534 191 469 189 392 c 0
 187 315 185 251 185 198 c 0
 185 168 185 121 186 56 c 0
 187 -9 187 -55 187 -85 c 1
 208 -88 231 -90 256 -90 c 3
 278 -90 302 -88 327 -86 c 1
 335 -88 339 -92 339 -100 c 0
 339 -114 335 -122 327 -124 c 1
 317 -125 289 -130 244 -139 c 0
 203 -147 177 -151 168 -151 c 0
 147 -151 134 -144 128 -130 c 0
 124 -121 123 -100 123 -68 c 0
 123 -38 123 -4 122 33 c 0
 121 70 121 104 121 134 c 0
EndSplineSet
EndChar

StartChar: bracketright
Encoding: 93 93 110
Width: 276
VWidth: 2048
Flags: HMW
LayerCount: 2
Fore
SplineSet
3 617 m 0
 3 631 7 638 15 640 c 1
 25 641 52 647 98 656 c 0
 139 664 164 667 173 667 c 0
 194 667 207 661 213 647 c 0
 217 638 219 616 219 584 c 0
 219 554 219 521 220 484 c 0
 221 447 220 413 220 383 c 0
 220 331 219 263 217 181 c 0
 215 99 213 31 213 -22 c 0
 213 -44 212 -70 209 -92 c 0
 205 -125 176 -152 146 -152 c 3
 132 -152 90 -149 22 -143 c 1
 14 -141 10 -136 10 -127 c 3
 10 -122 12 -118 16 -115 c 1
 42 -110 86 -101 149 -91 c 1
 149 -70 l 2
 149 -17 151 48 153 125 c 0
 155 202 156 267 156 319 c 0
 156 349 156 396 155 461 c 0
 154 526 154 573 154 602 c 1
 133 605 111 606 86 606 c 3
 64 606 40 605 15 602 c 1
 7 604 3 609 3 617 c 0
EndSplineSet
EndChar

StartChar: zero
Encoding: 48 48 111
Width: 428
VWidth: 0
Flags: MW
LayerCount: 2
Fore
SplineSet
39.2587890625 139.69921875 m 256
 39.2587890625 230.344726562 59.978515625 257.0703125 105.540039062 306.1640625 c 0
 138.87109375 342.083007812 201.2109375 375.25 265.6328125 375.25 c 0
 295.202148438 375.25 315.596679688 370.3203125 326.813476562 360.46484375 c 0
 343.846679688 345.494140625 376.68359375 291.791992188 382.641601562 267.161132812 c 0
 385.190429688 256.625 386.465820312 237.419921875 386.465820312 209.548828125 c 256
 386.465820312 136.484375 353.333984375 83.5166015625 314.067382812 47.4150390625 c 8
 283.931640625 19.7109375 234.973632812 -7.6474609375 187.624023438 -7.6474609375 c 256
 147.095703125 -7.6474609375 118.404296875 -1.1787109375 90.7529296875 25.23828125 c 0
 71.71875 43.4228515625 58.3779296875 59.568359375 50.73046875 73.673828125 c 0
 43.0830078125 87.7783203125 39.2587890625 109.788085938 39.2587890625 139.69921875 c 256
115.225585938 187.624023438 m 256
 115.225585938 116.88671875 141.323242188 70.693359375 185.891601562 51.2392578125 c 0
 207.3046875 41.8916015625 222.599609375 37.21875 231.778320312 37.21875 c 256
 251.338867188 37.21875 276.806640625 53.1318359375 288.21875 66.2802734375 c 0
 302.790039062 83.072265625 317.125976562 116.654296875 317.125976562 148.366210938 c 256
 317.125976562 190.547851562 295.151367188 265.430664062 278.58203125 289.59375 c 0
 264.248046875 310.500976562 240.845703125 326.303710938 213.881835938 326.303710938 c 256
 175.334960938 326.303710938 146.651367188 293.525390625 129.91015625 261.552734375 c 0
 120.120117188 242.857421875 115.225585938 218.21484375 115.225585938 187.624023438 c 256
EndSplineSet
Validated: 1
EndChar

StartChar: one
Encoding: 49 49 112
Width: 259
VWidth: 0
Flags: HMW
LayerCount: 2
Fore
SplineSet
24.47265625 303.87109375 m 0
 24.47265625 311.12890625 28.8349609375 317.908203125 35.4658203125 320.891601562 c 0
 63.8671875 333.678710938 124.786132812 366.245117188 160.694335938 377.643554688 c 0
 172.2109375 381.298828125 183.34375 383.2109375 194.056640625 383.2109375 c 0
 201.407226562 383.2109375 208.4921875 382.840820312 214.3984375 377.776367188 c 0
 224.833007812 368.829101562 222.390625 355.916992188 224.375976562 339.758789062 c 0
 226.78515625 320.138671875 228.018554688 304.37109375 228.018554688 292.143554688 c 0
 228.018554688 280.91015625 226.8515625 268.190429688 224.581054688 253.868164062 c 0
 222.5 240.748046875 220.43359375 215.650390625 218.573242188 179.462890625 c 0
 216.708007812 143.180664062 214.756835938 95.828125 212.716796875 37.3994140625 c 2
 211.005859375 -17.95703125 l 1
 174.6484375 -36.43359375 l 0
 159.631835938 -44.1171875 148.962890625 -48.7490234375 139.500976562 -48.7490234375 c 0
 119.622070312 -48.7490234375 118.374023438 -25.96484375 118.374023438 -14 c 0
 118.374023438 8.091796875 124.276367188 36.26171875 126.026367188 49.2880859375 c 1
 128.921875 69.888671875 131.03515625 121.637695312 132.051757812 203.072265625 c 0
 133.071289062 269.786132812 l 1
 133.071289062 276.182617188 129.618164062 282.487304688 116.758789062 288.767578125 c 0
 102.830078125 295.569335938 92.1103515625 298.458984375 85.4580078125 298.458984375 c 0
 77.75390625 298.458984375 67.9296875 296.696289062 56.205078125 292.83984375 c 0
 49.984375 290.794921875 44.8701171875 289.624023438 40.0009765625 289.624023438 c 0
 33.544921875 289.624023438 24.47265625 294.37109375 24.47265625 303.87109375 c 0
EndSplineSet
EndChar

StartChar: two
Encoding: 50 50 113
Width: 439
VWidth: 0
Flags: HMW
LayerCount: 2
Fore
SplineSet
23 17 m 0
 23 27 39 31 43 32 c 1
 78 40 98 56 128 69 c 0
 138 73 147 80 156 88 c 0
 178 108 192 139 200 172 c 0
 207 199 207 209 207 239 c 0
 207 265 189 285 173 302 c 0
 162 313 131 334 119 334 c 0
 103 334 98 332 73 316 c 0
 62 309 55 305 47 305 c 0
 41 305 34 311 34 318 c 0
 34 325 38 332 45 335 c 0
 71 347 145 388 199 388 c 0
 213 388 229 380 246 368 c 0
 268 352 316 317 316 278 c 0
 316 213 301 184 273 142 c 0
 253 112 215 83 188 69 c 1
 207 66 225 62 246 54 c 0
 274 44 300 39 322 39 c 0
 368 39 394 45 399 51 c 1
 402 54 405 58 411 58 c 0
 425 59 424 44 424 41 c 0
 424 31 419 21 411 15 c 1
 399 6 381 -5 359 -20 c 0
 335 -36 310 -43 277 -43 c 1
 214 -43 189 -43 144 -22 c 0
 126 -13 109 -8 91 -8 c 0
 85 -8 78 -9 70 -9 c 0
 60 -9 23 -6 23 17 c 0
EndSplineSet
EndChar

StartChar: three
Encoding: 51 51 114
Width: 325
VWidth: 0
Flags: HMW
LayerCount: 2
Fore
SplineSet
9 323 m 0
 9 343 34 346 42 350 c 0
 60 359 122 388 152 388 c 0
 188 388 223 358 241 339 c 0
 255 325 263 310 263 294 c 0
 263 237 246 209 223 174 c 0
 215 162 206 150 195 141 c 1
 237 135 267 104 281 75 c 0
 289 58 293 40 293 21 c 0
 293 -33 260 -98 231 -131 c 0
 183 -186 131 -219 45 -232 c 0
 35.76657933 -233.395749636 31.6278782787 -223.055739541 31.6278782787 -217.000000194 c 3
 31.6278782787 -212.207975639 33.6650738342 -207.733970466 38 -206 c 1
 96 -180 112 -173 148 -130 c 0
 174 -100 194 -43 194 10 c 0
 194 38 184 49 165 64 c 0
 155 72 140 76 119 76 c 0
 112 76 95 73 68 67 c 1
 57 67 52 73 52 80 c 3
 52 84 54 89 58 93 c 0
 84 106 113 117 129 135 c 0
 142 149 154 181 160 207 c 0
 163 221 166 238 166 258 c 0
 166 296 145 316 117 329 c 0
 105 335 96 337 93 337 c 0
 78 337 72 334 47 320 c 0
 36 314 30 311 22 311 c 0
 17 311 9 315 9 323 c 0
EndSplineSet
EndChar

StartChar: four
Encoding: 52 52 115
Width: 477
VWidth: 0
Flags: HMW
LayerCount: 2
Fore
SplineSet
-2 -3 m 0
 -2 4 3 9 7 12 c 0
 115 100 210 204 280 321 c 1
 280 349 l 2
 280 374 305 383 336 383 c 0
 349 383 357 383 364 379 c 0
 379 371 380 310 380 293 c 0
 380 280 379 268 377 256 c 0
 371 219 371 93 370 48 c 0
 370 45 370 43 380 44 c 2
 446 48 l 2
 459 49 468 39 468 26 c 0
 468 18 466 4 453 2 c 0
 413 -5 389 -8 378 -10 c 0
 373 -11 370 -12 369 -13 c 0
 367 -57 365 -117 363 -195 c 2
 363 -201 l 1
 325 -220 l 2
 308 -228 296 -232 286 -232 c 0
 265 -232 263 -211 263 -200 c 0
 263 -178 271 -150 271 -144 c 0
 272 -136 272 -93 273 -21 c 1
 273 -19 l 1
 246 -20 225 -19 202 -19 c 0
 144 -19 81 -17 39 -12 c 1
 23 -19 l 2
 13 -23 -2 -17 -2 -3 c 0
138 50 m 1
 138 50 141 49 143 49 c 0
 181 45 220 43 260 43 c 0
 272 43 275 45 275 56 c 2
 278 186 l 1
 276 184 276 183 274 181 c 0
 233 134 188 91 138 50 c 1
EndSplineSet
EndChar

StartChar: five
Encoding: 53 53 116
Width: 318
VWidth: 0
Flags: HMW
LayerCount: 2
Fore
SplineSet
17 -219 m 0
 17 -213 21 -209 22 -208 c 2
 24 -206 l 1
 25 -206 l 1
 83 -180 99 -173 135 -130 c 0
 158 -102 182 -44 182 2 c 0
 182 38 174 47 152 64 c 0
 142 72 130 76 116 76 c 0
 101 76 81 73 55 67 c 1
 45 67 38 73 38 82 c 3
 38 84 39 86 40 88 c 0
 43 93 47 128 47 188 c 0
 47 248 47 285 45 299 c 0
 43 313 40 325 37 333 c 0
 32 344 42 351 48 354 c 2
 100 379 l 2
 106 382 114 382 124 382 c 0
 149 382 171 380 197 380 c 0
 218 380 243 381 272 383 c 1
 282.686725183 383 291 375.607238954 291 365 c 0
 291 359 286 353 285 352 c 0
 241 325 209 314 156 314 c 2
 141 314 l 1
 143 293 143 271 143 245 c 0
 143 214 141 176 136 137 c 1
 150 141 161 142 176 142 c 0
 194 142 213 135 230 121 c 0
 263 95 280 61 280 21 c 0
 280 -33 248 -98 219 -131 c 0
 171 -186 115 -219 32 -232 c 1
 30 -233 l 1
 27 -232 l 2
 25 -231 17 -228 17 -219 c 0
EndSplineSet
EndChar

StartChar: six
Encoding: 54 54 117
Width: 401
VWidth: 2048
Flags: HMW
LayerCount: 2
Back
SplineSet
33.650390625 182.465820312 m 0
 33.650390625 278.342773438 97.8359375 414.576171875 131.983398438 476.604492188 c 0
 153.085887556 514.93567394 194.280271908 546.169360432 250.207563167 572.393554688 c 0
 253.911962222 573.96894794 255.543039188 574.328652229 258.426472792 575.110351562 c 2
 260.422939877 575.110351562 l 2
 272.606100708 575.110351562 276.037946566 566.736544199 276.037946566 558.782070562 c 0
 276.037946566 553.797051988 274.690106255 548.97672464 273.303710938 546.485351562 c 0
 187.455791773 420.522460938 140.27734375 320.568359375 130.0390625 247.478515625 c 0
 129.731445312 245.150390625 129.555664062 242.512695312 129.51171875 241.375 c 1
 155.490696025 257.470703125 209.735259298 277.161132812 260.70703125 277.161132812 c 0
 313.967773438 277.161132812 333.235351562 256.530273438 357.577148438 222.217773438 c 0
 372.796875 200.763671875 380.579101562 176.7421875 380.579101562 150.916015625 c 0
 380.579101562 100.014648438 352.897460938 62.447265625 322.616210938 34.009765625 c 0
 295.00390625 8.076171875 234.213002856 -39.5712890625 171.36753445 -39.5712890625 c 0
 137.552734375 -39.5712890625 110.438476562 -16.3974609375 85.162109375 22.9521484375 c 0
 59.9208984375 62.248046875 44.6904296875 96.7666015625 40.130859375 127.099609375 c 0
 35.8466796875 155.594726562 33.650390625 173.362304688 33.650390625 182.465820312 c 0
129.55078125 182.147460938 m 0
 134.137695312 141.524414062 147.733398438 106.998046875 174.19886593 77.7509765625 c 0
 203.594501333 46.85546875 224.760415917 35.4921875 233.45501806 35.4921875 c 0
 256.767555196 35.4921875 286.651367188 94.8486328125 286.651367188 125.93359375 c 0
 286.651367188 174.338867188 252.964417536 205.666015625 191.436713506 205.666015625 c 0
 173.415655016 205.666015625 152.293945312 202.79296875 132.776367188 196.9375 c 0
 131.228515625 196.44140625 127.999023438 195.190429688 129.55078125 182.147460938 c 0
EndSplineSet
Fore
SplineSet
34 182 m 0
 34 278 98 415 132 477 c 0
 153 515 194 546 250 572 c 0
 254 574 256 575 260 575 c 3
 272 575 276 567 276 559 c 0
 276 554 274 548 273 546 c 0
 188 421 137 318 130 241 c 1
 156 257 210 277 261 277 c 0
 314 277 334 256 358 222 c 0
 373 201 381 177 381 151 c 0
 381 100 353 62 323 34 c 0
 295 8 234 -40 171 -40 c 0
 137 -40 110 -16 85 23 c 0
 60 62 45 97 40 127 c 0
 36 155 34 173 34 182 c 0
130 182 m 0
 135 141 148 107 174 78 c 0
 203 47 224 35 233 35 c 0
 256 35 287 95 287 126 c 0
 287 174 253 206 191 206 c 0
 173 206 153 203 133 197 c 0
 131 197 128 195 130 182 c 0
EndSplineSet
EndChar

StartChar: seven
Encoding: 55 55 118
Width: 429
VWidth: 0
Flags: HMW
LayerCount: 2
Fore
SplineSet
20 -220 m 0
 20 -212 25 -204 31 -194 c 1
 141 -21 235 140 296 289 c 0
 297 293 298 294 298 296 c 1
 297 296 295 297 291 297 c 0
 262 297 227 294 183 294 c 0
 142 294 100 295 52 301 c 1
 45 302 22 306 22 325 c 0
 22 335 30 341 36 344 c 0
 79 363 l 1
 88 367 98 369 109 369 c 1
 113 369 127 368 154 365 c 0
 182 362 221 360 268 360 c 0
 311 360 339 361 355 363 c 0
 372 365 380 366 384 366 c 0
 393 366 405 362 405 349 c 0
 405 342 402 333 397 319 c 0
 322 121 255 -10 127 -181 c 0
 116 -197 104 -209 89 -216 c 1
 52 -233 l 1
 47 -235 42 -237 37 -237 c 0
 26 -237 20 -227 20 -220 c 0
EndSplineSet
EndChar

StartChar: eight
Encoding: 56 56 119
Width: 340
VWidth: 2048
Flags: HMW
LayerCount: 2
Fore
SplineSet
32 440 m 0
 32 483 45 516 74 533 c 0
 99 548 123 561 148 571 c 0
 173 582 195 587 214 587 c 0
 241 587 262 571 278 543 c 0
 301 503 307 481 307 437 c 0
 307 386 290 338 259 315 c 0
 244 304 233 297 220 291 c 1
 233 274 243 259 253 244 c 0
 268 221 281 200 292 178 c 0
 310 144 319 117 319 97 c 0
 319 66 302 40 270 20 c 0
 240 1 213 -14 190 -24 c 0
 167 -34 147 -39 128 -39 c 0
 53 -39 34 49 34 108 c 0
 34 156 49 205 79 227 c 0
 92 236 113 245 123 252 c 1
 120 261 107 277 102 284 c 0
 85 309 71 335 58 359 c 0
 41 393 32 419 32 440 c 0
127 456 m 0
 127 438 132 419 143 398 c 0
 154 377 170 352 188 327 c 1
 203 350 212 377 212 417 c 0
 212 459 205 489 183 509 c 0
 170 521 158 526 150 526 c 0
 140 526 127 485 127 456 c 0
128 128 m 0
 128 81 133 54 157 34 c 0
 167 26 178 22 190 22 c 0
 203 22 225 56 225 81 c 0
 225 98 219 117 208 137 c 0
 198.75245418 153.183205185 186.535564482 172.335754248 170.891678512 193.999994797 c 0
 165.545792569 201.403178331 155 216 152 218 c 1
 147 215 137 191 134 180 c 0
 130 165 128 147 128 128 c 0
EndSplineSet
EndChar

StartChar: nine
Encoding: 57 57 120
Width: 402
VWidth: 2048
Flags: HMW
LayerCount: 2
Back
SplineSet
34 199 m 0
 34 248 62 284 92 312 c 0
 120 337 180 383 243 383 c 0
 277 383 304 361 329 322 c 0
 354 283 370 250 375 220 c 0
 379 192 381 174 381 165 c 0
 381 52 315 -74 255 -139 c 1
 209 -181 158 -213 112 -240 c 0
 110 -241 107 -242 104 -242 c 0
 93 -242 87 -234 87 -225 c 0
 87 -220 89 -213 93 -210 c 0
 138 -174 182 -125 220 -64 c 0
 258 -3 277 54 284 106 c 0
 284 108 285 109 285 111 c 1
 259 95 204 77 153 77 c 0
 131 77 113 80 99 88 c 0
 70 105 34 152 34 199 c 0
128 223 m 0
 128 177 161 148 223 148 c 0
 241 148 261 150 281 156 c 0
 283 156 287 158 285 170 c 0
 280 208 266 241 240 269 c 0
 211 298 190 308 181 308 c 0
 158 308 128 252 128 223 c 0
EndSplineSet
Fore
SplineSet
34 199 m 0
 34 248 62 284 92 312 c 0
 120 337 180 383 243 383 c 0
 277 383 304 361 329 322 c 0
 354 283 370 250 375 220 c 0
 379 192 381 174 381 165 c 0
 381 52 315 -74 255 -139 c 1
 209 -181 158 -213 112 -240 c 0
 110 -241 107 -242 104 -242 c 0
 93 -242 87 -234 87 -225 c 0
 87 -220 89 -213 93 -210 c 0
 138 -174 182 -125 220 -64 c 0
 257 -5 282 59 285 111 c 1
 259 95 204 77 153 77 c 0
 131 77 113 80 99 88 c 0
 70 105 34 152 34 199 c 0
128 223 m 0
 128 177 161 148 223 148 c 0
 241 148 261 150 281 156 c 0
 283 156 287 158 285 170 c 0
 280 208 266 241 240 269 c 0
 211 298 190 308 181 308 c 0
 158 308 128 252 128 223 c 0
EndSplineSet
EndChar

StartChar: exclam
Encoding: 33 33 121
Width: 236
VWidth: 983
Flags: HMW
LayerCount: 2
Back
SplineSet
209.639648438 73.912109375 m 7
 209.639648438 28.2724609375 190.147460938 0 144 0 c 7
 108.431640625 0 61.396484375 9.4951171875 61.396484375 46.3642578125 c 7
 61.396484375 68.6962890625 73.15625 73.5712890625 85.3232421875 87.08984375 c 20
 98.2197265625 101.598632812 111.396484375 130.715820312 134.756835938 130.715820312 c 7
 144.420898438 130.715820312 153.161132812 125.859375 161.323242188 122.407226562 c 4
 172.698242188 117.595703125 185.34765625 111.438476562 194.849609375 103.08984375 c 4
 203.5703125 95.4287109375 209.639648438 85.919921875 209.639648438 73.912109375 c 7
  Spiro
    85.3232 87.0903 o
    105.323 108.09 o
    117.323 122.09 o
    131.323 131.09 o
    147.323 128.09 o
    167.323 119.09 o
    185.323 106.09 o
    198.323 97.0903 o
    208.323 85.0903 o
    209.323 69.0903 o
    206.323 46.0903 o
    198.323 22.0903 o
    173.323 6.09026 o
    147.323 0.0902564 o
    114.323 4.09026 o
    81.3232 13.0903 o
    64.3232 34.0903 o
    63.3232 60.0903 o
    0 0 z
  EndSpiro
EndSplineSet
Fore
SplineSet
61.396484375 46.3642578125 m 3
 61.396484375 68.6962890625 73.15625 73.5712890625 85.3232421875 87.08984375 c 16
 98.2197265625 101.598632812 111.396484375 130.715820312 134.756835938 130.715820312 c 3
 144.420898438 130.715820312 153.161132812 125.859375 161.323242188 122.407226562 c 0
 172.698242188 117.595703125 185.34765625 111.438476562 194.849609375 103.08984375 c 0
 203.5703125 95.4287109375 209.639648438 85.919921875 209.639648438 73.912109375 c 3
 209.639648438 28.2724609375 190.147460938 0 144 0 c 3
 108.431640625 0 61.396484375 9.4951171875 61.396484375 46.3642578125 c 3
47.3935546875 482.03515625 m 1
 72.96875 525.537109375 l 2
 79.41796875 536.208007812 93.47265625 541.54296875 115.129882812 541.54296875 c 0
 170.888671875 541.54296875 198.765625 526.083984375 198.765625 495.16796875 c 0
 198.765625 444.27734375 191.623046875 376.2890625 177.338867188 291.19921875 c 0
 170.888671875 249.064453125 156.83203125 210.896484375 135.17578125 176.697265625 c 0
 131.021484375 172.997070312 110.962890625 177.205078125 108.21875 179.159179688 c 1
 108.44921875 183.333007812 108.565429688 189.806640625 108.565429688 198.581054688 c 0
 108.565429688 224.899414062 107.528320312 271.9140625 105.454101562 339.626953125 c 0
 103.610351562 389.967773438 84.2578125 437.4375 47.3935546875 482.03515625 c 1
EndSplineSet
EndChar

StartChar: quotedbl
Encoding: 34 34 122
Width: 359
VWidth: 983
Flags: MW
LayerCount: 2
Fore
SplineSet
219.360351562 597.599609375 m 1
 231.200195312 632.48046875 248.48046875 649.919921875 271.200195312 649.919921875 c 0
 293.599609375 649.919921875 307.360351562 641.759765625 312.48046875 625.440429688 c 1
 306.719726562 601.759765625 297.919921875 563.360351562 286.080078125 510.240234375 c 1
 272.3203125 437.599609375 265.440429688 395.6796875 265.440429688 384.48046875 c 0
 264.721725309 379.453920443 255.600042746 373.919921875 244.799804688 373.919921875 c 0
 239.360351562 373.919921875 235.360351562 375.360351562 232.799804688 378.240234375 c 1
 224.254206338 434.915303015 219.360351562 536.029100273 219.360351562 597.599609375 c 1
61.919921875 597.599609375 m 1
 73.759765625 632.48046875 91.2001953125 649.919921875 114.240234375 649.919921875 c 0
 136.639648438 649.919921875 150.400390625 641.759765625 155.51953125 625.440429688 c 1
 149.759765625 601.759765625 140.799804688 563.360351562 128.639648438 510.240234375 c 1
 114.879882812 437.599609375 108 395.6796875 108 384.48046875 c 0
 107.245483841 379.195399838 98.1770687365 373.919921875 87.3603515625 373.919921875 c 0
 81.919921875 373.919921875 78.080078125 375.360351562 75.83984375 378.240234375 c 1
 66.9024317826 434.308883732 61.919921875 535.953224097 61.919921875 597.599609375 c 1
EndSplineSet
Validated: 1
EndChar

StartChar: numbersign
Encoding: 35 35 123
Width: 487
VWidth: 983
Flags: HMW
LayerCount: 2
Fore
SplineSet
8 147 m 0
 8 153 17 157 23 160 c 2
 59 177 l 2
 66 180 74 181 83 181 c 0
 92 181 102 180 110 180 c 1
 115 201 122 220 127 238 c 2
 159 347 l 1
 131 348 94 349 69 353 c 0
 66 354 64 356 64 361 c 0
 64 367 72 370 78 373 c 2
 114 390 l 2
 122 393 131 395 141 395 c 0
 152 395 163 394 173 393 c 1
 203 489 l 2
 207 501 211 507 217 510 c 2
 249 525 l 2
 254 528 258 529 261 529 c 0
 265 529 266 526 264 520 c 2
 226 390 l 1
 237 390 248 389 259 389 c 0
 284 389 310 390 334 391 c 1
 364 490 l 2
 368 502 372 509 378 512 c 2
 410 527 l 2
 415 530 419 530 422 530 c 0
 426 530 428 527 426 521 c 2
 386 390 l 1
 414 389 445 387 475 387 c 0
 479 387 482 386 482 383 c 0
 482 377 478 372 469 368 c 2
 426 348 l 2
 421 345 413 344 402 344 c 2
 372 344 l 1
 356 290 l 2
 345 253 335 215 325 176 c 1
 356 175 388 173 420 173 c 0
 424 173 426 172 426 169 c 0
 426 163 422 158 413 154 c 2
 370 134 l 2
 365 131 356 130 345 130 c 0
 334 130 323 131 314 131 c 1
 304 89 296 46 288 2 c 0
 286 -7 282 -13 275 -16 c 2
 243 -31 l 2
 239 -33 236 -34 233 -34 c 0
 229 -34 227 -30 228 -25 c 0
 239 33 249 85 260 133 c 1
 229 133 l 2
 205 133 177 132 154 132 c 1
 144 89 134 45 126 0 c 0
 124 -9 120 -15 113 -18 c 2
 82 -32 l 2
 78 -34 75 -35 72 -35 c 0
 68 -35 66 -32 67 -27 c 0
 78 33 88 86 99 133 c 1
 73 134 37 136 13 140 c 0
 10 141 8 143 8 147 c 0
164 176 m 1
 178 175 192 175 205 175 c 0
 227 175 251 177 271 177 c 1
 277 199 282 220 288 240 c 2
 321 347 l 1
 286 347 l 2
 262 347 235 346 212 346 c 1
 195 288 l 2
 184 252 174 214 164 176 c 1
EndSplineSet
EndChar

StartChar: dollar
Encoding: 36 36 124
Width: 414
VWidth: 983
Flags: HMW
LayerCount: 2
Fore
SplineSet
51 49 m 0
 51 52 52 56 54 60 c 0
 55 62 70 77 99 105 c 0
 104 109 107 111 108 111 c 256
 110 111 117 102 129 84 c 0
 150 52 159 43 202 41 c 1
 194 228 l 1
 194 258 l 1
 135 286 74 315 74 399 c 256
 74 450 103 482 134 512 c 0
 154 531 171 546 187 555 c 1
 185 599 l 2
 185 605 187 609 191 611 c 2
 211 621 l 2
 213 622 214 622 216 622 c 0
 219 622 220 621 220 617 c 2
 222 572 l 1
 241 579 261 582 282 582 c 0
 298 582 331 552 331 536 c 0
 331 508 314 485 287 485 c 0
 270 485 256 490 248 501 c 0
 240 511 233 517 225 517 c 1
 230 316 l 1
 270 301 331 259 354 229 c 0
 365 214 371 197 371 176 c 256
 371 120 344 86 309 55 c 0
 287 36 264 21 239 10 c 1
 241 -29 l 2
 241 -34 241 -37 237 -39 c 2
 214 -49 l 2
 212 -50 210 -50 209 -50 c 0
 206 -50 205 -49 205 -46 c 2
 203 -2 l 1
 190 -5 176 -7 164 -7 c 256
 106 -7 85 5 56 36 c 0
 53 40 51 44 51 49 c 0
136 439 m 256
 136 414 140 395 147 383 c 0
 154 371 170 356 195 338 c 1
 189 512 l 1
 164 503 136 474 136 439 c 256
230 237 m 1
 238 41 l 1
 269 43 280 49 293 74 c 0
 301 88 304 104 304 120 c 256
 304 174 266 215 230 238 c 1
 230 237 l 1
EndSplineSet
EndChar

StartChar: percent
Encoding: 37 37 125
Width: 875
VWidth: 983
Flags: MW
LayerCount: 2
Fore
SplineSet
202.080078125 -18.7197265625 m 2
 589.440429688 625.919921875 l 2
 595.83984375 636.799804688 604.16015625 644.48046875 614.400390625 648.959960938 c 2
 648.48046875 665.280273438 l 2
 658.719726562 670.080078125 665.919921875 672.3203125 670.080078125 672 c 0
 675.51953125 672 675.6796875 667.83984375 670.559570312 659.51953125 c 2
 282.719726562 14.8798828125 l 2
 276.3203125 4 268 -3.83984375 257.759765625 -8.6396484375 c 2
 221.759765625 -25.4404296875 l 2
 213.759765625 -28.6396484375 207.83984375 -30.080078125 204 -29.759765625 c 0
 198.240234375 -29.759765625 197.599609375 -26.080078125 202.080078125 -18.7197265625 c 2
53.759765625 427.6796875 m 256
 53.759765625 504.541016365 71.4475076768 526.759006661 109.919921875 568.559570312 c 0
 138.109028612 599.188898449 191.019237469 626.879882812 245.759765625 626.879882812 c 0
 270.719726562 626.879882812 287.919921875 622.719726562 297.360351562 614.400390625 c 0
 311.777612817 601.692438433 339.447577909 556.454762552 344.639648438 535.6796875 c 0
 346.879882812 526.719726562 348 510.400390625 348 486.719726562 c 256
 348 424.633557336 319.940635357 379.896368416 286.559570312 349.200195312 c 8
 260.803395332 325.512935968 219.970978503 302.879882812 179.51953125 302.879882812 c 256
 144.892777587 302.879882812 120.828329224 307.793463908 97.4404296875 330.48046875 c 0
 81.4404296875 346 70.16015625 359.6796875 63.599609375 371.51953125 c 0
 57.0400390625 383.360351562 53.759765625 402.080078125 53.759765625 427.6796875 c 256
114.240234375 468 m 256
 114.240234375 408.227496683 135.633817423 364.362688531 178.3203125 348.48046875 c 0
 198.959960938 340.799804688 212.3203125 336.959960938 218.400390625 336.959960938 c 256
 231.708339625 336.959960938 254.527101373 345.763317651 261.83984375 352.3203125 c 0
 274.709457199 363.857465971 293.759765625 407.796962271 293.759765625 434.879882812 c 256
 293.759765625 471.525130055 276.18291178 529.285707635 261.599609375 552.240234375 c 0
 250.051866892 570.417453978 225.00442053 589.440429688 201.599609375 589.440429688 c 256
 177.539826607 589.440429688 172.30742195 586.069811149 151.440429688 570.240234375 c 0
 120.282544283 546.603519344 114.240234375 526.256662635 114.240234375 468 c 256
533.759765625 152.639648438 m 256
 533.759765625 229.501467778 551.447365927 251.718813587 589.919921875 293.51953125 c 0
 618.075887388 324.112849256 671.073583682 352.3203125 725.759765625 352.3203125 c 0
 750.719726562 352.3203125 767.919921875 348.080078125 777.360351562 339.599609375 c 0
 791.591941258 326.815324943 820.021580062 281.56684456 824.879882812 260.639648438 c 0
 826.959960938 251.6796875 828 235.360351562 828 211.6796875 c 256
 828 149.700109691 799.999286943 104.851652388 766.559570312 74.400390625 c 8
 740.872347619 51.0061200173 699.71000332 27.83984375 659.51953125 27.83984375 c 256
 625.237267861 27.83984375 600.699217694 33.3521595603 577.440429688 55.6796875 c 0
 561.440429688 71.0400390625 550.16015625 84.6396484375 543.599609375 96.48046875 c 0
 537.040039062 108.3203125 533.759765625 127.040039062 533.759765625 152.639648438 c 256
594.240234375 192.959960938 m 256
 594.240234375 133.18745762 615.633817423 89.3226494684 658.3203125 73.4404296875 c 0
 678.959960938 65.759765625 692.3203125 61.919921875 698.400390625 61.919921875 c 256
 711.608479688 61.919921875 734.982073091 70.6897107861 742.080078125 77.2802734375 c 0
 754.667031482 88.9699227287 773.759765625 132.832484146 773.759765625 159.83984375 c 256
 773.759765625 196.485090993 756.18291178 254.245668572 741.599609375 277.200195312 c 0
 730.051866892 295.377414915 705.00442053 314.400390625 681.599609375 314.400390625 c 256
 657.539826607 314.400390625 652.30742195 311.029772086 631.440429688 295.200195312 c 0
 600.134775648 271.451381368 594.240234375 251.679242894 594.240234375 192.959960938 c 256
EndSplineSet
Validated: 1
EndChar

StartChar: ampersand
Encoding: 38 38 126
Width: 717
VWidth: 0
Flags: HMW
LayerCount: 2
Back
Fore
SplineSet
152 455 m 0
 152 432 168 416 181 403 c 0
 213 372 245 346 307 346 c 0
 315 346 322 347 326 347 c 0
 330 347 332 345 332 341 c 0
 332 337 328 324 328 320 c 0
 328 315 330 312 339 308 c 0
 343 305 349 304 351 304 c 0
 356 304 358.195038863 309.931022146 362 321 c 0
 373 353 380 388 380 428 c 0
 380 482 359 523 325 546 c 0
 310 556 294 563 274 563 c 0
 243 563 220 548 203 533 c 0
 188 519 174 504 163 487 c 0
 157 477 152 467 152 455 c 0
120 203 m 0
 120 164 151 135 172 116 c 0
 193 97 220 74 257 74 c 0
 284 74 303 91 315 107 c 0
 329 127 338 152 338 176 c 0
 338 232 295 274 238 274 c 0
 214 274 196 269 176 262 c 0
 151 253 120 234 120 203 c 0
26 157 m 0
 26 176 32 195 39 212 c 0
 58 255 88 294 133 312 c 0
 144 316 150 320 150 324 c 0
 150 328 146 333 133 337 c 0
 92 353 39 380 39 437 c 0
 39 477 67 506 89 528 c 0
 114 553 141 578 171 597 c 0
 197 614 226 625 257 633 c 0
 281 639 306 644 330 644 c 0
 402 644 450 598 450 525 c 0
 450 493 443 462 436 430 c 0
 433 420 432 410 428 400 c 0
 427 396 426 395 426 392 c 0
 426 387 429 384 434 384 c 0
 438 384 442 384 446 386 c 0
 460 392 475 398 490 402 c 0
 526 411 564 411 604 411 c 0
 636 411 664 408 694 408 c 0
 703 408 712 409 719 409 c 0
 733 409 746 403 746 384 c 0
 746 366 727 358 718 348 c 0
 708 337 704 323 684 323 c 0
 671 323 649 328 634 332 c 0
 612 338 590 344 562 344 c 0
 514 344 470 337 427 330 c 0
 403 326 400 320 391 302 c 0
 385 290 385 285 385 280 c 0
 385 274 388 269 396 256 c 0
 410 233 419 204 419 172 c 0
 419 153 416 137 410 122 c 0
 407 116 404 110 404 107 c 3
 404 99 427 95 440 95 c 0
 452 95 462 96 472 99 c 0
 476 100 478 102 480 102 c 3
 483 102 489 95 489 90 c 3
 489 88 488 87 488 85 c 0
 485 68 478 51 466 37 c 0
 457 26 445 17 436 6 c 0
 432 2 424 -6 418 -6 c 3
 400 -6 397 30 392 43 c 0
 389 51 380 69 374 69 c 3
 370 69 365 65 357 59 c 0
 331 39 301 23 273 9 c 0
 247 -4 215 -14 179 -14 c 0
 139 -14 111 9 90 32 c 0
 77 46 67 61 57 76 c 0
 41 100 26 124 26 157 c 0
EndSplineSet
EndChar

StartChar: quotesingle
Encoding: 39 39 127
Width: 205
VWidth: 983
Flags: MW
LayerCount: 2
Fore
SplineSet
61.919921875 597.599609375 m 1
 73.759765625 632.48046875 91.2001953125 649.919921875 114.240234375 649.919921875 c 0
 136.639648438 649.919921875 150.400390625 641.759765625 155.51953125 625.440429688 c 1
 149.759765625 601.759765625 140.799804688 563.360351562 128.639648438 510.240234375 c 1
 114.879882812 437.599609375 108 395.6796875 108 384.48046875 c 0
 107.245483841 379.195399838 98.1770687365 373.919921875 87.3603515625 373.919921875 c 0
 81.919921875 373.919921875 78.080078125 375.360351562 75.83984375 378.240234375 c 1
 66.9024317826 434.308883732 61.919921875 535.953224097 61.919921875 597.599609375 c 1
EndSplineSet
Validated: 1
EndChar

StartChar: parenleft
Encoding: 40 40 128
Width: 255
VWidth: 983
Flags: MW
LayerCount: 2
Fore
SplineSet
7.6796875 320.639648438 m 0
 7.6796875 371.200195312 12.48046875 410.3203125 22.080078125 438 c 0
 47.8349464108 512.26205358 85.637179302 592.583569936 133.200195312 658.080078125 c 0
 162.48046875 698.400390625 186.559570312 725.759765625 205.440429688 740.16015625 c 0
 207.360351562 740.799804688 208.959960938 741.280273438 210.240234375 741.599609375 c 0
 215.040039062 741.599609375 217.440429688 737.599609375 217.440429688 729.599609375 c 1
 200.48046875 706.559570312 184 678.080078125 168 644.16015625 c 0
 152 610.240234375 133.280273438 564.959960938 111.83984375 508.3203125 c 0
 90.400390625 451.6796875 79.6796875 389.120117188 79.6796875 320.639648438 c 0
 79.6796875 169.919921875 120.3203125 54.5595703125 201.599609375 -25.4404296875 c 1
 201.599609375 -40 184.177237222 -67.6796875 170.879882812 -67.6796875 c 1
 131.51953125 -28.3203125 101.919921875 6.400390625 82.080078125 36.48046875 c 0
 36.3897401662 105.751393118 7.6796875 197.948604986 7.6796875 320.639648438 c 0
EndSplineSet
Validated: 1
EndChar

StartChar: parenright
Encoding: 41 41 129
Width: 255
VWidth: 983
Flags: MW
LayerCount: 2
Fore
SplineSet
28.3203125 -56.16015625 m 1
 45.2802734375 -33.1201171875 61.3603515625 -5.0400390625 76.5595703125 28.080078125 c 0
 91.759765625 61.2001953125 110.48046875 102.639648438 132.719726562 152.400390625 c 0
 154.959960938 202.16015625 166.080078125 268.959960938 166.080078125 352.799804688 c 0
 166.080078125 503.51953125 125.440429688 618.879882812 44.16015625 698.879882812 c 1
 44.16015625 715 61.5828651523 741.120117188 74.8798828125 741.120117188 c 1
 114.240234375 701.759765625 143.83984375 667.040039062 163.6796875 636.959960938 c 0
 209.370113941 567.686653434 238.080078125 475.493094164 238.080078125 352.799804688 c 0
 238.080078125 302.240234375 233.280273438 263.040039062 223.6796875 235.200195312 c 0
 197.990382047 160.69859614 160.201735769 80.9642632855 112.559570312 15.3603515625 c 0
 83.2802734375 -24.9599609375 59.2001953125 -52.3203125 40.3203125 -66.7197265625 c 0
 38.400390625 -67.3603515625 36.7998046875 -67.83984375 35.51953125 -68.16015625 c 0
 31.0400390625 -68.16015625 28.6396484375 -64.16015625 28.3203125 -56.16015625 c 1
EndSplineSet
Validated: 1
EndChar

StartChar: asterisk
Encoding: 42 42 130
Width: 347
VWidth: 0
Flags: HMW
LayerCount: 2
Fore
SplineSet
25 421 m 0
 25 438 63 451 138 461 c 1
 116 492 99 510 90 518 c 0
 81 526 77 534 77 543 c 2
 76 556 l 1
 90 551 l 2
 101 547 112 538 123 527 c 0
 134 516 147 501 164 480 c 1
 180 516 189 540 191 552 c 0
 193 564 197 572 205 576 c 2
 216 583 l 1
 219 568 l 1
 219 553 l 2
 219 541 211 512 193 467 c 1
 231 471 255 475 264 478 c 0
 273 481 279 483 283 483 c 0
 287 483 291 482 296 479 c 2
 307 472 l 1
 296 463 l 2
 272 443 241 442 198 435 c 1
 232 392 l 2
 253 364 263 346 263 339 c 0
 263 337 261 336 256 336 c 0
 240 336 212 362 172 414 c 1
 152 366 l 2
 137 330 127 313 122 313 c 3
 115 313 113 326 113 339 c 3
 113 353 123 382 141 427 c 1
 110 423 66 416 42 416 c 0
 32 416 25 418 25 421 c 0
EndSplineSet
EndChar

StartChar: plus
Encoding: 43 43 131
Width: 491
VWidth: 983
Flags: HMW
LayerCount: 2
Fore
SplineSet
42 196 m 1
 108 226 l 1
 211 224 l 1
 211 357 l 1
 276 387 l 1
 282 374 l 1
 282 224 l 1
 440 224 l 1
 446 212 l 1
 381 181 l 1
 281 181 l 1
 279 30 l 1
 214 0 l 1
 208 13 l 1
 210 180 l 1
 48 183 l 1
 42 196 l 1
EndSplineSet
EndChar

StartChar: hyphen
Encoding: 45 45 132
Width: 312
VWidth: 0
Flags: MW
LayerCount: 2
Fore
SplineSet
29.759765625 165.767578125 m 0
 29.759765625 187.271484375 75.83984375 203.400390625 168 214.15234375 c 0
 210.240234375 219.14453125 239.360351562 225.096679688 255.360351562 232.0078125 c 0
 257.827903178 233.098909448 260.372090614 233.47803827 263 233.47803827 c 3
 266.847292298 233.47803827 270.857144169 231.865465838 275.040039062 229.127929688 c 2
 285.599609375 221.640625 l 1
 275.040039062 211.848632812 l 2
 266.400390625 203.783203125 253.83984375 197.352539062 237.360351562 192.551757812 c 0
 210.697265625 184.786132812 99.0517578125 164 53.0400390625 160.872070312 c 0
 49.295725668 160.618057189 44.9320053359 160.335777953 41.0000002218 160.335777953 c 3
 34.8491439738 160.335777953 29.759765625 161.590892458 29.759765625 165.767578125 c 0
EndSplineSet
Validated: 1
Substitution2: "'ss19' Double hyphen" uni2E17
EndChar

StartChar: slash
Encoding: 47 47 133
Width: 339
VWidth: 983
Flags: HMW
LayerCount: 2
Fore
SplineSet
9 -18 m 0
 9 -14 10 -8 13 -0 c 0
 26 36 46 80 70 131 c 0
 94 182 116 232 134 283 c 0
 152 334 192 430 254 571 c 24
 261 584 268 594 276 600 c 2
 324 637 l 2
 329 641 332 643 334 643 c 0
 336 643 336 641 336 639 c 0
 336 636 335 631 332 623 c 2
 272 490 l 2
 222 376 198 286 144 171 c 0
 116 111 98 73 91 54 c 24
 84 35 73 21 60 10 c 2
 26 -17 l 2
 20 -22 15 -24 13 -24 c 0
 10 -24 9 -22 9 -18 c 0
EndSplineSet
EndChar

StartChar: at
Encoding: 64 64 134
Width: 827
VWidth: 0
Flags: HMW
LayerCount: 2
Fore
SplineSet
41 135 m 0
 41 214 61 282 100 335 c 0
 139 388 172 424 197 442 c 0
 222 460 261 479 315 501 c 0
 369 523 432 534 503 534 c 256
 572 534 627 517 669 485 c 0
 711 453 740 417 757 380 c 0
 774 343 782 305 782 268 c 256
 782 215 771 173 748 143 c 0
 702 81 657 51 578 23 c 0
 539 9 515 2 503 2 c 256
 486 2 473 9 463 22 c 0
 453 35 448 41 446 41 c 0
 442 41 430 35 411 21 c 0
 392 7 377 0 364 0 c 256
 334 0 302 20 287 37 c 0
 278 48 273 58 273 66 c 256
 273 85 293 110 304 120 c 0
 322 136 360 148 387 158 c 0
 404 165 418 170 429 173 c 0
 448 178 452 181 452 202 c 0
 452 232 442 257 431 280 c 0
 421 301 417 311 394 311 c 256
 390 311 384 310 376 307 c 0
 368 304 356 298 339 290 c 0
 328 284 321 281 317 281 c 3
 315 281 314 282 314 283 c 0
 314 285 334 296 372 316 c 0
 410 336 437 347 453 347 c 256
 482 347 501 303 506 274 c 0
 509 253 511 228 511 197 c 3
 511 155 509 111 508 70 c 1
 512 55 524 47 544 47 c 0
 571 47 594 54 613 66 c 0
 631 77 651 97 673 128 c 0
 695 159 706 200 706 250 c 256
 706 290 698 324 682 354 c 0
 666 384 638 414 600 443 c 0
 562 472 508 487 439 487 c 0
 351 487 275 458 212 400 c 0
 149 342 118 260 118 154 c 0
 118 36 143 -31 208 -81 c 0
 239 -105 269 -124 300 -138 c 0
 331 -152 361 -159 391 -159 c 256
 445 -159 510 -150 585 -130 c 0
 598 -127 600 -138 591 -144 c 0
 535 -178 416 -205 328 -205 c 256
 261 -205 186 -161 143 -127 c 0
 84 -79 41 26 41 135 c 0
332 96 m 256
 332 67 353 51 375 41 c 0
 388 35 398 33 402 33 c 256
 434 33 451 90 451 125 c 256
 451 144 452 152 442 152 c 2
 435 152 l 2
 430 152 416 149 393 143 c 0
 370 137 354 130 345 123 c 0
 336 116 332 107 332 96 c 256
EndSplineSet
EndChar

StartChar: dieresis
Encoding: 168 168 135
Width: 319
VWidth: 0
Flags: HMW
LayerCount: 2
Fore
SplineSet
66 565 m 0
 66 585 79 602 104 615 c 0
 111 619 117 621 122 621 c 0
 135 621 141 609 141 583 c 0
 141 557 140 552 124 542 c 0
 113 535 104 532 95 532 c 0
 75 532 66 548 66 565 c 0
205 565 m 0
 205 585 218 602 243 615 c 0
 250 619 256 621 261 621 c 0
 274 621 280 609 280 583 c 0
 280 557 280 552 264 542 c 0
 253 535 243 532 234 532 c 0
 214 532 205 548 205 565 c 0
EndSplineSet
EndChar

StartChar: copyright
Encoding: 169 169 136
Width: 827
VWidth: 0
Flags: HMW
LayerCount: 2
Fore
SplineSet
261 156 m 0
 261 222 290 276 324 314 c 0
 352 346 377 376 422 392 c 0
 426 394 430 395 434 395 c 0
 445 395 452 389 459 383 c 0
 466 377 474 372 479 364 c 0
 484 357 485 350 488 342 c 0
 491 334 499 322 499 312 c 0
 499 298 485 290 476 285 c 0
 467 280 458 276 449 271 c 0
 438 265 425 262 415 256 c 0
 412 254 408 252 404 252 c 0
 398 252 394 256 394 265 c 0
 394 267 395 270 395 272 c 0
 395 284 390 289 375 289 c 0
 369 289 362 289 358 287 c 1
 348 272 340 252 340 230 c 0
 340 190 355 164 368 135 c 0
 379 111 389 88 406 70 c 0
 411 64 418 59 423 53 c 1
 428 52 430 48 434 45 c 0
 442 39 454 31 467 31 c 0
 486 31 500 53 503 70 c 0
 504 76 507 82 512 82 c 0
 514 82 520 80 522 79 c 0
 530 74 536 70 536 61 c 0
 536 59 536 57 535 54 c 0
 525 25 508 -4 481 -16 c 0
 471 -20 460 -22 449 -26 c 0
 440 -29 430 -34 420 -36 c 0
 408 -39 396 -40 385 -43 c 0
 382 -44 379 -44 377 -44 c 0
 365 -44 343 -33 337 -26 c 0
 329 -17 321 -6 314 4 c 0
 286 44 261 94 261 156 c 0
118 154 m 0
 118 20 147 -37 229 -101 c 0
 273 -136 331 -153 400 -153 c 0
 488 -153 564 -124 627 -66 c 0
 690 -8 721 74 721 180 c 0
 721 323 673 388 596 447 c 0
 561 474 508 487 439 487 c 0
 351 487 275 458 212 400 c 0
 149 342 118 260 118 154 c 0
41 135 m 0
 41 214 61 282 100 335 c 0
 139 388 172 424 197 442 c 0
 260 488 383 534 503 534 c 256
 572 534 626 518 666 487 c 0
 745 426 798 337 798 199 c 0
 798 120 778 53 739 0 c 0
 700 -53 667 -89 642 -107 c 0
 579 -153 455 -199 336 -199 c 256
 268 -199 213 -183 169 -150 c 0
 90 -91 41 5 41 135 c 0
EndSplineSet
EndChar

StartChar: cedilla
Encoding: 184 184 137
Width: 353
VWidth: 983
Flags: HMW
LayerCount: 2
Fore
SplineSet
44 -175 m 0
 44 -171 49 -166 57 -162 c 2
 91 -146 l 2
 101 -141 109 -143 118 -151 c 0
 125 -157 143 -172 156 -172 c 0
 161 -172 166 -170 168 -164 c 0
 170 -158 171 -152 171 -146 c 0
 171 -136 168 -126 161 -118 c 0
 154 -110 140 -98 120 -82 c 0
 116 -79 114 -75 114 -71 c 0
 114 -64 122 -56 137 -46 c 2
 232 16 l 1
 296 28 l 1
 202 -33 l 2
 197 -36 194 -39 194 -43 c 3
 194 -46 196 -50 201 -54 c 0
 216 -66 243 -102 243 -129 c 0
 243 -169 183 -198 152 -209 c 0
 132 -216 118 -219 112 -219 c 0
 87 -219 62 -200 47 -183 c 0
 45 -180 44 -178 44 -175 c 0
EndSplineSet
EndChar

StartChar: less
Encoding: 60 60 138
Width: 479
VWidth: 983
Flags: HMW
LayerCount: 2
Fore
SplineSet
49.919921875 193.919921875 m 1
 143.576470558 240.583360171 236.411335705 288.068482003 329.759765625 335.040039062 c 1
 395.040039062 365.759765625 l 1
 429.120117188 380.639648438 l 1
 434.879882812 367.6796875 l 1
 369.599609375 337.440429688 l 1
 310.559570312 307.200195312 l 2
 228.791413071 264.953002146 208.15669568 252.824230404 131.51953125 216 c 1
 434.879882812 63.83984375 l 1
 440.639648438 50.8798828125 l 1
 375.360351562 20.6396484375 l 1
 55.6796875 180.959960938 l 1
 49.919921875 193.919921875 l 1
EndSplineSet
EndChar

StartChar: equal
Encoding: 61 61 139
Width: 491
VWidth: 983
Flags: HMW
LayerCount: 2
Fore
SplineSet
60.48046875 301.440429688 m 1
 125.759765625 331.6796875 l 1
 187.200195312 333.120117188 l 1
 373.919921875 330.240234375 l 1
 428.16015625 330.719726562 l 1
 433.919921875 317.759765625 l 1
 368.639648438 287.51953125 l 1
 314.879882812 286.559570312 l 1
 127.6796875 289.919921875 l 1
 66.240234375 288.48046875 l 1
 60.48046875 301.440429688 l 1
60.48046875 176.16015625 m 1
 125.759765625 206.879882812 l 1
 187.200195312 208.3203125 l 1
 373.919921875 204.959960938 l 1
 428.16015625 205.919921875 l 1
 433.919921875 192.48046875 l 1
 368.639648438 162.240234375 l 1
 314.879882812 161.280273438 l 1
 127.6796875 164.639648438 l 1
 66.240234375 163.200195312 l 1
 60.48046875 176.16015625 l 1
EndSplineSet
EndChar

StartChar: greater
Encoding: 62 62 140
Width: 479
VWidth: 983
Flags: HMW
LayerCount: 2
Fore
SplineSet
52.7998046875 357.120117188 m 1
 118.080078125 387.360351562 l 1
 437.759765625 227.040039062 l 1
 443.51953125 214.080078125 l 1
 349.863668957 167.415953439 257.027992516 119.931642901 163.6796875 72.9599609375 c 1
 98.400390625 42.240234375 l 1
 64.3203125 27.3603515625 l 1
 58.5595703125 40.3203125 l 1
 123.83984375 70.5595703125 l 1
 182.879882812 100.799804688 l 2
 264.648388649 143.046103568 285.283979597 155.174897381 361.919921875 192 c 1
 58.5595703125 344.16015625 l 1
 52.7998046875 357.120117188 l 1
EndSplineSet
EndChar

